<svg xmlns="http://www.w3.org/2000/svg" width="300" height="132" viewBox="0 0 590 260" enable-background="new 0 0 590 260"><path fill="#999" d="M53.568 210.957v1.33c.08.242.14.625.18 1.148.04.523.1 1.046.182 1.57.08.524.14 1.028.18 1.512.04.483.06.765.06.846.08.08.182.342.303.786.12.44.18.742.18.904.08.08.2.22.363.423.16.2.242.342.242.423.16.162.502.443 1.027.847.523.402.865.604 1.027.604 0 .08.16.123.483.123h1.207c.32 0 .562-.042.725-.12.16-.083.442-.243.846-.485.402-.242.846-.525 1.33-.846.482-.322.945-.603 1.388-.845.443-.242.745-.404.907-.483.16-.163.644-.465 1.45-.907.804-.444 1.65-.906 2.537-1.39.885-.483 1.73-.927 2.537-1.33.805-.404 1.288-.686 1.45-.846.08 0 .28-.142.605-.423.32-.283.704-.604 1.148-.967.442-.364.845-.706 1.208-1.028.363-.32.665-.563.907-.726.16-.08.422-.32.785-.725.362-.4.623-.682.785-.844.08-.16.242-.38.483-.665.243-.28.403-.5.484-.664.16-.16.423-.483.785-.967.36-.485.58-.766.663-.847.16-.242.38-.583.665-1.028.28-.44.582-.906.905-1.39.32-.483.604-.946.846-1.39.242-.44.402-.743.483-.906.08-.08.2-.26.363-.545.16-.28.242-.502.242-.665.078-.162.18-.443.3-.847.122-.403.182-.684.182-.846.08-.16.18-.484.302-.967.12-.484.18-.805.18-.967.162-.16.282-.705.363-1.632.08-.923.12-1.59.12-1.992.08-.483.2-1.33.363-2.538.16-1.21.242-1.935.242-2.176v-2.78c0-.16-.08-.604-.242-1.33-.163-.725-.283-1.208-.362-1.45-.082-.403-.302-1.168-.665-2.297-.36-1.128-.624-1.893-.784-2.297 0-.08-.12-.402-.363-.967-.242-.563-.404-.925-.483-1.087l-.363-.363c-.082-.08-.163-.2-.243-.362-.162-.16-.483-.56-.966-1.207-.482-.644-.845-1.088-1.086-1.33l-1.45-1.45c-.082-.16-.302-.382-.665-.665-.363-.28-.666-.462-.907-.544-.08-.08-.362-.28-.846-.604-.483-.322-.806-.564-.966-.726-.24 0-.563-.1-.966-.302-.404-.2-.604-.342-.604-.423-.242-.08-.585-.2-1.027-.365l-1.51-.544c-.563-.2-1.067-.4-1.51-.603-.443-.2-.784-.342-1.026-.423-.08-.08-.283-.16-.604-.242-.323-.08-.564-.12-.725-.12-.24-.08-.746-.16-1.51-.242-.767-.08-1.27-.12-1.51-.12-.162-.08-.564-.14-1.208-.182-.647-.04-1.33-.08-2.055-.12-.725-.04-1.41-.062-2.054-.062H57.67c-.16 0-.422-.08-.784-.242-.363-.16-.585-.242-.665-.242-.08-.08-.24-.2-.482-.363-.242-.16-.404-.283-.483-.364v-2.418c0-.08.1-.322.302-.726.2-.402.422-.825.664-1.27.243-.44.463-.864.666-1.268.2-.402.34-.644.422-.725.08-.24.24-.644.483-1.208.24-.563.484-1.148.726-1.752.24-.603.483-1.187.725-1.752.243-.562.403-.966.484-1.208 0-.16.14-.644.423-1.45.282-.805.424-1.37.424-1.692.08-.16.2-.523.363-1.088.16-.563.242-1.007.242-1.33 0-.242.08-.765.242-1.57.08-.322.16-.685.242-1.088 0-.08.02-.282.06-.604.04-.32.06-.604.06-.846-.08 0-.12-.04-.12-.12v-.847c0-.16-.06-.502-.18-1.027-.123-.524-.225-.866-.304-1.028-.163-.32-.424-.946-.786-1.874-.363-.925-.585-1.47-.664-1.63-.08-.162-.302-.564-.665-1.21-.36-.644-.624-1.046-.784-1.208-.162 0-.283-.04-.363-.12l-.24-.243c-.163-.08-.424-.22-.786-.423-.362-.2-.584-.342-.664-.423-.404-.16-1.108-.423-2.114-.786-1.01-.362-1.593-.623-1.753-.785-.163-.08-.665-.2-1.51-.364-.846-.16-1.39-.28-1.63-.362-.163-.08-.545-.182-1.15-.302-.603-.12-1.067-.182-1.388-.182-.164 0-.466-.018-.907-.06-.444-.04-.906-.08-1.39-.12-.482-.04-.926-.08-1.328-.12-.404-.04-.646-.062-.725-.062h-4.348c-.164.08-.526.223-1.088.423-.564.204-1.148.425-1.752.667s-1.19.464-1.752.665c-.564.203-.927.303-1.087.303-.162.08-.725.202-1.69.363-.968.162-1.532.323-1.693.483-.404.08-1.168.263-2.295.544-1.13.283-1.894.465-2.296.544-.163.082-.545.202-1.15.363-.603.164-.986.284-1.147.363-.242.163-.785.404-1.63.725-.847.323-1.35.484-1.51.484-.082.082-.484.224-1.21.424-.724.202-1.167.344-1.328.423-.162 0-.32.04-.483.12l-.24.12c-.08 0-.122.04-.122.12-.16.08-.423.203-.785.364-.363.162-.623.323-.785.483-.08 0-.302.12-.665.363-.362.24-.785.503-1.27.785-.482.284-.966.565-1.45.846-.482.285-.884.506-1.207.667-.24.242-.683.565-1.328.967-.644.404-.967.646-.967.726-.16.08-.423.262-.785.543-.363.283-.583.464-.665.544-.16.08-.26.162-.302.242-.04.08-.1.16-.18.24-.08.162-.12.283-.12.362v2.298c0 .162.12.443.362.845.242.404.444.686.604.846.162.084.362.204.604.365.243.163.405.283.484.363.08 0 .302.06.665.18.36.122.663.224.904.303h1.33c.16-.08.422-.18.784-.3.36-.12.584-.18.664-.18.323-.163.846-.504 1.57-1.03.726-.522 1.472-1.087 2.236-1.69.766-.605 1.51-1.168 2.235-1.693.725-.523 1.208-.906 1.45-1.148.16-.08.502-.26 1.027-.545.523-.28.865-.463 1.027-.544.16-.16.663-.44 1.51-.845.845-.402 1.468-.684 1.872-.846.4-.16.966-.363 1.69-.605s1.167-.402 1.33-.484c.32-.16.864-.34 1.63-.542.764-.2 1.227-.302 1.39-.302h1.45c.16 0 .4.08.724.242.16.08.28.12.362.12.24.243.36.484.36.727 0 .967.04 2.62.122 4.956.08 2.338.14 4.816.18 7.434.04 2.62.1 5.097.182 7.433.08 2.338.12 3.95.12 4.835 0 .242.02.786.06 1.632.04.846.1 1.752.182 2.72.08.967.14 1.873.18 2.72.04.845.06 1.39.06 1.63 0 .484.02 1.572.062 3.264.04 1.692.08 3.546.12 5.56.04 2.015.08 3.99.122 5.922.04 1.934.1 3.344.18 4.23v4.834c0 .163-.02.565-.06 1.21-.04.645-.102 1.35-.18 2.114-.082.766-.143 1.47-.182 2.115-.042.647-.06 1.05-.06 1.21v7.493c0 .163.04.444.12.846.08.403.2.685.363.845.16.08.343.202.545.362.2.162.38.283.544.362h.965c.08-.16.2-.28.363-.363l.725-.363c0-.16.06-.32.18-.484.122-.16.182-.28.182-.36 0-.08.02-.322.06-.726.04-.402.08-.826.122-1.27.04-.44.08-.864.12-1.268.04-.403.062-.646.062-.727.08-.16.2-.462.363-.906.16-.442.322-.925.484-1.45.16-.523.32-1.007.484-1.45.16-.443.242-.745.242-.907.078-.242.18-.604.3-1.088s.182-.805.182-.968v-7.01c0-.242-.06-.786-.18-1.63-.122-.847-.224-1.35-.303-1.512v-16.317c0-.08.04-.28.12-.604.08-.32.2-.483.363-.483 0-.08.16-.12.483-.12.32 0 .484.04.484.12.24.163.663.465 1.268.907.604.444 1.066.746 1.39.906.078.162.24.262.482.3.242.043.402.062.483.062.16.082.32.12.483.12h1.45c.16 0 .28-.038.363-.12.242 0 .765-.1 1.57-.302.805-.2 1.288-.342 1.45-.423.16 0 .503-.04 1.028-.12.524-.08.866-.16 1.028-.243.16 0 .644-.12 1.45-.363.804-.24 1.288-.36 1.45-.36.32-.08.725-.16 1.208-.242.484-.08.766-.12.847-.12.08 0 .583-.02 1.51-.06.925-.04 1.59-.062 1.994-.062.484 0 1.168.02 2.055.06.885.043 1.37.06 1.45.06.08 0 .38.043.906.122.524.08.907.163 1.15.242.24.08.743.222 1.51.422.763.202 1.226.302 1.388.302.402.082.967.283 1.69.604.726.323 1.168.483 1.33.483.16.165.583.506 1.27 1.03.682.524 1.105.866 1.268 1.026.16.08.402.444.725 1.088.32.646.523 1.088.604 1.33.16.162.363.524.604 1.087.24.566.4.968.482 1.21 0 .16.08.483.242.967.08.242.12.443.12.604v13.417c-.08.242-.222.725-.42 1.45-.203.726-.384 1.21-.545 1.45 0 .082.04.203.12.364.08.163.04.284-.12.363l-.484.483c.08.163.12.283.12.362 0 .242-.04.404-.12.484l-.12.122c-.164.163-.284.242-.363.242 0 .08-.223.384-.665.907-.444.526-.665.828-.665.907-.163.162-.363.384-.604.665-.242.283-.405.504-.484.665l-.785.786c-.362.363-.584.625-.664.786-.162.16-.646.543-1.45 1.147-.806.603-1.33.987-1.57 1.147-.163.162-.544.423-1.15.786-.603.363-1.026.626-1.268.787-.323.242-.948.604-1.873 1.087-.927.484-1.47.807-1.63.967-.163.082-.345.163-.544.243-.2.08-.382.12-.543.12h-1.813c-.323 0-.564-.04-.725-.12-.163-.08-.284-.16-.363-.242-.08-.078-.242-.32-.483-.724-.24-.4-.403-.683-.482-.845-.08-.08-.24-.402-.482-.967-.242-.563-.404-.926-.483-1.088-.162-.08-.363-.2-.604-.362-.24-.16-.404-.242-.483-.242h-.242c-.08 0-.142-.018-.18-.06-.043-.04-.103-.06-.182-.06-.08 0-.12.02-.12.06 0 .043-.043.06-.122.06h-.12c-.163 0-.363.082-.605.243-.242.16-.404.282-.483.36 0 .08.02.243.06.484.04.242.02.362-.06.362 0-.08-.12 0-.362.242-.08.08-.16.12-.24.12v1.085zm-13.35-45.143c-.042-.684-.08-1.41-.12-2.175-.043-.767-.103-1.49-.182-2.178-.08-.684-.163-1.148-.242-1.39v-3.142c0-.16.1-.622.302-1.39.2-.764.302-1.226.302-1.39 0-.24.04-.785.12-1.63.08-.847.14-1.753.182-2.72.04-.967.08-1.893.12-2.78.04-.885.062-1.45.062-1.692s.08-.865.24-1.874c.162-1.006.243-1.67.243-1.994 0-.08.06-.32.18-.725.122-.402.222-.684.303-.846.16-.163.302-.384.423-.667.123-.282.183-.502.183-.665.16-.243.423-.666.785-1.27.362-.605.583-.907.664-.907l.968-.482c.483-.242.885-.362 1.208-.362h2.297c.4 0 1.026.04 1.872.12.846.083 1.39.164 1.63.243l.968.483c.08.08.16.12.242.12l.242.242c.08.163.28.484.603.967.16.242.282.444.363.604v9.91c-.08.163-.162.364-.242.605-.16.485-.282.768-.36.847-.082.323-.284.948-.605 1.874-.324.928-.526 1.51-.605 1.753-.162.08-.362.384-.603.907-.242.526-.404.907-.483 1.15-.164.322-.424.826-.786 1.51-.364.686-.626 1.07-.786 1.148-.162.323-.423.785-.785 1.39-.363.604-.586.988-.665 1.148-.08 0-.262.162-.544.483-.282.32-.603.684-.966 1.086-.362.404-.685.806-.966 1.208-.283.404-.423.646-.423.725-.164.162-.424.624-.786 1.39-.363.766-.625 1.23-.785 1.39-.08.08-.303.262-.665.543-.362.284-.624.465-.784.544-.08.08-.16.12-.24.12h-.605c-.08 0-.162-.04-.24-.12-.082 0-.243-.1-.484-.302-.24-.2-.403-.342-.482-.423-.005-.24-.026-.703-.065-1.39zm52.374 41.758c.483.646.765 1.01.846 1.088 0 .162.18.404.544.725.362.323.623.565.785.725.32.163.744.423 1.27.786.522.363.905.585 1.147.665l1.752.787c.44.202.885.404 1.33.604.44.203.785.38 1.026.545.16 0 .423.06.786.18.362.122.623.14.785.062.242.08.623.16 1.148.242.524.08 1.09.18 1.693.3.604.12 1.167.243 1.69.364.524.12.907.18 1.15.18.078 0 .582.04 1.51.122.924.08 1.51.16 1.75.242.242 0 .846.02 1.812.06.966.04 1.65.06 2.054.06.16-.08.4-.08.724 0 .32.08.562.08.725 0 .24 0 .724-.02 1.45-.06.724-.042 1.126-.06 1.207-.06.562-.082 1.308-.163 2.235-.242.926-.08 1.43-.12 1.51-.12.08 0 .383-.043.908-.122.522-.08 1.087-.162 1.69-.24.605-.083 1.21-.164 1.813-.243.605-.08 1.067-.162 1.39-.24.563 0 1.27-.06 2.115-.18s1.348-.225 1.51-.304c.242 0 .523-.042.846-.12.322-.083.726-.2 1.21-.364.24-.078.664-.18 1.268-.3s.946-.182 1.027-.182c.08-.16.462-.32 1.147-.483.684-.16 1.147-.32 1.39-.483.24-.08.644-.242 1.208-.484.563-.24 1.15-.483 1.753-.725s1.167-.483 1.69-.725c.524-.242.865-.442 1.028-.604.16-.08.484-.22.967-.423.483-.2.804-.38.967-.543.16-.08.402-.242.725-.483.32-.242.52-.402.603-.483.16-.16.502-.362 1.027-.603.523-.24.785-.44.785-.604.08-.08.302-.28.665-.604.362-.32.744-.665 1.148-1.027l1.208-1.087c.403-.363.685-.623.847-.786.242-.16.483-.38.725-.665.242-.28.442-.462.604-.544.08-.08.26-.302.544-.665.28-.362.423-.584.423-.665.402-.562.906-1.348 1.51-2.357.604-1.005.946-1.55 1.027-1.63.08-.16.26-.644.543-1.45.28-.805.502-1.37.665-1.692.08-.16.18-.523.302-1.088.12-.562.22-.925.302-1.087v-.12l-.12-.123c-.164 0-.364-.038-.605-.12-.24-.08-.443-.16-.603-.242.08 0 .16-.04.242-.12l.482-.243c.16 0 .32-.04.483-.12.16 0 .28-.02.363-.062.08-.04.16-.06.242-.06 0-.32.18-.826.542-1.51.362-.685.623-1.15.786-1.39 0-.08.16-.443.483-1.09.32-.643.484-1.045.484-1.208.08-.16.182-.483.302-.966.12-.485.26-.766.423-.847-.164-.16-.164-.484 0-.968-.082-.32-.103-.826-.062-1.51.04-.685.06-1.15.06-1.39.16 0 .2-.14.122-.424-.08-.28-.042-.502.12-.665-.08-.08-.14-.18-.18-.302-.042-.12-.103-.26-.182-.422-.08-.16-.12-.32-.12-.483-.243 0-.484-.04-.726-.122-.483-.16-.725-.28-.725-.362l-.12-.12c-.163 0-.242-.08-.242-.242 0-.16-.12-.32-.363-.483.16 0 .32-.04.483-.12l.483-.242c.16-.08.38-.14.665-.182.28-.04.502-.1.665-.18v-1.818l-.24-.483c-.083-.16-.164-.283-.243-.364-.082-.08-.12-.16-.12-.242 0-.08.08-.28.24-.604.162-.32.243-.522.243-.603l-.362-.363-.12-.24c-.163-.08-.464-.122-.906-.122h-1.028l-.725.24c-.08-.16-.343-.46-.785-.905-.442-.442-.584-.744-.422-.906-.162-.08-.202-.26-.12-.542.078-.28.2-.463.36-.544l.243-.242c.08-.078.162-.12.243-.12.08 0 .16-.04.24-.12h.967c.162 0 .443.06.847.18.402.12.644.223.725.303l.36-.363c.08 0 .02-.26-.18-.786-.202-.522-.383-.985-.544-1.39-.163-.16-.423-.705-.786-1.632-.363-.925-.665-1.55-.907-1.873 0-.08-.12-.242-.362-.484l-.12-.24c-.082-.08-.202-.162-.363-.243-.32-.16-.482-.282-.482-.363h-.12v-.364c0-.08.04-.16.12-.242l-.483-.967c-.163-.08-.283-.22-.362-.423-.082-.2-.202-.38-.363-.544-.162-.242-.362-.483-.604-.725-.162-.16-.344-.32-.543-.483-.202-.16-.344-.32-.423-.484l-1.812-1.813c-.08-.16-.483-.544-1.208-1.148-.725-.604-1.29-1.027-1.69-1.27l-.363-.36c-.162-.08-.362-.243-.604-.485-.163-.08-.483-.26-.966-.544-.483-.28-.987-.604-1.51-.967-.525-.36-1.048-.702-1.57-1.025-.526-.32-.907-.563-1.15-.725-.563-.243-1.35-.666-2.355-1.27-1.01-.604-1.553-.986-1.63-1.148-.083-.08-.506-.282-1.27-.604-.768-.32-1.27-.562-1.51-.725-.324-.16-1.05-.502-2.176-1.027-1.13-.523-1.854-.907-2.175-1.148-.243-.08-.565-.18-.967-.302-.404-.12-.686-.26-.846-.423-.163 0-.465-.08-.906-.242l-1.51-.542c-.563-.2-1.067-.38-1.51-.544-.442-.16-.745-.28-.905-.363-.24-.08-.846-.3-1.812-.664s-1.49-.583-1.57-.665c-.243-.16-.747-.3-1.51-.422-.767-.12-1.23-.14-1.39-.06-.242.08-.444.12-.604.12h-.726c-.162.083-.344.143-.544.183-.202.04-.383.103-.543.18l-.725.244c-.162 0-.646.162-1.45.483-.806.323-1.33.565-1.57.725-.163.082-.303.183-.424.303-.12.12-.26.223-.422.302-.162.08-.443.223-.846.423-.404.202-.646.383-.725.544-.163.08-.362.202-.604.362-.24.163-.524.323-.845.483-.323.24-.686.443-1.087.603-.163 0-.483.062-.967.183-.482.12-.845.223-1.086.302-.162.08-.383.142-.665.182-.283.042-.543.102-.785.18-.323.082-.646.122-.966.122-.083 0-.465.04-1.15.12-.685.082-1.107.163-1.27.242h-.12c-.08 0-.16.02-.24.06-.08.043-.163.062-.243.062h-.483c-.242.242-.525.444-.846.604-.164.162-.465.423-.907.785-.443.363-.886.767-1.33 1.21l-1.267 1.268c-.404.405-.685.726-.846.968-.163.163-.444.544-.847 1.15l-1.33 1.993c-.482.725-.947 1.43-1.39 2.115-.443.686-.745 1.19-.905 1.51 0 .163-.162.586-.483 1.27-.323.686-.564 1.108-.725 1.27 0 .162-.163.525-.483 1.087-.323.565-.686 1.19-1.087 1.874-.404.685-.785 1.33-1.148 1.933-.363.604-.586.948-.666 1.027-.08.08-.18.283-.302.604-.12.324-.18.565-.18.726-.083.082-.122.223-.122.423 0 .202-.042.383-.12.543-.083.242-.122.484-.122.725.162 0 .343.043.545.12.2.084.302.204.302.365.16-.08.402-.1.725-.06.32.04.562.02.725-.06.24 0 .583-.02 1.027-.06.442-.04.704-.062.785-.062.16 0 .32-.04.482-.12.16 0 .28-.02.36-.062.08-.04.16-.06.243-.06.16-.08.363-.14.604-.18.242-.04.442-.1.604-.18 0-.08.28-.2.847-.365.562-.16.966-.28 1.208-.362l.604-.484c.32 0 .482-.16.482-.484 0-.08.06-.282.18-.604.122-.322.182-.564.182-.726l.483-.242c.08-.16.32-.282.725-.363.402-.08.683-.2.846-.363-.162.163-.24.303-.24.423s-.083.18-.243.18l.242.242v.12l.12.243c.242.163.583.344 1.027.544.442.2.704.26.786.18.08-.08.2-.12.362-.12.32 0 .562-.04.725-.123.08 0 .16-.02.242-.06.08-.04.2-.06.362-.06.16 0 .28-.04.362-.122.16 0 .28-.04.362-.12.08-.08.2-.162.362-.243 0-.16.1-.583.302-1.27.2-.683.342-1.106.423-1.268v-1.39c0-.28-.042-.503-.12-.666.078-.08.078-.38 0-.906-.083-.523-.203-.825-.364-.907 0-.08.04-.22.12-.423.08-.2.04-.38-.12-.544 0-.08.08-.28.24-.604.16-.32.243-.523.243-.604.16-.242.32-.523.483-.846.242-.483.523-.886.846-1.21.08-.16.26-.4.543-.724.28-.32.422-.523.422-.604.16-.16.543-.523 1.147-1.088.603-.562.984-.967 1.147-1.208.16-.16.545-.423 1.148-.786.604-.362.986-.623 1.148-.786.08-.08.402-.302.967-.665.56-.363.924-.623 1.086-.786.4-.162.924-.443 1.57-.847.643-.402 1.045-.604 1.207-.604.16-.08.523-.243 1.087-.484.564-.242 1.15-.484 1.753-.726s1.167-.442 1.69-.604c.524-.16.907-.282 1.15-.363l1.45-.364c.16-.08.32-.12.482-.12.16 0 .36-.04.603-.122.24 0 .522-.04.845-.12h.483c.16 0 .28-.02.363-.062.08-.04.16-.06.242-.06l.483.12c.16.08.442.202.846.362.403.163.645.242.726.242.402 0 1.127.223 2.174.665 1.046.445 1.812.747 2.295.907l1.45.726.12.242c.16.08.644.343 1.45.785.804.444 1.33.665 1.57.665.08.08.28.223.604.423.32.203.665.424 1.027.666.363.24.705.464 1.028.665.32.202.483.344.483.423.16.082.684.384 1.57.907.886.526 1.45.828 1.69.907 0 .08.304.323.908.726.604.404 1.027.725 1.27.966.16.16.582.482 1.268.965.684.483 1.148.807 1.39.967.16-.08.604-.14 1.33-.18.724-.04 1.207-.062 1.45-.062H153c0 .083-.143.182-.424.303-.283.12-.464.223-.543.303-.164 0-.526.08-1.09.24-.563.164-.965.243-1.207.243.32.16.483.2.483.12.16.403.36.645.603.724.16.163.28.242.363.242.24 0 .804.102 1.69.302.886.2 1.45.3 1.692.3h.362v.122c0 .08-.042.12-.12.12l-.484.243c-.08.082-.202.12-.362.12h-.12l-.966.122c-.08.082-.163.12-.242.12h-.24l-.243.122c.078.162.26.503.543 1.026.28.525.583 1.07.906 1.632.32.565.603 1.088.845 1.57.242.484.442.847.604 1.09.08.24.22.584.42 1.026.2.445.404.908.606 1.39.2.484.402.907.604 1.27.2.363.3.585.3.665.162.08.282.383.364.906.08.526.2.868.362 1.028.08.243.18.726.302 1.45.12.726.22 1.21.302 1.452-.08.163-.102.544-.06 1.148.04.604.1.948.18 1.027v.12l.242.122c.08.162.2.283.363.362.16.08.28.162.362.24.08.08.16.12.242.12 0 .083.04.164.12.243 0 .163.08.242.24.242l.12.362c.08.082-.06.263-.42.544-.364.284-.626.505-.787.666v.12h.242c0 .08.26.18.785.302.524.12.787.223.787.302.08 0 .16.042.242.12.077.083.12.164.12.243 0 .08.04.163.12.242l.12.12.12.242c.08.082-.02.202-.3.363-.283.162-.464.323-.544.483-.08 0-.383.02-.906.06-.524.043-.785.143-.785.303-.08.082-.162.122-.242.122-.08.08-.08.162 0 .242-.162.08-.323.283-.483.604 0 .082-.042.344-.12.786-.082.444-.043.746.12.907 0 .163-.12.626-.363 1.39-.24.768-.362 1.23-.362 1.39l.242.243-.483.242c-.08.08-.162.12-.242.12-.08.083-.142.284-.18.605-.043.323-.143.565-.303.725.16.163.14.646-.063 1.45-.202.807-.383 1.33-.543 1.572h.12v.12c.08 0 .162.022.243.062.08.04.2.06.362.06h.36v.604c-.08-.08-.2-.12-.36-.12-.405 0-.647.04-.726.12-.082 0-.082.12 0 .363.08.242.04.362-.12.362 0 .08-.143.18-.424.3-.282.122-.422.224-.422.303-.08.163-.242.544-.483 1.148-.24.605-.404.988-.483 1.15-.162.162-.422.482-.785.966-.362.483-.544.807-.544.967-.08.08-.24.302-.483.664-.242.363-.525.767-.846 1.208-.323.444-.604.846-.846 1.21-.242.36-.363.584-.363.664 0 .08-.02.182-.06.302-.042.12-.06.223-.06.303-.164.163-.605.484-1.33.968-.726.483-1.17.846-1.33 1.087-.162.162-.463.403-.905.724-.444.322-.746.483-.906.483-.242.323-.706.686-1.39 1.087-.685.404-1.068.646-1.147.726-.08.163-.362.363-.846.605-.48.243-.804.405-.965.484-.404.163-.987.384-1.752.665-.766.282-1.19.463-1.27.543-.563.162-1.086.323-1.57.483-.403.163-.845.283-1.328.362-.483.082-.887.163-1.208.242-.564.162-1.45.362-2.658.604s-1.895.404-2.055.483c-.082 0-.483.062-1.208.183-.725.12-1.33.223-1.812.302-.08 0-.404.02-.967.06-.564.043-.927.103-1.087.183h-1.81c-.243 0-.605.02-1.088.06-.482.042-.986.06-1.51.06h-2.596c-.163-.08-.464-.12-.906-.12-.443 0-.746-.04-.906-.12-.483 0-1.168-.08-2.054-.243-.887-.16-1.793-.302-2.718-.423-.927-.12-1.752-.243-2.477-.363-.725-.12-1.168-.182-1.33-.182-.08-.08-.563-.302-1.45-.665-.886-.362-1.45-.665-1.69-.906-.162-.08-.362-.22-.604-.423-.242-.2-.483-.34-.725-.422-.162-.078-.404-.28-.725-.603-.164-.16-.284-.32-.364-.484 0-.08-.283-.44-.846-1.087-.564-.644-.966-1.167-1.208-1.57-.242-.322-.504-.805-.785-1.45-.283-.645-.423-1.007-.423-1.09-.163-.16-.344-.56-.544-1.207-.202-.644-.343-1.047-.423-1.21-.08-.078-.202-.28-.362-.603-.162-.32-.323-.665-.483-1.028-.162-.362-.302-.704-.423-1.027-.123-.32-.183-.562-.183-.725 0-.08-.08-.302-.242-.665-.162-.362-.242-.623-.242-.786-.162-.402-.283-.925-.362-1.57-.08-.645-.12-1.047-.12-1.21 0-.16-.02-.483-.06-.966-.043-.483-.083-1.027-.12-1.632l-.123-1.752c-.042-.563-.06-.967-.06-1.21v-1.45c0-.804-.043-1.408-.122-1.812-.163-.08-.202-.402-.12-.967.08-.563.16-.886.24-.967l-.12-.12v-.122c-.163 0-.504.042-1.027.12-.526.083-.907.083-1.15 0-.08 0-.282-.04-.603-.12-.323-.08-.564-.16-.725-.242h-.12c.078-.16.22-.32.422-.484.2-.16.34-.28.423-.362.08-.16.483-.342 1.208-.544.725-.2 1.167-.342 1.33-.423l.36-.363c.08-.16.122-.442.122-.846v-.845c-.08 0-.322.02-.725.06-.404.043-.686.06-.846.06-.08 0-.262-.1-.544-.3-.283-.2-.464-.343-.543-.424-.164.08-.586.12-1.27.12h-1.39l-.483.123c-.163 0-.323.082-.483.242-.162.08-.443.18-.845.302-.404.12-.604.223-.604.302-.24.24-.362.482-.362.724.164.08.443.12.847.12h.483c.16 0 .242.082.242.242 0 .082-.042.163-.12.242l-1.21.36c-.078.484-.12.89-.12 1.21 0 .322-.02.645-.06.966-.04.323.02.564.18.725l-.242.12c.082 0 .202-.02.363-.06.16-.04.32-.06.484-.06h1.088l.242.12v.243c-.08 0-.162.04-.242.12l-.242.243h-.23l-.12.12h-1.33c.163.083.202.224.12.424-.078.203-.12.345-.12.424-.08.564-.12 1.35-.12 2.356 0 1.01.04 1.553.12 1.632-.08 0-.04.102.12.302.163.202.282.344.363.423l-.242.242-.24.24c0 .082.04.383.12.906.08.525.043.907-.12 1.148.163.162.24.423.24.786 0 .363.084.626.244.787v3.263c.08.163.242.585.483 1.27.242.685.502 1.41.785 2.175.282.767.545 1.47.786 2.115.242.646.363 1.048.363 1.21.16.16.32.503.483 1.026.16.525.28.867.363 1.027.08.404.242.767.483 1.088.16.325.32.648.482.97.162.322.322.563.484.724.243.322.605.805 1.088 1.45zm67.175-18.975l1.208-.362-.483.483-.725-.12zm1.027-17.827c-.12.042-.18.02-.18-.06-.242-.08-.224-.162.06-.243.28-.08.38-.04.302.12 0 .082-.06.143-.182.183zm2.96-2.176c.08.12.16.182.242.182.242-.08.342-.16.302-.242-.042-.08-.18-.08-.423 0-.163-.08-.202-.06-.12.06zm-64.88 7.312l.243.242h.966c0 .162.14.444.423.846.28.404.423.646.423.725.077.16.34.42.783.783.442.363.665.586.665.665.24.24.56.362.966.362h.12c.08 0 .2-.04.363-.12.08 0 .16-.02.24-.06.08-.04.162-.062.243-.062l.363-.242c.08-.32-.042-.804-.363-1.45-.323-.644-.483-1.088-.483-1.33v-.12l-.12-.12c-.163.08-.405.02-.726-.182-.322-.2-.482-.342-.482-.423-.08-.08-.02-.34.182-.785.2-.442.26-.665.18-.665v-.242h-.12c-.163 0-.544.042-1.148.12-.604.082-.987.122-1.148.122l-.362.12h-.12c-.243.164-.586.345-1.028.545-.444.202-.665.344-.665.423l.242.242c.08.082.12.142.12.182 0 .042.04.102.122.18 0 .082.04.163.12.242zm-4.107-2.296l-.12.12c-.164 0-.284.043-.364.122-.08.08-.202.12-.362.12l.123.122.12.242.122.12.846-.845h-.362zm2.114-.484c.525.082.908.082 1.15 0 .08.082.26.12.543.12.28 0 .502-.04.665-.12.16-.16.583-.423 1.27-.785.683-.36 1.105-.622 1.268-.784.16 0 .28-.04.362-.12l.242-.243c.16-.562.44-1.31.845-2.236.402-.925.604-1.43.604-1.51l-.364-.605c-.08.082-.162.12-.242.12-.08 0-.162.022-.242.062-.08.04-.162.06-.24.06.078.08-.062.223-.424.423-.364.202-.626.344-.787.423 0 .242-.16.363-.482.363-.082.163-.202.284-.363.363-.323.163-.525.242-.604.242-.16.08-.36.163-.603.242-.164.08-.324.163-.484.242-.162.08-.283.12-.362.12l-.482.725-.24.483c-.082.08-.122.162-.122.242-.08 0-.142.02-.18.06-.043.043-.103.062-.182.062l-.12.12.24.122v.12c.08.164.322.243.726.243-.163.08-.483.222-.967.422-.483.202-.806.383-.966.544-.082 0-.143.042-.182.12-.042.082-.142.122-.302.122.16.08.5.16 1.025.24zm57.934-14.14c.08.162 0 .282-.24.36-.405.164-.647.143-.726-.06-.082-.2.08-.38.483-.543.243 0 .403.082.484.242zM86.31 173.97c.163.163.283.242.363.242l.12.12.726.122h1.085c.16 0 .402-.1.725-.302.322-.2.605-.382.847-.544-.08-.08-.102-.14-.06-.182.04-.04.02-.14-.06-.302l-3.747.846zm4.107-1.027c.08.12.28.102.604-.06.244-.08.323-.182.244-.303-.08-.12-.283-.1-.604.06-.243.082-.324.182-.243.303zm10.15-2.538c.078.12.04.223-.122.302-.404.16-.664.18-.785.06-.12-.12.02-.26.423-.423.242-.08.402-.06.483.06zm-9.062-.302c0 .08.32.08.967 0 .644-.08 1.127-.16 1.45-.242 0-.08.28-.26.846-.543.562-.282.885-.463.966-.544.16 0 .363-.04.604-.12.32-.16.562-.243.725-.243.242-.08.523-.14.846-.18.32-.04.56-.1.723-.183l.966.242c.16-.08.3-.2.422-.364.12-.162.14-.243.06-.243v-.242c-.24 0-.645.043-1.207.12-.564.083-.967.123-1.208.123-.163 0-.363.042-.604.12-.483.164-.806.285-.966.364-.163 0-.263.022-.302.062-.042.04-.142.06-.302.06h-.363c-.16.162-.503.383-1.026.665-.525.283-.827.423-.906.423-.162 0-.443.06-.846.182-.404.12-.725.223-.966.302l.12.24zm-2.78-.242c-.08 0-.162.043-.24.12-.082 0-.163.044-.243.123l-.12.24 2.536-.603c0-.08-.102-.12-.302-.12-.202 0-.343-.04-.423-.122-.08.082-.162.12-.242.12-.08 0-.16.022-.24.062-.08.042-.162.06-.24.06-.08.08-.24.12-.483.12zm15.466-5.92c-.08 0-.2.08-.36.242l-.12.12v.122c.077.082.12.163.12.242l.362-.726zm-4.227-3.505c-.082 0-.163.042-.242.12l-.12.242h-.362c-.08.082-.242.12-.483.12l1.208-.482zm-2.778-.242c.08-.16.32-.28.725-.362.4-.08.683-.2.845-.362l.242-.122h.242c-.164.082-.364.283-.606.604-.242.323-.404.525-.483.604h-.12c-.08.08-.202.12-.362.12h-.122c0-.08-.08-.1-.242-.06-.162.042-.323.02-.483-.06l.36-.362zm1.45-1.934c.078.162 0 .343-.243.543-.24.202-.442.344-.603.423-.08.08-.164.12-.243.12h-.362v-.24c0-.08.06-.16.18-.243.122-.08.1-.16-.06-.242l.604-.3c.24-.12.44-.183.603-.183l.123.122zm-.424-.364c.12.163.06.283-.18.362-.404.08-.646.06-.725-.06-.08-.122.04-.262.363-.424.24-.08.422-.04.543.12zm73.638 49.676c.483.646.765 1.01.846 1.088 0 .162.18.404.543.725.362.323.623.565.786.725.32.163.744.423 1.268.786.525.363.908.585 1.15.665.725.325 1.308.587 1.75.787.444.202.887.404 1.33.604.443.203.787.38 1.028.545.16 0 .423.06.785.18.362.122.623.14.786.062.24.08.622.16 1.146.242.523.08 1.087.18 1.69.3.605.12 1.168.243 1.692.364.523.12.906.18 1.148.18.08 0 .583.04 1.51.122.925.08 1.51.16 1.752.242.242 0 .846.02 1.812.06.966.04 1.65.06 2.053.06.16-.08.402-.08.726 0 .32.08.56.08.723 0 .242 0 .725-.02 1.45-.06.725-.042 1.127-.06 1.208-.06.563-.082 1.31-.163 2.236-.242.925-.08 1.43-.12 1.51-.12.08 0 .38-.043.906-.122.522-.08 1.087-.162 1.69-.24.605-.083 1.21-.164 1.813-.243.604-.08 1.066-.162 1.39-.24.56 0 1.268-.06 2.113-.18s1.347-.225 1.51-.304c.24 0 .522-.042.845-.12.32-.083.725-.2 1.208-.364.243-.078.666-.18 1.27-.3.604-.122.946-.182 1.027-.182.078-.16.46-.32 1.147-.483.683-.16 1.147-.32 1.39-.483.24-.08.643-.242 1.207-.484.563-.24 1.15-.483 1.753-.725s1.167-.483 1.69-.725c.524-.242.866-.442 1.028-.604.16-.08.484-.22.967-.423.483-.2.804-.38.966-.543.16-.08.402-.242.725-.483.322-.242.524-.402.605-.483.16-.16.502-.362 1.027-.603.523-.24.786-.44.786-.604.08-.08.302-.28.664-.604.363-.32.744-.665 1.148-1.027l1.208-1.087c.402-.363.684-.623.846-.786.242-.16.483-.38.725-.665.24-.28.44-.462.603-.544.08-.08.26-.302.544-.665.28-.362.423-.584.423-.665.402-.562.906-1.348 1.51-2.357.604-1.005.946-1.55 1.027-1.63.08-.16.26-.644.543-1.45.28-.805.502-1.37.665-1.692.08-.16.18-.523.302-1.088.12-.562.22-.925.302-1.087v-.12l-.122-.123c-.162 0-.362-.038-.604-.12-.242-.08-.444-.16-.604-.242.08 0 .16-.04.24-.12l.484-.243c.16 0 .32-.04.483-.12.16 0 .28-.02.362-.062.08-.04.16-.06.24-.06 0-.32.183-.826.545-1.51.362-.685.623-1.15.785-1.39 0-.08.16-.443.483-1.09.32-.643.483-1.045.483-1.208.08-.16.18-.483.303-.966.12-.485.26-.766.423-.847-.16-.16-.16-.484 0-.968-.08-.32-.1-.826-.06-1.51.04-.685.06-1.15.06-1.39.162 0 .2-.14.122-.424-.082-.28-.042-.502.12-.665-.08-.08-.14-.18-.18-.302-.042-.12-.102-.26-.18-.422-.083-.16-.122-.32-.122-.483-.242 0-.483-.04-.725-.122-.482-.16-.724-.28-.724-.362l-.12-.12c-.164 0-.243-.08-.243-.242 0-.16-.12-.32-.363-.483.16 0 .32-.04.483-.12l.483-.242c.16-.08.38-.14.665-.182.28-.04.503-.1.666-.18v-1.818l-.242-.483c-.08-.16-.163-.283-.242-.364-.08-.08-.12-.16-.12-.242 0-.08.078-.28.24-.604.16-.32.242-.522.242-.603l-.362-.363-.12-.24c-.164-.08-.465-.122-.907-.122h-1.028l-.725.24c-.08-.16-.344-.46-.785-.905-.444-.442-.585-.744-.423-.906-.163-.08-.203-.26-.122-.542.08-.28.2-.463.363-.544l.242-.242c.08-.078.16-.12.242-.12.08 0 .16-.04.24-.12h.968c.16 0 .44.06.846.18.4.12.643.223.724.303l.363-.363c.08 0 .02-.26-.18-.786-.203-.522-.384-.985-.544-1.39-.163-.16-.423-.705-.786-1.632-.362-.925-.665-1.55-.906-1.873 0-.08-.12-.242-.362-.484l-.12-.24c-.082-.08-.203-.162-.363-.243-.324-.16-.484-.282-.484-.363h-.12v-.364c0-.08.04-.16.12-.242l-.483-.967c-.163-.08-.284-.22-.363-.423-.08-.2-.202-.38-.362-.544-.163-.242-.362-.483-.604-.725-.16-.16-.342-.32-.542-.483-.202-.16-.343-.32-.423-.484l-1.813-1.813c-.082-.16-.483-.544-1.208-1.148s-1.29-1.027-1.69-1.27l-.364-.36c-.163-.08-.363-.243-.604-.485-.163-.08-.483-.26-.967-.544-.482-.28-.986-.604-1.51-.967-.524-.36-1.047-.702-1.57-1.025-.524-.32-.906-.563-1.147-.725-.564-.243-1.35-.666-2.356-1.27-1.008-.604-1.552-.986-1.63-1.148-.083-.08-.505-.282-1.27-.604-.766-.32-1.268-.562-1.51-.725-.322-.16-1.048-.502-2.175-1.027-1.13-.523-1.854-.907-2.174-1.148-.242-.08-.564-.18-.967-.302-.403-.12-.684-.26-.845-.423-.16 0-.463-.08-.905-.242l-1.51-.542c-.565-.2-1.07-.38-1.51-.544-.445-.16-.747-.28-.907-.363-.242-.08-.846-.3-1.812-.664-.965-.363-1.49-.583-1.57-.665-.24-.16-.745-.3-1.51-.422-.766-.12-1.23-.14-1.39-.06-.24.08-.442.12-.603.12h-.725c-.162.083-.343.143-.543.183-.203.04-.384.103-.545.18l-.725.244c-.163 0-.646.162-1.45.483-.806.323-1.33.565-1.57.725-.162.082-.302.183-.423.303s-.263.223-.423.302c-.163.08-.444.223-.847.423-.404.202-.646.383-.725.544-.163.08-.363.202-.604.362-.243.163-.526.323-.847.483-.323.24-.686.443-1.087.603-.163 0-.483.062-.966.183-.483.12-.846.223-1.088.302-.162.08-.383.142-.664.182-.283.042-.544.102-.785.18-.323.082-.646.122-.967.122-.08 0-.464.04-1.148.12-.685.082-1.108.163-1.27.242h-.12c-.082 0-.163.02-.242.06-.08.043-.163.062-.242.062h-.483c-.24.242-.524.444-.845.604-.162.162-.464.423-.906.785-.444.363-.888.767-1.33 1.21l-1.268 1.268c-.404.405-.686.726-.846.968-.163.163-.444.544-.846 1.15l-1.33 1.993c-.482.725-.947 1.43-1.39 2.115-.443.686-.745 1.19-.905 1.51 0 .163-.163.586-.484 1.27-.323.686-.564 1.108-.725 1.27 0 .162-.16.525-.482 1.087-.323.565-.685 1.19-1.087 1.874-.403.685-.784 1.33-1.146 1.933-.363.604-.585.948-.665 1.027-.08.08-.18.283-.303.604-.12.324-.18.565-.18.726-.082.082-.122.223-.122.423 0 .202-.04.383-.12.543-.08.242-.12.484-.12.725.16 0 .34.043.542.12.2.084.302.204.302.365.16-.08.4-.1.724-.06.32.04.56.02.724-.06.242 0 .583-.02 1.027-.06.443-.04.705-.062.787-.062.16 0 .32-.04.483-.12.16 0 .28-.02.363-.062.08-.04.16-.06.242-.06.16-.08.362-.14.604-.18.24-.04.44-.1.603-.18 0-.08.28-.2.846-.365.56-.16.966-.28 1.207-.362l.604-.484c.322 0 .484-.16.484-.484 0-.08.06-.282.182-.604.12-.322.18-.564.18-.726l.484-.242c.08-.16.32-.282.725-.363.4-.08.683-.2.845-.363-.16.163-.24.303-.24.423s-.082.18-.243.18l.242.242v.12l.12.243c.242.163.583.344 1.027.544.443.2.706.26.787.18.08-.08.2-.12.362-.12.32 0 .56-.04.724-.123.08 0 .16-.02.242-.06.08-.04.2-.06.362-.06.16 0 .28-.04.362-.122.16 0 .28-.04.363-.12.078-.08.2-.162.36-.243 0-.16.1-.583.303-1.27.2-.683.34-1.106.423-1.268v-1.39c0-.28-.043-.503-.12-.666.08-.08.08-.38 0-.906-.083-.523-.204-.825-.364-.907 0-.08.04-.22.12-.423.08-.2.04-.38-.12-.544 0-.08.08-.28.242-.604.16-.32.242-.523.242-.604.16-.242.32-.523.483-.846.242-.483.523-.886.846-1.21.08-.16.26-.4.543-.724.28-.32.423-.523.423-.604.16-.16.543-.523 1.148-1.088.605-.562.986-.967 1.15-1.208.16-.16.542-.423 1.146-.786.604-.362.985-.623 1.147-.786.08-.08.402-.302.967-.665.562-.363.925-.623 1.087-.786.403-.162.926-.443 1.57-.847.646-.402 1.048-.604 1.21-.604.16-.08.523-.243 1.087-.484.562-.242 1.147-.484 1.752-.726.603-.242 1.166-.442 1.69-.604.523-.16.906-.282 1.147-.363l1.45-.364c.16-.08.32-.12.483-.12.16 0 .362-.04.604-.122.242 0 .523-.04.846-.12h.483c.16 0 .28-.02.362-.062.08-.04.16-.06.242-.06l.483.12c.16.08.442.202.846.362.402.163.644.242.725.242.403 0 1.128.223 2.176.665 1.046.445 1.812.747 2.295.907l1.45.726.12.242c.16.08.646.343 1.45.785.806.444 1.33.665 1.57.665.08.08.283.223.606.423.32.203.665.424 1.027.666.362.24.704.464 1.027.665.32.202.483.344.483.423.16.082.684.384 1.57.907.886.526 1.45.828 1.69.907 0 .08.303.323.908.726.605.404 1.028.725 1.27.966.16.16.582.482 1.27.965.68.483 1.145.807 1.387.967.16-.08.604-.14 1.33-.18.724-.04 1.207-.062 1.45-.062h.603c0 .083-.142.182-.423.303-.283.12-.464.223-.543.303-.16 0-.524.08-1.086.24-.564.164-.967.243-1.208.243.32.16.483.2.483.12.16.403.362.645.603.724.16.163.28.242.362.242.242 0 .804.102 1.69.302.886.2 1.45.3 1.692.3h.362v.122c0 .08-.043.12-.122.12l-.483.243c-.08.082-.202.12-.362.12h-.12l-.968.122c-.08.082-.162.12-.242.12h-.242l-.24.122c.08.162.26.503.543 1.026.28.525.583 1.07.906 1.632.32.565.603 1.088.845 1.57s.44.847.604 1.09c.08.24.22.584.423 1.026.2.445.402.908.604 1.39.2.484.402.907.604 1.27.2.363.303.585.303.665.16.08.28.383.362.906.08.526.2.868.363 1.028.08.243.18.726.302 1.45s.22 1.21.3 1.452c-.08.163-.1.544-.06 1.148.04.604.1.948.182 1.027v.12l.242.122c.08.162.2.283.362.362.16.08.28.162.363.24.077.08.16.12.24.12 0 .083.04.164.12.243 0 .163.08.242.24.242l.12.362c.08.082-.06.263-.42.544-.364.284-.626.505-.786.666v.12h.24c0 .08.262.18.787.302.524.12.786.223.786.302.08 0 .16.042.242.12.078.083.12.164.12.243 0 .08.04.163.12.242l.122.12.12.242c.08.082-.02.202-.3.363-.284.162-.465.323-.544.483-.08 0-.383.02-.906.06-.525.043-.785.143-.785.303-.08.082-.163.122-.242.122-.082.08-.082.162 0 .242-.163.08-.323.283-.483.604 0 .082-.042.344-.12.786-.082.444-.043.746.12.907 0 .163-.12.626-.362 1.39-.242.768-.363 1.23-.363 1.39l.242.243-.484.242c-.08.08-.163.12-.242.12-.08.083-.14.284-.18.605-.04.323-.14.565-.303.725.16.163.14.646-.06 1.45-.203.807-.384 1.33-.544 1.572h.12v.12c.08 0 .162.022.243.062.078.04.2.06.36.06h.364v.604c-.082-.08-.202-.12-.363-.12-.403 0-.645.04-.724.12-.08 0-.08.12 0 .363.08.242.04.362-.12.362 0 .08-.142.18-.423.3-.283.122-.423.224-.423.303-.08.163-.24.544-.483 1.148-.242.605-.404.988-.483 1.15-.162.162-.422.482-.784.966-.364.483-.545.807-.545.967-.08.08-.24.302-.482.664-.242.363-.525.767-.846 1.208-.323.444-.604.846-.846 1.21-.242.36-.362.584-.362.664 0 .08-.02.182-.06.302-.043.12-.062.223-.062.303-.162.163-.604.484-1.33.968-.724.483-1.167.846-1.328 1.087-.163.162-.464.403-.906.724-.443.322-.746.483-.906.483-.242.323-.707.686-1.39 1.087-.685.404-1.068.646-1.147.726-.083.163-.364.363-.847.605l-.966.484c-.404.163-.987.384-1.752.665-.767.282-1.19.463-1.27.543-.563.162-1.086.323-1.57.483-.404.163-.846.283-1.33.362-.482.082-.886.163-1.207.242-.564.162-1.45.362-2.658.604s-1.894.404-2.054.483c-.08 0-.482.062-1.207.183-.725.12-1.33.223-1.812.302-.08 0-.403.02-.965.06-.565.043-.927.103-1.087.183h-1.812c-.24 0-.603.02-1.086.06-.483.042-.987.06-1.51.06h-2.597c-.163-.08-.465-.12-.907-.12-.443 0-.746-.04-.906-.12-.483 0-1.17-.08-2.054-.243-.888-.16-1.793-.302-2.72-.423-.926-.12-1.75-.243-2.476-.363-.725-.12-1.17-.182-1.33-.182-.08-.08-.563-.302-1.45-.665-.886-.362-1.45-.665-1.69-.906-.163-.08-.363-.22-.604-.423-.24-.2-.483-.34-.725-.422-.162-.078-.403-.28-.724-.603-.162-.16-.283-.32-.362-.484 0-.08-.283-.44-.846-1.087-.564-.644-.966-1.167-1.208-1.57-.24-.322-.504-.805-.785-1.45-.284-.645-.424-1.007-.424-1.09-.16-.16-.342-.56-.542-1.207-.202-.644-.344-1.047-.423-1.21-.082-.078-.202-.28-.363-.603-.162-.32-.323-.665-.483-1.028-.164-.362-.303-.704-.424-1.027-.12-.32-.18-.562-.18-.725 0-.08-.082-.302-.242-.665-.162-.362-.24-.623-.24-.786-.164-.402-.284-.925-.363-1.57-.08-.645-.12-1.047-.12-1.21 0-.16-.02-.483-.06-.966-.043-.483-.08-1.027-.12-1.632l-.123-1.752c-.04-.563-.06-.967-.06-1.21v-1.45c0-.804-.04-1.408-.12-1.812-.162-.08-.202-.402-.12-.967.078-.563.16-.886.24-.967l-.12-.12v-.122c-.162 0-.504.042-1.027.12-.524.083-.906.083-1.148 0-.08 0-.283-.04-.604-.12-.322-.08-.563-.16-.724-.242h-.12c.08-.16.22-.32.422-.484.2-.16.342-.28.423-.362.08-.16.483-.342 1.21-.544.723-.2 1.165-.342 1.327-.423l.363-.363c.08-.16.122-.442.122-.846v-.845c-.08 0-.323.02-.725.06-.404.043-.685.06-.846.06-.08 0-.26-.1-.54-.3-.284-.2-.465-.343-.544-.424-.163.08-.585.12-1.27.12h-1.388l-.483.123c-.162 0-.323.082-.483.242-.162.08-.443.18-.845.302-.404.12-.604.223-.604.302-.24.24-.36.482-.36.724.16.08.44.12.845.12h.483c.16 0 .24.082.24.242 0 .082-.04.163-.12.242l-1.207.36c-.08.484-.12.89-.12 1.21 0 .322-.02.645-.06.966-.04.323.02.564.18.725l-.24.12c.08 0 .2-.02.36-.06.162-.04.322-.06.484-.06h1.087l.243.12v.243c-.08 0-.163.04-.242.12l-.24.243h-.243l-.12.12h-1.33c.162.083.202.224.12.424-.08.203-.12.345-.12.424-.08.564-.12 1.35-.12 2.356 0 1.01.04 1.553.12 1.632-.08 0-.04.102.12.302.163.202.282.344.363.423l-.242.242-.24.24c0 .082.04.383.12.906.08.525.04.907-.12 1.148.16.162.24.423.24.786 0 .363.082.626.242.787v3.263c.08.163.24.585.483 1.27.24.685.502 1.41.785 2.175.28.767.543 1.47.785 2.115.242.646.362 1.048.362 1.21.16.16.32.503.483 1.026.16.525.28.867.362 1.027.08.404.242.767.483 1.088.16.325.32.648.483.97.16.322.32.563.484.724l1.088 1.45zm67.175-18.975l1.208-.362-.48.483-.726-.12zm1.027-17.827c-.12.042-.18.02-.18-.06-.243-.08-.224-.162.06-.243.28-.08.38-.04.3.12 0 .082-.06.143-.18.183zm2.96-2.176c.08.12.16.182.242.182.242-.08.342-.16.302-.242-.042-.08-.182-.08-.423 0-.16-.08-.2-.06-.12.06zm-64.88 7.312l.242.242h.966c0 .162.14.444.423.846.283.404.424.646.424.725.08.16.342.42.786.783.44.363.664.586.664.665.24.24.562.362.966.362h.12c.08 0 .2-.04.363-.12.08 0 .16-.02.242-.06.08-.04.16-.062.242-.062l.362-.242c.077-.32-.044-.804-.364-1.45-.323-.644-.483-1.088-.483-1.33v-.12l-.12-.12c-.164.08-.405.02-.726-.182-.323-.2-.483-.342-.483-.423-.08-.08-.02-.34.182-.785.2-.442.26-.665.18-.665v-.242h-.12c-.162 0-.543.042-1.148.12-.605.082-.988.122-1.148.122l-.363.12h-.122c-.242.164-.585.345-1.027.545-.443.202-.664.344-.664.423l.242.242c.08.082.12.142.12.182 0 .042.04.102.122.18 0 .082.04.163.12.242zm-4.107-2.296l-.12.12c-.163 0-.284.043-.363.122-.08.08-.202.12-.363.12l.12.122.122.242.12.12.845-.845h-.363zm2.114-.484c.523.082.906.082 1.148 0 .08.082.26.12.543.12.28 0 .502-.04.665-.12.16-.16.583-.423 1.27-.785.682-.36 1.105-.622 1.267-.784.16 0 .282-.04.363-.12l.242-.243c.16-.562.44-1.31.846-2.236.404-.925.606-1.43.606-1.51l-.362-.605c-.082.082-.163.12-.242.12-.08 0-.162.022-.24.062-.082.04-.164.06-.243.06.08.08-.06.223-.424.423-.362.202-.625.344-.785.423 0 .242-.163.363-.483.363-.08.163-.202.284-.362.363-.323.163-.525.242-.604.242-.16.08-.36.163-.603.242-.163.08-.323.163-.483.242-.163.08-.283.12-.363.12l-.482.725-.242.483c-.082.08-.12.162-.12.242-.082 0-.143.02-.182.06-.042.043-.102.062-.18.062l-.122.12.242.122v.12c.08.164.32.243.725.243-.164.08-.484.222-.967.422-.482.202-.805.383-.966.544-.08 0-.142.042-.18.12-.043.082-.143.122-.303.122.16.08.502.16 1.027.24zm57.932-14.14c.077.162 0 .282-.244.36-.404.164-.646.143-.725-.06-.08-.2.08-.38.484-.543.243 0 .403.082.484.242zm-68.506 14.986c.162.163.283.242.362.242l.12.12.726.122h1.087c.16 0 .4-.1.724-.302.32-.2.604-.382.846-.544-.08-.08-.1-.14-.06-.182.04-.04.02-.14-.06-.302l-3.745.846zm4.108-1.027c.08.12.28.102.604-.06.242-.08.32-.182.242-.303-.082-.12-.284-.1-.605.06-.242.082-.323.182-.242.303zm10.15-2.538c.078.12.04.223-.122.302-.403.16-.664.18-.784.06s.02-.26.422-.424c.243-.08.403-.06.484.06zm-9.062-.302c0 .08.322.08.967 0 .644-.08 1.127-.16 1.45-.242 0-.08.282-.26.846-.544.562-.283.885-.464.966-.545.16 0 .36-.04.602-.12.32-.16.562-.243.725-.243.242-.08.523-.14.846-.18.32-.04.562-.1.725-.183l.966.24c.16-.08.302-.2.423-.362.12-.162.14-.243.06-.243v-.242c-.242 0-.647.042-1.21.12-.563.082-.965.122-1.207.122-.163 0-.362.042-.604.12-.484.164-.807.285-.968.364-.163 0-.263.02-.302.06-.042.043-.142.06-.302.06h-.362c-.163.164-.504.385-1.027.667-.526.283-.828.423-.907.423-.163 0-.444.06-.846.182-.404.12-.725.223-.967.302l.12.24zm-2.78-.242c-.08 0-.16.042-.24.12-.08 0-.163.043-.242.122l-.12.24 2.536-.603c0-.08-.102-.12-.302-.12-.202 0-.344-.04-.423-.122-.083.082-.164.12-.244.12-.08 0-.162.022-.242.062-.08.042-.162.06-.242.06-.08.08-.24.12-.482.12zm15.466-5.922c-.08 0-.202.083-.362.244l-.12.12v.122c.078.082.12.163.12.242l.362-.726zm-4.228-3.503c-.08 0-.163.042-.242.12l-.12.242h-.364c-.08.08-.24.12-.483.12l1.207-.483zm-2.78-.242c.08-.16.322-.28.726-.362.402-.08.683-.2.846-.363l.242-.122h.24c-.16.082-.36.283-.603.604-.244.323-.406.525-.485.604h-.12c-.082.08-.203.12-.363.12h-.12c0-.08-.082-.1-.242-.06-.162.042-.322.02-.482-.06l.36-.362zm1.45-1.934c.08.164 0 .345-.24.545-.242.202-.444.344-.605.423-.08.08-.162.12-.242.12h-.36v-.24c0-.08.06-.16.18-.243.12-.08.1-.16-.06-.242l.605-.302c.242-.12.44-.18.604-.18l.12.12zm-.422-.362c.12.163.06.283-.18.362-.405.08-.647.06-.726-.06-.082-.122.04-.262.362-.424.242-.08.423-.04.544.12zm78.35 67.682c.16-1.128.34-2.316.542-3.564.2-1.25.38-2.438.544-3.565.16-1.127.28-1.932.363-2.415v-2.297l-.846.604h-1.574c-.24-.162-.543-.443-.906-.845s-.542-.765-.542-1.088c0 .322-.02.845-.06 1.57-.043.725-.062 1.167-.062 1.33 0 .402-.042.967-.12 1.692-.082.726-.122 1.167-.122 1.33 0 .402-.02 1.127-.06 2.176-.042 1.046-.082 2.175-.122 3.384-.042 1.208-.06 2.336-.06 3.384v2.176l.24 1.208c.162.16.303.362.424.604.12.242.22.362.302.362h.604c.08 0 .16-.12.242-.362.08-.242.12-.444.12-.604.08 0 .122-.202.122-.604v-.604c.16-.163.28-.423.363-.786.08-.362.2-.625.36-.785.003-.406.08-1.17.244-2.3zm-1.813-8.097v-.846h.725l-.725.846zm3.142-23.206c.08-.805.14-1.65.18-2.538.04-.888.06-1.734.06-2.54v-6.647c0-.402-.04-1.027-.12-1.874-.08-.847-.12-1.35-.12-1.51 0-.08-.042-.2-.12-.364-.082 0-.122-.08-.122-.242 0-.08-.042-.12-.12-.12 0-.484.038-1.25.12-2.297.08-1.046.14-2.155.18-3.324.04-1.167.08-2.276.122-3.324.04-1.047.06-1.77.06-2.176 0-.32.02-.744.06-1.27.04-.522.06-1.045.06-1.57 0-.523-.02-1.028-.06-1.51-.04-.484-.06-.847-.06-1.09-.162.164-.524.545-1.087 1.15-.564.603-.927.947-1.087 1.026 0 .164-.02.284-.06.363-.04.082-.06.163-.06.242l-.12.12c-.08.164-.18.364-.303.605s-.18.444-.18.604c0 .082-.062.363-.182.847s-.263.808-.423.968c0 .163-.12.544-.36 1.148-.243.604-.364.948-.364 1.027v.967l.363.482c0 .163-.02.544-.06 1.148-.043.605-.06.988-.06 1.148 0 .323-.023.907-.063 1.753-.042.848-.08 1.735-.12 2.66-.043.928-.062 1.814-.062 2.66v1.75c0 .325.02.83.06 1.513.04.686.06 1.37.06 2.055v3.082c0 .322.04.947.122 1.873.08.927.08 1.51 0 1.752 0 .163.04.465.12.907.08.444.122.746.122.906.16 0 .26.182.3.544.04.363.06.625.06.786 0 .162-.02.544-.06 1.148-.04.604-.06.988-.06 1.148v2.538c0 .484.04 1.01.12 1.57h.848v.243c0 .082.02.163.06.242.04.08.06.162.06.242l-.603.48v.243c0 .08-.02.162-.06.242-.043.08-.062.202-.062.362v.967c0 .323.02.746.06 1.27.04.524.08 1.026.122 1.51.04.483.08.906.12 1.27.04.36.06.584.06.664l.363.362c.08.162.28.646.604 1.45.16.163.322.363.484.604.24.404.44.885.604 1.45h.483c0-2.82.062-5.297.182-7.433.12-2.133.18-3.523.18-4.17v-5.92l-.482-.483c.082-.32.163-.884.245-1.69zm-.06 5.137c-.043.444-.182.665-.424.665-.16 0-.22-.223-.18-.667.04-.442.14-.665.303-.665.24 0 .342.222.302.664zm-2.175-18.553c.28.406.422.688.422.848.16 0 .32.202.483.604.16.405.242.807.242 1.21.08.08.12.16.12.24 0 .082.04.164.122.243 0 .163.04.283.12.363 0 .162.02.344.06.544.04.202.06.423.06.665-.163 0-.504-.08-1.028-.242-.524-.16-.866-.242-1.027-.242-.08 0-.14-.078-.18-.24-.043-.162-.142-.322-.303-.484 0-.16-.02-.463-.06-.908-.042-.443-.06-.745-.06-.907v-1.33c0-.16.04-.32.12-.482l.242-.482c.16 0 .38.2.665.604zm1.39-1.146c0 .363-.082.544-.243.544-.323 0-.483-.18-.483-.544 0-.362.16-.544.483-.544.16 0 .242.18.242.543zm.482-39.945c.08-1.128.16-2.316.24-3.566.08-1.25.162-2.437.243-3.565.08-1.128.12-1.935.12-2.418v-6.648c0-.803-.04-1.33-.12-1.57 0-.402.02-1.046.06-1.934.04-.886.08-1.813.12-2.78.04-.967.06-1.853.06-2.66v-2.175c.08-.242.16-.745.243-1.51.08-.766.16-1.27.242-1.512.16-.16.26-.382.302-.665.04-.28.1-.423.18-.423l.242-.242c.16-.16.32-.24.483-.24.16-.243.402-.424.725-.545.32-.12.483-.26.483-.423.242 0 .684-.14 1.33-.423.643-.28 1.086-.422 1.328-.422.16-.16.423-.302.786-.423.36-.12.58-.302.663-.544.16 0 .522-.078 1.087-.24.564-.16.926-.243 1.088-.243.08 0 .342-.06.786-.18.44-.122.925-.243 1.45-.363.523-.12 1.006-.22 1.45-.303.44-.078.744-.16.906-.24.242-.08.623-.22 1.147-.423.523-.2 1.106-.38 1.752-.543.642-.16 1.225-.32 1.75-.483.523-.16.906-.28 1.15-.362.16 0 .36-.16.602-.484.242-.32.442-.523.604-.604v-1.088c0-.32.04-.604.12-.846v-.24c0-.322.04-.564.122-.727.078-.322.16-.605.24-.847v-.602c-.08-.162-.24-.464-.482-.907-.242-.442-.404-.745-.483-.907l.362-.483c.08 0 .302-.182.665-.544.363-.364.544-.624.544-.787l.12-.242v-.24h-.482c-.163.08-.625.24-1.39.482-.766.242-1.59.504-2.477.786-.887.283-1.712.525-2.477.725-.767.202-1.27.302-1.51.302-.163.16-.707.3-1.63.422-.928.12-1.51.263-1.753.423-.08 0-.362.083-.846.243-.483.162-.806.242-.966.242-.163.08-.464.223-.906.423-.445.202-.928.404-1.45.604-.526.202-1.01.383-1.45.544-.445.163-.708.243-.787.243h-2.296c-.08 0-.222-.182-.422-.544-.202-.364-.302-.625-.302-.787.08-1.046.16-3 .242-5.862.08-2.86.18-5.86.302-9.003.12-3.143.242-6.123.363-8.944.12-2.82.22-4.753.3-5.802v-.725c0-.242.04-.744.122-1.51.08-.766.18-1.572.3-2.418.12-.846.22-1.65.303-2.417.08-.765.12-1.228.12-1.39v-1.33l-.24-.24c-.163-.16-.323-.243-.483-.243 0-.16-.102-.362-.302-.604s-.3-.442-.3-.604c-.083 0-.143-.26-.183-.787-.04-.523-.102-.865-.18-1.027l-.122-.24c0 .24-.06.706-.18 1.39-.122.685-.183 1.147-.183 1.39-.08.08-.12.16-.12.24 0 .082-.042.163-.12.242-.324.323-.647.484-.968.484-.08.08-.404.12-.966.12-.323 0-.604-.04-.846-.12-.163.162-.302.604-.423 1.33-.122.725-.182 1.33-.182 1.812L252.55 98.68c0 .163-.04.404-.12.725-.08.322-.162.483-.242.483-.08.162-.322.343-.724.544-.404.202-.685.383-.846.543-.08 0-.302.12-.664.363-.363.242-.665.363-.906.363-.163.08-.585.24-1.27.484l-2.234.785-2.235.784c-.683.242-1.147.404-1.39.484-.08 0-.3.06-.664.18-.362.122-.583.182-.665.182-.24 0-.522.082-.845.242l-.483.242v1.45l-.24.363h-.847v-1.087h-.544c-.28 0-.46.08-.542.242-.08 0-.382.042-.907.12-.522.083-.905.203-1.147.364-.16 0-.442.102-.846.302-.403.202-.847.404-1.33.604-.483.202-.946.383-1.39.544-.44.163-.784.283-1.026.363-.32.16-.724.343-1.207.543-.483.2-.925.382-1.33.543-.56.242-1.126.483-1.69.725v1.088c-.08-.16-.2-.32-.362-.483-.16-.16-.28-.242-.36-.242h-.846c-.16.082-.423.223-.786.423-.36.202-.763.423-1.207.665-.44.243-.845.445-1.207.605-.363.162-.583.24-.665.24-.16 0-.604.143-1.33.424-.724.282-1.49.603-2.294.966s-1.57.686-2.296.967c-.725.283-1.167.465-1.33.544-.32.163-.845.383-1.57.665-.724.282-1.207.503-1.45.664-.08 0-.2.042-.362.12-.16.083-.24.203-.24.364-.08.163-.2.404-.364.725-.16.323-.32.525-.483.604v.24l-.12.24c.162.165.322.385.482.667.162.284.283.544.362.786.08 0 .262.06.543.18.283.122.465.183.544.183h2.417c.24-.08.646-.14 1.208-.182l1.69-.12c.565-.04 1.07-.062 1.51-.062h.786c.083-.078.324-.22.726-.422.404-.2.806-.363 1.208-.483.404-.12.786-.242 1.148-.363.362-.12.585-.18.665-.18.08 0 .302-.02.665-.062.362-.04.767-.1 1.208-.18.445-.08.828-.14 1.15-.182.322-.04.524-.06.603-.06.162-.08.464-.2.906-.363.442-.16.744-.32.904-.484.08 0 .283-.06.604-.18.322-.12.706-.28 1.147-.483.444-.2.867-.402 1.27-.604.403-.2.724-.38.965-.544.163 0 .362-.08.604-.242.242-.16.443-.242.604-.242l.242-.483c.162-.16.483-.2.967-.12.482.08.805.12.965.12.163-.08.404-.16.725-.242.162-.08.362-.14.604-.18.243-.04.445-.1.605-.182.242 0 .564-.12.967-.36.242-.08.483-.2.725-.364v-1.148c0-.604.042-.986.12-1.148 0-.402.082-.765.243-1.087.162-.16.343-.402.543-.725.202-.32.344-.563.423-.726h.362c0 .08.04.162.12.24 0 .083.022.164.062.243.04.08.06.163.06.242-.08.08-.12.162-.12.242v.844c0 .163-.1.383-.303.665-.2.283-.34.543-.422.785l-.12.483c0 .082.02.163.06.242.04.08.06.202.06.363.242-.08.746-.24 1.51-.483.767-.242 1.59-.442 2.477-.604.887-.16 1.71-.32 2.477-.483.764-.16 1.347-.242 1.75-.242.08-.16.38-.24.907-.24h2.118c.402 0 .604.08.604.24l.964 1.814v1.15c0 .524.02 1.068.06 1.63.04.565.062 1.088.062 1.57v1.09l.242.724c.078.163.12.363.12.604s.04.444.12.604v.483c0 .24.08.362.243.362 0 .484-.04 1.39-.12 2.72-.08 1.33-.162 2.74-.242 4.23-.08 1.492-.163 2.9-.242 4.23-.08 1.33-.12 2.236-.12 2.72v1.268c0 .686-.022 1.432-.062 2.236-.042.806-.06 1.592-.06 2.357v1.63c0 .405.018 1.15.06 2.237.04 1.088.06 1.713.06 1.874 0 .484.02 1.29.062 2.418.04 1.13.06 2.338.06 3.626v6.04c0 .162.06.383.18.664.122.283.182.504.182.665h.483c.08-.16.303-.302.666-.423.362-.12.623-.26.786-.423.32 0 .562-.16.725-.48 0 .162.06.383.18.664.12.283.18.504.18.665l.243.483c.08 0 .14.02.18.06.04.042.1.06.182.06.08.082.16.12.24.12 0-.24.02-.703.062-1.39.04-.683.08-1.39.12-2.114.04-.726.08-1.39.122-1.995.04-.604.06-1.027.06-1.27v-.906c0-.524-.022-1.15-.06-1.875-.043-.725-.082-1.43-.122-2.115-.04-.685-.06-1.19-.06-1.512v-3.143c0-.644-.042-1.288-.12-1.934l-.363-.48c-.003-.487.037-1.29.118-2.42zm-2.296 2.417c-.08 0-.202.08-.362.242-.162.16-.323.24-.483.24-.08 0-.12-.14-.12-.422v-.665c.08-.08.12-.2.12-.363 0-.243.04-.364.123-.364h.362c.08 0 .12.042.12.12 0 .164.04.243.122.243.08.16.16.28.242.36v.12c0 .083-.02.143-.06.183-.044.042-.063.102-.063.18v.122zm1.33-4.714h-.484l.12-1.33h.484l-.12 1.33zm-1.57-5.076c.078.242.138.423.18.544.04.12.06.263.06.424.08 0 .12.08.12.242v.483l-.482-.243-.242-.483v-.967h.363zm2.415-2.176h-.36c-.08-.16-.202-.46-.362-.905-.163-.442-.283-.744-.362-.907l1.086 1.813zm-2.052-5.8v1.207c-.08.162-.142.465-.18.907-.043.443-.103.746-.182.906l-.483-.726c0-.242.02-.583.06-1.027.04-.442.08-.907.12-1.39.04-.484.06-.947.06-1.39V122c0-.08-.02-.18-.06-.302-.04-.12-.06-.26-.06-.423-.08-.16-.12-.32-.12-.483 0-.16.06-.463.18-.907.12-.442.18-.744.18-.906h.483c.16.32.242.805.242 1.45-.08.24-.12.523-.12.844v1.57c-.08.406-.12.93-.12 1.573zm-6.826-14.746c-.04.323-.18.483-.422.483-.162-.16-.223-.32-.18-.483.04-.16.14-.242.3-.242.243-.16.343-.078.303.243zm-3.986-2.055c-.04.482-.14.725-.302.725-.24 0-.34-.242-.302-.726.042-.484.18-.726.423-.726.162 0 .223.242.18.725zm87.473-18.916c.36-.2.824-.38 1.39-.544-.083-.08.04-.182.36-.303.32-.12.684-.26 1.09-.423.4-.16.883-.362 1.447-.604-.24-.08-.706-.12-1.39-.12h-2.234c-.806 0-1.57-.02-2.295-.06-.725-.04-1.33-.062-1.812-.062l1.812-.24c.32-.08.946-.222 1.873-.424.926-.2 1.893-.423 2.9-.665 1.007-.244 1.913-.444 2.72-.606.803-.16 1.287-.242 1.45-.242l.603-.604h-.967c-.483 0-1.19.02-2.114.06-.928.042-1.895.082-2.9.12-1.01.043-1.976.122-2.9.243-.927.12-1.59.224-1.994.303-5.478 1.048-10.39 1.975-14.74 2.78-1.854.404-3.666.767-5.437 1.087-1.773.323-3.343.604-4.712.846-1.612.323-3.183.604-4.71.846-.164 0-.345.02-.545.06-.202.043-.383.06-.543.06h-.605c-.242 0-.604.062-1.087.183-.483.12-1.008.242-1.57.362-.565.12-1.088.24-1.57.362-.484.12-.847.18-1.09.18-.16 0-.482.06-.965.18s-1.027.243-1.63.364l-1.813.362c-.604.12-1.07.222-1.39.3-.403.083-.887.203-1.45.364-.563.162-.926.242-1.086.242-.163.163-.323.464-.483.907-.16.442-.24.745-.24.905 0 .162.16.2.483.12.32-.08.562-.04.725.12 0 .164.12.284.363.364l.363.36c0 .164-.02.484-.06.968-.043.484-.103.767-.182.846 0 .162.1.3.303.422.2.12.302.263.302.423.242 0 .744-.04 1.51-.12.765-.08 1.227-.123 1.39-.123.4-.08.985-.14 1.75-.182.766-.04 1.19-.06 1.27-.06.16 0 .462-.078.906-.24.443-.16.926-.322 1.45-.484.524-.16 1.007-.3 1.45-.422.44-.12.745-.22.907-.302.08 0 .906-.18 2.477-.543 1.57-.363 3.503-.786 5.8-1.27 2.294-.483 4.81-1.027 7.55-1.63 2.737-.605 5.356-1.168 7.854-1.693 2.496-.523 4.69-.986 6.584-1.39 1.893-.402 3.16-.644 3.807-.725.722-.244 1.266-.465 1.63-.667zm164.976-26.41c0-.16.04-.32.12-.482-.403 0-1.188-.04-2.355-.12-1.17-.08-2.156-.04-2.96.12.16-.16.18-.22.06-.18-.12.042-.3.06-.542.06-.323.082-.646.122-.967.122-.08-.08-.403-.14-.966-.18-.564-.04-1.208-.062-1.933-.062h-7.732c-.484 0-.847.042-1.088.12-.725.082-1.41.163-2.054.243-.646.08-1.27.142-1.873.18-.604.043-1.19.103-1.752.182-.16 0-.48.02-.964.06-.483.043-1.027.103-1.63.182-.605.08-1.19.162-1.752.24-.564.08-.927.12-1.088.12-.483.083-1.37.224-2.658.424-1.29.202-2.68.423-4.168.665-1.492.24-2.942.463-4.35.664-1.41.202-2.478.344-3.203.423-.564 0-1.673.12-3.322.363-1.652.24-3.504.503-5.558.785-2.054.284-4.107.585-6.162.907-2.054.323-3.685.604-4.893.846-.404 0-1.45.12-3.14.362l-5.498.786c-1.975.283-3.866.565-5.68.846-1.81.283-2.96.423-3.442.423-.404 0-1.23.102-2.477.302-1.25.202-2.597.404-4.047.604-1.45.204-2.82.406-4.107.606-1.29.202-2.094.344-2.415.423-.404 0-1.27.08-2.598.24-1.33.164-2.88.364-4.65.605-1.774.242-3.667.483-5.68.725-2.014.24-3.907.503-5.678.785-1.773.283-3.305.525-4.59.725-1.29.202-2.098.344-2.42.423-1.29.08-2.98.24-5.073.483-2.095.242-4.19.504-6.283.786-2.095.283-3.987.544-5.678.785-1.69.242-2.7.404-3.02.484-.405 0-1.11.06-2.115.183-1.007.12-1.63.262-1.872.423-.404.08-.827.163-1.27.242-.443.08-.664.202-.664.362-.323.08-.806.2-1.45.362-.646.162-1.31.344-1.993.544-.684.202-1.51.504-2.476.906l.24.12c0 .082.262.164.787.243.523.08 1.088.12 1.69.12h2.96c.403 0 .766.043 1.088.122.644.162.885.283.725.362 0 .08.14.26.423.542.28.283.302.504.06.665l123.114-14.14c1.528-.243 2.978-.484 4.35-.727 1.126-.16 2.193-.32 3.2-.482 1.007-.16 1.67-.32 1.995-.483.644-.16 1.49-.363 2.537-.604 1.045-.24 1.69-.482 1.933-.723.402 0 1.066-.2 1.994-.604.923-.402 1.547-.644 1.87-.726.16 0 .403-.04.726-.12.32-.08.684-.2 1.088-.363.4-.16.846-.32 1.33-.484v-1.817zM261.13 48.76c.08-.483.162-.986.243-1.51.08-.524.14-1.028.18-1.512.04-.483.1-.804.182-.967 0-.402.08-1.007.242-1.813.16-.805.242-1.288.242-1.45 0-.16.04-.847.12-2.055.08-1.208.12-2.094.12-2.658 0-.483.04-1.31.12-2.478.08-1.167.12-1.874.12-2.115-.08-.402-.18-.986-.3-1.752-.12-.765-.262-1.228-.423-1.39.08-.16.16-.362.242-.604.08-.24.12-.442.12-.604h.725v-1.814l-.362-.725c0-.077.02-.32.06-.723.04-.402.06-.684.06-.846 0-.562-.16-1.006-.482-1.33 0-.16-.12-.46-.362-.905-.243-.442-.444-.744-.605-.907l-.242-.242c-.08 0-.12-.02-.12-.06 0-.04-.042-.06-.12-.06-.08 0-.12-.04-.12-.122h-.967c-.082 0-.323.142-.725.423-.405.283-.647.544-.726.786-.323 0-.564.202-.725.604l-.243.484c-.08.163-.12.405-.12.726-.082.162-.163.464-.242.906-.08.445-.12.747-.12.907-.083.24-.164.584-.243 1.026-.08.444-.163.907-.24 1.39-.084.483-.144.927-.184 1.33-.043.404-.062.646-.062.725 0 .163-.02.483-.06.967-.042.483-.06 1.027-.06 1.632 0 .603-.022 1.207-.062 1.812-.042.605-.06 1.07-.06 1.39 0 .405-.02.928-.06 1.572l-.122 1.874c-.042.604-.082 1.148-.12 1.632-.043.483-.06.766-.06.846v2.658c0 .484.018.907.06 1.27.04.362.1.544.18.544h.604c0-.16.1-.544.302-1.148.2-.604.342-.986.423-1.148 0-.08.1-.32.3-.725.2-.402.34-.604.423-.604.16 0 .342.122.544.363.2.242.343.444.424.604l.12.12.243.242c.08.162.18.383.302.664.12.283.18.544.18.786-.08.08-.12.163-.12.242v1.33l-.604 1.088v1.813c.08.163.24.465.484.907.242.444.402.746.483.906h.482c.08-.16.16-.362.242-.604.16-.32.24-.563.24-.725.084-.164.165-.487.246-.97z"/><path fill="#241F20" d="M308.612 210.957v1.33c.08.242.14.625.182 1.148.04.523.1 1.046.18 1.57.08.524.14 1.028.182 1.512.04.483.06.765.06.846.08.08.182.342.303.786.12.44.18.742.18.904.08.08.2.22.362.423.16.2.24.342.24.423.162.162.503.443 1.028.847.524.402.865.604 1.028.604 0 .08.16.123.483.123h1.21c.32 0 .56-.042.724-.12.16-.083.44-.243.846-.485.402-.242.846-.525 1.33-.846.482-.322.945-.603 1.388-.845.44-.242.744-.404.906-.483.16-.163.644-.465 1.45-.907.804-.444 1.65-.906 2.537-1.39.887-.483 1.733-.927 2.54-1.33.803-.404 1.287-.686 1.45-.846.08 0 .28-.142.603-.423.32-.283.704-.604 1.148-.967.44-.364.847-.706 1.21-1.028.36-.32.664-.563.905-.726.16-.08.423-.32.786-.725.363-.4.624-.682.786-.844.08-.16.242-.38.483-.665.24-.28.4-.5.482-.664.162-.16.424-.483.787-.967.36-.485.582-.766.664-.847.16-.242.38-.583.665-1.028.28-.44.582-.906.905-1.39.32-.483.604-.946.845-1.39.242-.44.402-.743.483-.906.08-.08.2-.26.364-.545.16-.28.24-.502.24-.665.08-.162.183-.443.303-.847.12-.403.18-.684.18-.846.08-.16.182-.484.303-.967.12-.484.18-.805.18-.967.162-.16.282-.705.363-1.632.08-.923.12-1.59.12-1.992.08-.483.2-1.33.363-2.538.16-1.21.24-1.935.24-2.176v-2.78c0-.16-.08-.604-.24-1.33-.163-.725-.284-1.208-.363-1.45-.08-.403-.302-1.168-.665-2.297-.364-1.128-.626-1.893-.787-2.297 0-.08-.12-.402-.362-.967-.24-.563-.403-.925-.482-1.087l-.36-.363c-.08-.08-.163-.2-.243-.362-.162-.16-.483-.56-.967-1.207-.483-.644-.845-1.088-1.087-1.33l-1.45-1.45c-.08-.16-.302-.382-.665-.665-.362-.28-.664-.462-.906-.544-.082-.08-.363-.28-.847-.604-.483-.322-.806-.564-.967-.726-.24 0-.564-.1-.966-.302-.404-.2-.604-.342-.604-.423-.242-.08-.585-.2-1.027-.365l-1.51-.544c-.564-.2-1.07-.4-1.51-.603-.444-.2-.786-.342-1.027-.423-.082-.08-.283-.16-.604-.242-.324-.08-.565-.12-.726-.12-.242-.08-.746-.16-1.51-.242-.767-.08-1.27-.12-1.51-.12-.163-.08-.564-.14-1.208-.182-.646-.04-1.33-.08-2.054-.12-.724-.04-1.41-.062-2.053-.062h-1.21c-.162 0-.423-.08-.785-.242-.362-.16-.585-.242-.665-.242-.082-.08-.243-.2-.484-.363-.24-.16-.404-.283-.483-.364v-2.418c0-.08.1-.322.302-.726.2-.402.423-.825.665-1.27.242-.44.462-.864.665-1.268.2-.402.342-.644.423-.725.08-.24.242-.644.483-1.208.244-.563.485-1.148.727-1.752.24-.603.483-1.187.725-1.752.243-.562.403-.966.484-1.208 0-.16.14-.644.423-1.45.28-.805.422-1.37.422-1.692.08-.16.2-.523.362-1.088.16-.563.242-1.007.242-1.33 0-.242.08-.765.242-1.57.08-.322.16-.685.24-1.088 0-.08.02-.282.062-.604.04-.32.06-.604.06-.846-.08 0-.12-.04-.12-.12v-.847c0-.16-.06-.502-.182-1.027-.12-.524-.222-.866-.302-1.028-.163-.32-.423-.946-.785-1.874-.362-.925-.585-1.47-.665-1.63-.08-.162-.302-.564-.665-1.21-.363-.644-.626-1.046-.787-1.208-.162 0-.283-.04-.362-.12l-.24-.243c-.162-.08-.423-.22-.785-.423-.362-.2-.585-.342-.665-.423-.405-.16-1.11-.423-2.115-.786-1.008-.362-1.59-.623-1.752-.785-.162-.08-.665-.2-1.51-.364-.846-.16-1.39-.28-1.63-.362-.164-.08-.544-.182-1.15-.302-.603-.12-1.067-.182-1.388-.182-.163 0-.464-.018-.906-.06-.446-.04-.908-.08-1.39-.12-.485-.04-.93-.08-1.33-.12-.405-.04-.647-.062-.726-.062h-4.348c-.163.08-.526.223-1.088.423-.565.204-1.15.425-1.752.667-.604.242-1.19.464-1.752.665-.564.203-.927.303-1.087.303-.163.08-.726.202-1.692.363-.967.162-1.53.323-1.69.483-.405.08-1.17.263-2.297.544-1.128.283-1.893.465-2.294.544-.163.082-.543.202-1.148.363-.604.164-.987.284-1.147.363-.24.163-.785.404-1.63.725-.847.323-1.35.484-1.51.484-.083.082-.484.224-1.21.424-.724.202-1.167.344-1.33.423-.16 0-.32.04-.48.12l-.243.12c-.08 0-.12.04-.12.12-.16.08-.424.203-.786.364-.36.162-.622.323-.785.483-.08 0-.302.12-.664.363-.362.24-.785.503-1.27.785-.48.284-.965.565-1.45.846-.48.285-.883.506-1.206.667-.242.242-.683.565-1.33.967-.643.404-.965.646-.965.726-.16.08-.424.262-.787.543-.362.283-.583.464-.665.544-.16.08-.26.162-.303.242-.04.08-.1.16-.182.24-.08.162-.12.283-.12.362v2.298c0 .162.12.443.362.845.24.404.443.686.604.846.163.084.362.204.604.365.242.163.404.283.483.363.08 0 .302.06.665.18.362.122.665.224.906.303h1.33c.162-.08.422-.18.784-.3.363-.12.585-.18.665-.18.323-.163.846-.504 1.57-1.03.726-.522 1.472-1.087 2.236-1.69.767-.605 1.51-1.168 2.235-1.693.724-.523 1.207-.906 1.45-1.148.16-.08.5-.26 1.026-.545.522-.28.864-.463 1.027-.544.16-.16.666-.44 1.51-.845.847-.402 1.47-.684 1.874-.846.402-.16.966-.363 1.69-.605s1.168-.402 1.33-.484c.32-.16.864-.34 1.63-.542.766-.2 1.228-.302 1.39-.302h1.45c.16 0 .403.08.726.242.16.08.28.12.363.12.242.243.363.484.363.727 0 .967.04 2.62.12 4.956.08 2.338.14 4.816.182 7.434.04 2.62.1 5.097.18 7.433.08 2.338.122 3.95.122 4.835 0 .242.02.786.06 1.632.04.846.1 1.752.183 2.72.08.967.14 1.873.18 2.72.04.845.06 1.39.06 1.63 0 .484.02 1.572.062 3.264.04 1.692.08 3.546.12 5.56.04 2.015.08 3.99.122 5.922.04 1.934.1 3.344.18 4.23v4.834c0 .163-.02.565-.06 1.21-.043.645-.103 1.35-.182 2.114-.08.766-.142 1.47-.18 2.115-.043.647-.062 1.05-.062 1.21v7.493c0 .163.04.444.12.846.08.403.2.685.363.845.16.08.34.202.542.362.2.162.38.283.543.362h.967c.08-.16.2-.28.362-.363l.724-.363c0-.16.06-.32.18-.484.12-.16.182-.28.182-.36 0-.08.02-.322.06-.726.04-.402.08-.826.12-1.27.04-.44.08-.864.122-1.268.04-.403.06-.646.06-.727.08-.16.2-.462.363-.906.16-.442.32-.925.484-1.45.16-.523.32-1.007.483-1.45.16-.443.24-.745.24-.907.08-.242.183-.604.303-1.088s.18-.805.18-.968v-7.01c0-.242-.06-.786-.18-1.63-.12-.847-.223-1.35-.302-1.512v-16.317c0-.08.04-.28.12-.604.08-.32.2-.483.363-.483 0-.08.16-.12.484-.12.32 0 .483.04.483.12.242.163.665.465 1.27.907.603.444 1.066.746 1.388.906.08.162.243.262.484.3.24.043.4.062.482.062.16.082.32.12.483.12h1.45c.16 0 .28-.038.362-.12.242 0 .765-.1 1.57-.302.805-.2 1.288-.342 1.45-.423.162 0 .503-.04 1.028-.12.523-.08.865-.16 1.027-.243.16 0 .644-.12 1.45-.363.804-.24 1.287-.36 1.45-.36.32-.08.725-.16 1.208-.242.483-.08.764-.12.845-.12.08 0 .583-.02 1.51-.06.925-.04 1.59-.062 1.994-.062.482 0 1.166.02 2.053.06.885.043 1.368.06 1.45.06.08 0 .38.043.905.122.523.08.906.163 1.148.242.243.08.745.222 1.51.422.766.202 1.228.302 1.39.302.402.082.967.283 1.69.604.726.323 1.168.483 1.33.483.16.165.583.506 1.27 1.03.682.524 1.105.866 1.267 1.026.16.08.402.444.725 1.088.32.646.523 1.088.604 1.33.16.162.362.524.604 1.087.24.566.402.968.483 1.21 0 .16.08.483.24.967.08.242.12.443.12.604v13.417c-.08.242-.22.725-.42 1.45-.203.726-.384 1.21-.544 1.45 0 .082.04.203.12.364.08.163.04.284-.12.363l-.483.483c.08.163.12.283.12.362 0 .242-.04.404-.12.484l-.12.122c-.164.163-.284.242-.364.242 0 .08-.223.384-.666.907-.443.526-.664.828-.664.907-.163.162-.363.384-.604.665-.242.283-.404.504-.483.665l-.786.786c-.36.363-.584.625-.663.786-.163.16-.646.543-1.45 1.147-.806.603-1.33.987-1.57 1.147-.163.162-.544.423-1.148.786-.605.363-1.028.626-1.27.787-.323.242-.948.604-1.873 1.087-.927.484-1.47.807-1.63.967-.163.082-.344.163-.544.243-.203.08-.384.12-.545.12h-1.813c-.323 0-.564-.04-.725-.12-.162-.08-.283-.16-.362-.242-.08-.078-.242-.32-.483-.724-.24-.4-.404-.683-.483-.845-.08-.08-.24-.402-.484-.967-.24-.563-.403-.926-.482-1.088-.163-.08-.362-.2-.604-.362-.242-.16-.404-.242-.483-.242h-.24c-.082 0-.143-.018-.182-.06-.042-.04-.102-.06-.18-.06-.082 0-.122.02-.122.06 0 .043-.042.06-.12.06h-.122c-.16 0-.36.082-.603.243-.242.16-.404.282-.483.36 0 .08.02.243.06.484.04.242.02.362-.06.362 0-.08-.12 0-.363.242-.08.08-.16.12-.24.12v1.085zm-13.35-45.143c-.042-.684-.082-1.41-.12-2.175-.043-.767-.103-1.49-.182-2.178-.08-.684-.162-1.148-.242-1.39v-3.142c0-.16.1-.622.302-1.39.2-.764.302-1.226.302-1.39 0-.24.04-.785.12-1.63.08-.847.14-1.753.182-2.72.04-.967.08-1.893.12-2.78.04-.885.062-1.45.062-1.692s.08-.865.242-1.874c.16-1.006.242-1.67.242-1.994 0-.08.06-.32.18-.725.122-.402.222-.684.303-.846.16-.163.302-.384.423-.667.12-.282.18-.502.18-.665.16-.243.424-.666.786-1.27.363-.605.583-.907.665-.907l.966-.482c.483-.242.885-.362 1.208-.362h2.298c.4 0 1.026.04 1.872.12.845.083 1.39.164 1.63.243l.966.483c.08.08.16.12.242.12l.242.242c.08.163.28.484.604.967.16.242.28.444.363.604v9.91c-.082.163-.163.364-.242.605-.163.485-.283.768-.363.847-.08.323-.283.948-.604 1.874-.323.928-.525 1.51-.604 1.753-.162.08-.362.384-.604.907-.242.526-.404.907-.483 1.15-.162.322-.423.826-.786 1.51-.36.686-.623 1.07-.783 1.148-.163.323-.423.785-.786 1.39s-.584.988-.664 1.148c-.08 0-.262.162-.543.483-.283.32-.604.684-.967 1.086-.362.404-.685.806-.966 1.208-.284.404-.424.646-.424.725-.162.162-.423.624-.786 1.39-.362.766-.625 1.23-.785 1.39-.082.08-.302.262-.665.543-.362.284-.625.465-.785.544-.08.08-.162.12-.242.12h-.602c-.08 0-.162-.04-.242-.12-.08 0-.242-.1-.483-.302-.242-.2-.404-.342-.483-.423.002-.24-.018-.703-.058-1.39zm49.415 48.89c.04.32.06.522.06.603l.363.846c.16.16.402.484.725.967.32.483.562.765.725.846.08.16.22.282.423.363.2.077.342.12.423.12.16 0 .664.08 1.51.24.846.16 1.43.243 1.752.243h2.538c.16 0 .542-.082 1.147-.242.604-.162.985-.24 1.147-.24h11.72c.16 0 .665.08 1.51.24.846.16 1.348.243 1.51.243h13.653c.242 0 .925-.06 2.054-.182 1.127-.12 1.933-.222 2.417-.3.16 0 .402-.043.725-.12.32-.083.52-.204.602-.365.16-.08.423-.343.785-.785.362-.443.623-.785.786-1.027v-.362c-.242-.24-.363-.563-.363-.965 0-.242-.12-.362-.36-.362-.164-.323-.445-.484-.847-.484-.082-.08-.302-.143-.665-.18-.363-.044-.746-.083-1.148-.123-.404-.042-.785-.08-1.147-.12-.362-.043-.585-.062-.665-.062-.08 0-.283-.02-.604-.06-.323-.043-.665-.103-1.027-.182s-.706-.14-1.027-.18c-.323-.04-.525-.062-.604-.062-.162 0-.544-.02-1.148-.06-.604-.04-1.25-.08-1.933-.12-.685-.04-1.31-.1-1.873-.18-.564-.08-.887-.123-.966-.123-.242 0-.786-.06-1.63-.182-.847-.12-1.39-.22-1.632-.302-.163 0-.483-.04-.967-.12-.483-.08-.987-.162-1.51-.243-.524-.08-1.027-.162-1.51-.243-.483-.08-.766-.12-.845-.12-.404-.16-.906-.282-1.51-.363-.604-.08-.948-.12-1.027-.12-.162-.08-.423-.14-.785-.183-.363-.04-.746-.077-1.148-.12-.404-.04-.785-.08-1.147-.12-.362-.04-.585-.06-.665-.06-.242 0-.665-.06-1.27-.18-.603-.123-1.248-.223-1.932-.304-.686-.08-1.33-.18-1.933-.302-.604-.12-1.027-.18-1.27-.18-.24-.08-.685-.182-1.328-.303-.646-.12-1.048-.18-1.208-.18-.083 0-.243-.04-.485-.12-.242-.08-.444-.2-.604-.363-.08-.08-.262-.22-.543-.423-.283-.2-.464-.342-.543-.423l-.242-.482c-.08-.08-.12-.2-.12-.363 0-.24-.022-.725-.06-1.45-.043-.725-.062-1.208-.062-1.45 0-.402.02-.986.062-1.753.04-.764.06-1.187.06-1.268 0-.08.02-.362.06-.846.04-.483.1-1.046.182-1.692.08-.644.16-1.27.242-1.873.08-.603.16-1.106.242-1.51 0-.16.06-.584.18-1.27.122-.683.243-1.45.363-2.295.123-.846.244-1.632.365-2.357.12-.724.18-1.166.18-1.33 0-.16.04-.5.122-1.026.08-.522.16-1.066.242-1.63.08-.563.16-1.107.24-1.632.08-.523.12-.906.12-1.148 0-.644.02-1.792.063-3.444.04-1.65.08-3.384.12-5.197.04-1.814.08-3.525.122-5.138.04-1.61.06-2.738.06-3.384v-14.503c0-.16-.02-.643-.06-1.45-.042-.804-.08-1.71-.12-2.72-.043-1.005-.082-2.012-.122-3.02-.042-1.007-.06-1.752-.06-2.236 0-.32-.043-1.187-.122-2.6-.08-1.407-.16-2.92-.24-4.53-.08-1.61-.163-3.1-.243-4.473-.08-1.37-.12-2.255-.12-2.66 0-.32-.022-.885-.062-1.69-.042-.806-.08-1.65-.12-2.54l-.122-2.537c-.042-.805-.06-1.41-.06-1.813 0-.563-.042-1.913-.12-4.05-.082-2.133-.163-4.45-.243-6.95-.082-2.496-.163-4.833-.243-7.01-.08-2.174-.12-3.543-.12-4.108 0-.08-.022-.32-.062-.726-.042-.4-.08-.864-.12-1.39-.043-.522-.083-1.006-.122-1.45-.04-.442-.06-.786-.06-1.027 0-.16-.042-.523-.12-1.088-.082-.564-.164-1.168-.243-1.814-.08-.644-.162-1.27-.24-1.874-.083-.604-.122-1.027-.122-1.27 0-.4-.042-.885-.12-1.45-.082-.562-.163-.925-.242-1.088-.08-.16-.12-.34-.12-.543 0-.2-.043-.38-.122-.543-.082-.242-.12-.442-.12-.604-.164-.243-.324-.563-.484-.967-.163-.403-.344-.805-.544-1.21-.202-.4-.464-.924-.785-1.57-.08-.16-.26-.342-.54-.544-.284-.2-.505-.303-.666-.303l-.483-.243c-.08 0-.14.02-.18.06-.042.043-.102.062-.18.062-.083.08-.164.12-.243.12-.08.162-.162.283-.24.362-.082.163-.163.263-.243.302-.082.042-.163.102-.242.182l-.36.604v.846c-.082.163-.224.544-.424 1.148-.202.604-.302.988-.302 1.148-.08.163-.163.585-.242 1.27-.08.685-.12 1.108-.12 1.268v6.287c0 .08.06.525.18 1.33.12.806.242 1.752.363 2.84.12 1.088.26 2.196.422 3.324.16 1.13.32 2.056.482 2.78.08.164.16.526.242 1.088.08.565.12.888.12.967 0 .162.04.444.122.846.08.405.16.828.24 1.27.08.444.162.846.243 1.21.08.36.12.584.12.664.08.405.16.99.242 1.753.08.767.12 1.23.12 1.39 0 .242.02.665.062 1.27.04.603.08 1.268.12 1.993.04.725.08 1.39.122 1.994.04.604.06 1.027.06 1.27 0 .162.02.443.06.845.04.403.08.845.122 1.33.04.482.1.947.18 1.39.08.443.122.785.122 1.027 0 .08.02.302.06.664.04.364.08.768.12 1.21.04.444.08.867.122 1.27.04.403.06.645.06.724 0 .565.04 1.432.122 2.6.08 1.168.16 2.376.242 3.625.08 1.25.14 2.416.18 3.504.04 1.087.062 1.833.062 2.236 0 .323.02.987.06 1.994.04 1.008.08 2.115.122 3.324.04 1.208.08 2.357.12 3.445.04 1.086.062 1.872.062 2.355 0 .807.02 1.934.06 3.384l.122 4.41c.04 1.493.08 2.883.12 4.17.04 1.29.062 2.176.062 2.66l.362.967c0 .24-.02.624-.06 1.147-.043.525-.082 1.108-.122 1.752l-.12 1.812c-.043.565-.06.967-.06 1.208 0 .404-.022 1.148-.062 2.236-.04 1.087-.08 2.256-.12 3.505-.043 1.25-.082 2.438-.122 3.565-.042 1.13-.06 1.934-.06 2.417v4.473l-.363.483c0 .242-.02.725-.06 1.45-.044.726-.104 1.472-.183 2.237-.08.767-.162 1.51-.242 2.236-.08.725-.12 1.208-.12 1.45 0 .163-.043.525-.122 1.088-.08.564-.18 1.19-.3 1.874-.122.687-.223 1.33-.303 1.935-.082.604-.12 1.027-.12 1.27 0 .162-.062.645-.182 1.45-.12.806-.182 1.29-.182 1.45 0 .08-.02.262-.06.543-.042.284-.082.605-.122.967-.04.363-.08.706-.12 1.027-.042.323-.06.525-.06.604 0 .162-.043.525-.122 1.088-.082.564-.163.927-.242 1.087 0 .164-.06.484-.18.968-.122.485-.242 1.01-.363 1.57-.12.567-.242 1.09-.362 1.573-.12.483-.18.767-.18.846 0 .08-.02.3-.06.664-.043.364-.062.625-.062.787-.002.163.017.404.06.727zm76.598-39.28c.362.08.623.12.785.12.08 0 .22.04.423.12.2.08.342.203.423.363.08.082.22.344.423.786.2.444.3.746.3.907.16.162.28.646.363 1.45.08.807.12 1.29.12 1.45.08.242.182.666.303 1.27.12.604.18.987.18 1.148.08.323.222.967.424 1.934.2.967.343 1.57.424 1.813.08.323.242.928.483 1.813.24.888.522 1.854.846 2.9.32 1.05.604 2.056.846 3.022s.44 1.692.602 2.176c.08.162.16.404.242.725.08.325.12.566.12.727.08.163.303.707.665 1.632.362.926.582 1.47.664 1.63.08.082.18.302.302.665.12.363.26.767.423 1.21.16.443.3.866.422 1.268.12.404.22.646.302.725 0 .162.12.483.362.967.242.483.502 1.027.786 1.632.28.604.562 1.19.846 1.752.28.564.5.966.664 1.21.16.32.523 1.025 1.087 2.113.562 1.088.925 1.832 1.087 2.236 0 .08.14.3.423.664.282.362.463.623.544.786 0 .078.14.34.423.784.282.442.563.926.846 1.45.28.524.562 1.028.846 1.512.28.483.42.765.42.846.16.16.342.402.544.725.2.32.302.563.302.725.16.16.523.584 1.088 1.27.562.683.966 1.187 1.208 1.51 0 .08.08.2.24.363.08.08.162.12.243.12.16.162.402.343.725.545.322.2.524.342.605.423.242.16.562.362.967.604.402.242.683.363.846.363h2.175c.16 0 .342-.12.543-.363.2-.242.342-.443.423-.604v-3.383c-.083-.082-.165-.203-.244-.364-.162-.162-.242-.323-.242-.483-.08-.162-.223-.344-.422-.544l-.423-.425c-.164 0-.345-.06-.545-.18-.202-.122-.344-.224-.423-.303-.082 0-.302-.06-.665-.182-.363-.12-.585-.222-.665-.3-.242-.164-.585-.466-1.027-.908-.443-.444-.706-.746-.785-.906 0-.082-.14-.363-.422-.846-.283-.483-.585-1.07-.906-1.752-.323-.686-.665-1.35-1.027-1.994-.362-.646-.625-1.167-.786-1.57-.244-.484-.566-1.168-.968-2.056-.404-.886-.827-1.792-1.27-2.72-.443-.925-.826-1.73-1.147-2.416-.323-.684-.483-1.107-.483-1.27-.08-.16-.222-.5-.422-1.026-.2-.523-.403-1.067-.603-1.632-.202-.563-.383-1.087-.543-1.57-.163-.484-.242-.805-.242-.968-.08-.16-.302-.725-.665-1.692-.363-.967-.585-1.53-.665-1.692-.08-.242-.263-.665-.544-1.27-.283-.603-.423-.985-.423-1.147-.162-.402-.383-1.127-.664-2.176-.282-1.048-.502-1.694-.663-1.936-.08-.402-.223-1.088-.422-2.055-.202-.968-.344-1.57-.423-1.814 0-.16-.04-.544-.12-1.148-.08-.605-.18-1.25-.302-1.935-.12-.684-.223-1.37-.302-2.055-.08-.684-.162-1.188-.242-1.51v-1.45c.08-.08.16-.2.242-.364.24-.242.32-.363.24-.363.08-.16.222-.36.424-.603.2-.242.38-.362.543-.362.08-.16.402-.282.967-.363.562-.08.967-.12 1.208-.12.32 0 .906-.04 1.752-.122.846-.08 1.73-.14 2.658-.182.925-.04 1.812-.078 2.658-.12.846-.04 1.43-.06 1.752-.06.16-.08.32-.182.483-.303.16-.12.322-.18.484-.18l.24-.243c.08-.08.122-.16.122-.242v-.967c-.08-.08-.224-.22-.424-.423-.202-.2-.343-.38-.422-.544l-.482-.242c-.323-.16-.604-.242-.846-.242-.163-.08-.464-.18-.906-.302-.444-.12-.746-.18-.906-.18-.24-.08-.685-.182-1.33-.303-.645-.122-1.047-.182-1.207-.182-.162 0-.464-.02-.906-.06-.442-.04-.905-.1-1.39-.182-.48-.08-.945-.14-1.39-.18-.44-.04-.704-.062-.783-.062-.483-.08-1.19-.18-2.114-.3-.928-.12-1.432-.18-1.51-.18-.082 0-.203-.04-.364-.123-.323-.16-.484-.28-.484-.362-.082 0-.162-.04-.242-.12l-.24-.243c0-.16-.06-.342-.182-.544-.12-.2-.223-.34-.302-.422 0-.16-.042-.423-.12-.786-.082-.362-.203-.583-.363-.665 0-.16-.08-.562-.242-1.208-.162-.645-.3-1.33-.422-2.056-.12-.724-.262-1.41-.423-2.053-.163-.644-.242-1.047-.242-1.21 0-.16-.08-.522-.24-1.087-.164-.563-.303-1.167-.424-1.813-.122-.644-.263-1.248-.424-1.812-.163-.563-.242-.926-.242-1.088 0-.08-.04-.484-.12-1.21-.083-.724-.203-1.247-.364-1.57 0-.08-.02-.302-.06-.665-.042-.362-.06-.765-.06-1.208 0-.442-.02-.846-.06-1.208-.043-.364-.06-.585-.06-.666-.082-.16-.182-.544-.303-1.148-.12-.604-.18-.986-.18-1.148-.08-.242-.202-.765-.362-1.57-.162-.805-.344-1.65-.544-2.54-.202-.885-.383-1.73-.544-2.537-.162-.804-.283-1.287-.362-1.45-.08-.16-.162-.562-.24-1.208-.083-.645-.122-1.048-.122-1.21-.162-.16-.283-.463-.362-.906-.08-.442-.12-.744-.12-.907-.082-.16-.182-.402-.303-.725-.12-.32-.18-.563-.18-.725-.163-.32-.465-.967-.907-1.934-.445-.967-.747-1.57-.907-1.813-.163-.242-.383-.623-.665-1.148l-.845-1.57c-.283-.524-.525-.987-.725-1.39-.202-.403-.344-.645-.423-.726-.08-.162-.464-.585-1.148-1.27-.686-.684-1.19-1.188-1.51-1.51-.164 0-.345-.08-.545-.243-.202-.16-.343-.242-.423-.242h-2.542c-.323.164-.706.466-1.147.908-.444.444-.665.746-.665.906v18.01c-.08.24-.163.724-.242 1.45-.08.724-.12 1.208-.12 1.45-.082.403-.163 1.49-.242 3.262-.082 1.774-.182 3.668-.302 5.68-.12 2.016-.223 3.91-.302 5.68-.082 1.774-.12 2.902-.12 3.385 0 .083-.022.264-.06.545-.043.282-.104.603-.183.966-.082.364-.143.708-.182 1.028-.042.323-.06.525-.06.604 0 .162-.022.525-.062 1.088-.042.564-.08 1.148-.12 1.752l-.122 1.752c-.04.563-.06.926-.06 1.087 0 .163-.08.345-.24.544-.163.202-.243.344-.243.423-.163.163-.464.344-.906.544-.442.203-.745.345-.905.424-.404 0-1.048.02-1.934.06-.886.043-1.853.082-2.9.122-1.046.042-2.033.102-2.96.182-.925.08-1.55.12-1.87.12-.323 0-.786.022-1.39.062-.604.042-1.25.08-1.933.12-.684.042-1.308.103-1.873.182-.562.08-.966.12-1.208.12-.162 0-.563.062-1.21.183-.643.122-1.126.224-1.45.303-.16 0-.44.06-.845.182-.4.12-.643.223-.724.302-.16 0-.362.06-.604.18-.242.122-.362.224-.362.303-.32.163-.704.504-1.148 1.028-.44.525-.665.827-.665.906-.078 0-.12.162-.12.483v1.57c0 .404.042.604.12.604 0 .162.122.404.364.725.243.323.444.564.605.725.08.163.283.423.604.786.322.36.563.584.724.664.162.162.443.362.846.604.404.243.646.363.725.363h3.143c.163 0 .707-.14 1.632-.423.925-.28 1.47-.462 1.63-.543.16 0 .442-.06.846-.182.402-.12.684-.22.846-.302.16 0 .543-.06 1.147-.18s.983-.222 1.145-.303c.08 0 .302-.04.665-.12.363-.08.786-.182 1.27-.303s.906-.242 1.27-.363c.36-.12.582-.18.663-.18.32 0 .886-.04 1.69-.12.806-.08 1.29-.2 1.45-.364h1.815c.08 0 .22.06.423.18.2.122.38.224.544.303.08.08.22.24.423.482.2.242.342.404.423.483v8.104c0 .484-.043 1.31-.122 2.478-.08 1.17-.182 2.417-.302 3.747s-.223 2.56-.302 3.686c-.08 1.13-.12 1.934-.12 2.417 0 .163-.043.465-.122.907-.082.444-.182.927-.302 1.45-.12.525-.242 1.027-.362 1.51-.12.484-.18.767-.18.847v1.33l-.243.242-.24.242v2.296c0 .162.06.483.18.967s.22.81.302.97c0 .08.06.24.18.482.122.243.222.405.303.485.08.162.302.423.665.785.362.363.583.586.665.665.08.08.28.18.604.302.32.12.562.18.725.18h.964c.16 0 .38-.06.665-.18.28-.12.5-.224.663-.303.08-.08.22-.242.423-.483.2-.242.342-.402.423-.483 0-.08.08-.242.24-.483.16-.242.243-.402.243-.484 0-.08.02-.342.06-.786.04-.442.08-.906.122-1.39.04-.483.08-.925.12-1.33.04-.402.1-.644.183-.725 0-.16.04-.643.12-1.45.08-.804.12-1.248.12-1.33 0-.078.02-.3.06-.664.04-.362.062-.665.062-.906 0-.08-.02-.2-.06-.363-.042-.16-.06-.32-.06-.484v-.483c0-.16-.043-.46-.122-.905-.08-.442-.12-.744-.12-.906v-20.427c0-.08.04-.302.12-.665.08-.362.12-.623.12-.785.08 0 .222-.12.423-.363.2-.242.343-.442.424-.604.16 0 .34-.04.543-.12.2-.08.34-.122.422-.122.16-.16.482-.28.965-.362.483-.08.765-.12.846-.12.403-.162 1.15-.282 2.236-.363 1.086-.08 1.83-.12 2.234-.12.08 0 .342-.04.785-.12.44-.08.824-.123 1.147-.123.243-.004.546.037.908.117zm-11.66-8.824v-1.57c0-.16.02-.605.062-1.33.04-.726.08-1.53.12-2.418.04-.886.08-1.77.122-2.66.04-.885.1-1.57.18-2.054 0-.16.02-.543.06-1.148.04-.604.06-1.288.06-2.055 0-.764.02-1.51.06-2.235.04-.725.063-1.288.063-1.692 0-.483.04-1.087.12-1.813.08-.725.14-1.43.183-2.115.04-.684.1-1.55.18-2.6 0-.08.062-.422.183-1.026.12-.604.18-1.067.18-1.39l.362-1.088c.08-.242.12-.523.12-.846l.968-.967h.846c.08 0 .22.142.423.423.2.283.38.464.54.544.08.162.22.483.424.967.2.483.34.807.422.967 0 .08.04.302.12.665.08.36.2.623.363.783.16.404.34 1.028.543 1.874.2.846.302 1.35.302 1.51.08.243.2.726.362 1.452.16.724.302 1.47.423 2.235.122.767.243 1.51.363 2.236.12.727.18 1.25.18 1.57.16.083.282.225.363.425.08.202.12.344.12.423v.966c0 .163.08.344.242.544.16.202.242.344.242.423v.484c0 .08.06.404.182.967.12.565.18.888.18.968 0 .162.04.464.122.906.08.444.182.907.302 1.39l.362 1.45s.18.767.18.846c0 .242.04.604.122 1.087.08.483.2.766.362.845 0 .162.04.323.12.483l.242.483c0 .083-.04.364-.12.847-.083.484-.164.846-.243 1.088-.16.08-.28.223-.36.423-.08.202-.12.383-.12.544-.243.242-.565.363-.967.363-.242.08-.625.162-1.148.242-.525.08-1.087.18-1.69.302-.605.12-1.19.222-1.753.3-.563.082-.965.122-1.207.122h-2.295c-.082 0-.163-.04-.242-.12-.082-.08-.182-.14-.302-.183-.12-.04-.223-.1-.302-.18-.082 0-.12-.04-.12-.122-.082-.08-.122-.2-.122-.362-.163-.08-.283-.22-.363-.423-.08-.2-.12-.342-.12-.423v-1.33zm80.587 48.466v3.626c0 .16.04.423.12.786.08.362.2.623.364.786 0 .08.14.2.422.362.28.16.502.242.665.242h1.208c.16 0 .383-.08.666-.242.282-.162.502-.283.665-.362 0-.08.06-.323.183-.725.12-.406.26-.688.423-.848 0-.163.08-.544.24-1.148.162-.604.243-1.07.243-1.39.08-.322.18-.785.3-1.39.12-.604.243-1.19.364-1.752.12-.563.26-1.288.422-2.175 0-.08.04-.342.12-.786.08-.44.14-.905.182-1.39.04-.482.1-.924.18-1.33.08-.4.122-.683.122-.845.16-.242.4-.886.724-1.934.32-1.045.562-1.69.725-1.933 0-.16.04-.623.12-1.39.08-.765.2-1.228.362-1.39 0-.08.06-.38.18-.906.122-.522.243-1.087.363-1.69.12-.606.242-1.168.363-1.693.12-.523.18-.865.18-1.027.08-.482.22-1.71.423-3.686.2-1.973.38-4.088.544-6.345.16-2.257.32-4.37.483-6.347.16-1.974.24-3.203.24-3.686 0-.08.04-.342.12-.786.08-.44.14-.924.182-1.45.04-.522.1-1.026.18-1.51.08-.483.12-.804.12-.967 0-.08.02-.463.06-1.148.04-.684.06-1.49.06-2.417 0-.927.02-1.854.063-2.78.04-.926.06-1.672.06-2.237 0-.56-.02-1.347-.06-2.356-.042-1.006-.06-1.994-.06-2.96s-.022-1.814-.06-2.54c-.043-.724-.062-1.166-.062-1.328 0-.322-.02-.947-.06-1.874-.042-.925-.102-1.934-.18-3.02-.083-1.088-.143-2.116-.18-3.083-.044-.967-.104-1.69-.184-2.175 0-.08-.022-.32-.06-.725-.043-.4-.103-.824-.182-1.268-.08-.442-.142-.865-.18-1.27-.043-.4-.062-.643-.062-.725-.082-.32-.163-.804-.242-1.45-.08-.644-.142-1.31-.18-1.994-.043-.684-.082-1.288-.122-1.813-.042-.523-.06-.865-.06-1.027v-8.22c0-.08-.103-.26-.303-.543-.203-.28-.303-.502-.303-.665-.08 0-.202-.16-.362-.483-.08-.16-.12-.282-.12-.363-.164-.16-.384-.404-.666-.727-.284-.32-.424-.523-.424-.604-.163 0-.404-.08-.725-.243-.322-.16-.563-.28-.724-.363-.162 0-.322-.04-.482-.12-.163 0-.283-.02-.362-.062-.08-.04-.162-.06-.24-.06-.083-.08-.224-.12-.424-.12-.202 0-.383-.04-.544-.122-.242 0-.483-.04-.725-.12-.162 0-.543.02-1.147.06-.604.043-1.068.143-1.39.303-.08 0-.162.02-.24.06-.083.042-.203.06-.364.06-.162.083-.323.122-.483.122-.083.082-.284.202-.605.363l-.484.242c-.322.242-.926.726-1.81 1.45-.888.726-1.49 1.17-1.813 1.33v.363c0 .08-.18.202-.544.363-.362.162-.543.283-.543.362-.163.08-.383.223-.665.423-.283.204-.423.346-.423.425v.363c-.163 0-.404.102-.725.302-.323.2-.564.3-.725.3l.12.122c0 .08-.04.12-.12.12 0 .083-.142.203-.423.364-.284.163-.505.283-.666.362v.363l-.484.606v.845c0 .164.08.345.242.545.16.202.24.383.24.544h1.088l4.712-2.54.362-.24.242.12v.12c.16 0 .38.02.665.06.28.044.503.104.666.183l.604.363.242.242c.08.08.2.162.362.24 0 .164.08.424.242.787.16.362.242.665.242.906 0 .164.1.526.302 1.09.2.563.302.926.302 1.087.16.162.28.625.362 1.39.08.767.12 1.27.12 1.51 0 .082.04.284.122.605.08.324.14.707.18 1.15.04.443.1.845.182 1.208.08.362.12.585.12.665.16.163.303.585.423 1.27s.183 1.108.183 1.268c.16.405.3 1.25.422 2.54.12 1.29.26 2.135.423 2.538 0 .405.02 1.09.06 2.056.04.967.1 2.036.182 3.203.08 1.17.14 2.256.18 3.262.04 1.008.06 1.712.06 2.114l.605.604v5.68c0 .08-.042.483-.12 1.21-.082.724-.142 1.57-.182 2.537-.042.967-.102 1.934-.18 2.9-.082.967-.122 1.734-.122 2.297-.08 1.048-.18 2.458-.3 4.23-.12 1.773-.243 3.525-.364 5.257-.12 1.734-.24 3.263-.362 4.593-.12 1.33-.222 2.076-.3 2.236 0 .16-.022.443-.062.845-.042.404-.102.867-.18 1.39-.082.525-.143 1.008-.182 1.45-.042.444-.102.707-.18.786 0 .164-.043.466-.122.908-.08.444-.14.906-.18 1.39-.043.483-.103.967-.182 1.45-.08.484-.12.767-.12.846 0 .242-.06.786-.182 1.632-.12.846-.24 1.773-.362 2.78-.12 1.008-.242 1.955-.362 2.84-.12.887-.18 1.45-.18 1.692-.083.242-.143.625-.182 1.148-.042.525-.082 1.07-.12 1.632-.043.564-.103 1.25-.182 2.054v3.986zm-46.878-4.835v.848c0 .242.16.604.483 1.088 0 .08.08.202.24.363.08.08.2.16.363.24l.483.243c.08.08.32.12.725.12.16 0 .32.043.483.122h1.936c.16 0 .483-.06.967-.18l1.208-.303.605-.362c.16-.08.38-.22.664-.423.28-.2.422-.342.422-.423.16-.08.303-.2.424-.363.12-.16.26-.28.423-.362 0-.16.08-.342.24-.544.16-.2.242-.342.242-.423 0-.16.1-.622.302-1.39.2-.764.302-1.227.302-1.39 0-.08.08-.38.242-.905.16-.523.24-.865.24-1.028 0-.08.102-.523.303-1.33.2-.804.3-1.408.3-1.812 0-.16.1-.765.304-1.813.2-1.045.302-1.65.302-1.812.08-.16.2-.563.362-1.21.16-.643.342-1.347.543-2.114.2-.765.403-1.47.605-2.115.2-.644.342-1.087.423-1.33 0-.08.04-.462.12-1.15.08-.682.2-1.105.364-1.267.08-.402.222-.986.424-1.752.2-.764.423-1.53.665-2.295.24-.765.483-1.49.725-2.176.242-.685.402-1.107.483-1.27.16-.16.38-.583.665-1.27.28-.683.423-1.105.423-1.27.16-.077.362-.682.604-1.81.24-1.128.482-1.974.724-2.54 0-.16.06-.56.18-1.207.122-.644.262-1.088.424-1.33 0-.16.1-.623.302-1.39.2-.765.302-1.227.302-1.39 0-.16.04-.462.12-.906.08-.442.2-.744.363-.906.16-.24.342-.764.544-1.57.2-.804.38-1.37.542-1.692.16-.08.38-.523.665-1.33.28-.804.422-1.287.422-1.45.16-.16.3-.462.422-.906.12-.44.18-.743.18-.905.16-.16.303-.544.423-1.148.12-.605.26-.987.423-1.15 0-.16.14-.623.422-1.39.28-.765.502-1.31.664-1.63.16-.32.38-.847.665-1.573.28-.725.422-1.167.422-1.33l3.142-6.284c.08-.16.28-.583.604-1.27.32-.683.664-1.428 1.026-2.235.363-.805.704-1.57 1.027-2.296.32-.724.523-1.166.605-1.33.16-.16.302-.44.423-.845.12-.403.18-.684.18-.846-.08 0-.16-.04-.24-.12-.083 0-.143-.02-.182-.06-.042-.04-.102-.06-.182-.06h-1.087c-.163.16-.526.562-1.09 1.206-.563.646-.926 1.088-1.086 1.33-.16.162-.422.483-.784.967-.364.483-.726 1.027-1.088 1.63-.363.605-.725 1.19-1.087 1.754-.362.564-.584.967-.664 1.208-.163.242-.383.686-.665 1.33-.282.646-.422 1.048-.422 1.208-.082.082-.12.242-.12.483 0 .163.04.323.12.483 0 .08-.12.12-.362.12-.082 0-.163.042-.242.12-.163.08-.202.243-.12.485.078.24.12.443.12.604l-.846.24c0 .083.04.243.12.484.08.242.04.363-.12.363 0 .08-.042.162-.12.242-.082.08-.243.12-.484.12 0 .323-.162.646-.483.967-.16.323-.442.967-.844 1.934-.404.968-.686 1.57-.846 1.814-.162.163-.383.686-.665 1.57-.284.888-.423 1.412-.423 1.572-.163.323-.404.786-.725 1.39-.323.604-.646 1.25-.966 1.934-.322.685-.603 1.31-.845 1.872-.242.565-.404.967-.483 1.21 0 .08-.202.322-.604.724-.404.404-.604.646-.604.725 0 .083.06.164.18.244.12.08.18.202.18.362-.162 0-.443.02-.845.06-.405.042-.605.022-.605-.06-.322 0-.482-.12-.482-.362-.163 0-.302-.06-.423-.182-.12-.12-.263-.26-.423-.422 0-.08-.06-.22-.182-.423-.12-.2-.262-.342-.423-.423 0-.242-.02-.705-.06-1.39-.042-.684-.102-1.39-.18-2.116-.083-.725-.143-1.43-.183-2.115-.04-.683-.06-1.147-.06-1.39 0-.16-.043-.603-.12-1.33-.083-.724-.144-1.51-.183-2.356-.04-.846-.102-1.65-.18-2.417-.082-.765-.122-1.228-.122-1.39 0-.24-.042-.683-.12-1.33-.082-.643-.143-1.33-.182-2.054-.042-.726-.102-1.43-.18-2.115-.082-.683-.122-1.147-.122-1.39-.16-.16-.422-.522-.784-1.086-.36-.562-.624-.925-.784-1.087-.163-.16-.404-.402-.725-.726-.322-.32-.563-.482-.724-.482-.162-.16-.443-.362-.846-.604-.404-.242-.685-.363-.846-.363h-3.5l-.966.485c-.646.324-1.088.605-1.33.847l-.24.242c-.163.162-.242.283-.242.362-.163.08-.302.223-.423.423-.123.2-.184.343-.184.422v.242c0 .162.2.323.604.483-.162.323-.24 1.07-.24 2.236 0 1.168.078 1.954.24 2.356 0 .16.182.503.544 1.026.363.525.543.827.543.906.32.724.563 1.33.726 1.812.16.483.34.967.543 1.45.2.483.34.888.422 1.208.08.082.2.363.363.847.08.24.12.442.12.603.08.164.163.424.244.787.08.363.14.746.18 1.148.04.404.1.785.182 1.148.08.362.16.585.24.665 0 .164.1.727.303 1.693.2.967.3 1.572.3 1.813v15.228c-.08.242-.18.888-.3 1.934-.12 1.048-.243 2.236-.363 3.565l-.362 3.99c-.12 1.33-.263 2.397-.423 3.202 0 .323-.04.988-.12 1.994-.08 1.007-.2 1.672-.362 1.993 0 .163-.04.525-.12 1.088-.08.565-.182 1.17-.302 1.814-.12.647-.262 1.23-.423 1.753-.162.525-.283.827-.362.906-.08.403-.18.966-.3 1.69s-.243 1.412-.363 2.056c-.12.645-.223 1.23-.302 1.75-.082.526-.12.828-.12.908v2.538c-.324 0-.484.08-.484.24v.968zm73.456-11.118h1.933c.08 0 .28.042.604.12.32.082.562.163.725.243.16.08.402.223.725.423.32.202.563.344.726.423.08.083.28.264.604.546.32.283.664.564 1.027.846.362.284.704.545 1.027.787.323.24.525.403.606.482.08.08.363.263.846.544.484.283.805.504.968.665.16.163.402.344.725.544.32.202.562.302.725.302.16.163.44.383.846.665.402.284.804.566 1.208.847.402.283.765.525 1.087.725.32.203.523.345.604.424.242.162.624.443 1.148.846.524.404 1.088.827 1.692 1.27.604.443 1.167.866 1.69 1.268.524.404.866.686 1.028.846.08.082.382.344.906.786.523.444 1.067.906 1.63 1.39.563.483 1.107.925 1.632 1.33.523.402.864.643 1.027.724.16.16.604.544 1.33 1.148s1.51 1.228 2.355 1.874c.846.644 1.63 1.27 2.356 1.873.725.604 1.208.986 1.45 1.148.16.16.563.544 1.208 1.148.644.604 1.37 1.248 2.174 1.934.804.683 1.55 1.308 2.235 1.873.684.562 1.106.885 1.27.967.16.16.603.523 1.328 1.087.726.563 1.21.967 1.45 1.21.08 0 .322.12.726.362.4.24.682.4.845.48.16.08.523.28 1.087.605.56.32.924.523 1.086.604l.967.482c.16.08.402.16.725.242.32.08.522.12.604.12h.604c.16 0 .342-.06.544-.18.2-.122.34-.182.422-.182.08-.162.182-.323.302-.483.12-.164.18-.285.18-.364 0-.162-.06-.344-.18-.544-.12-.202-.223-.302-.302-.302-.242-.24-.646-.624-1.208-1.147-.564-.525-1.168-1.07-1.812-1.632-.646-.562-1.25-1.106-1.812-1.63-.564-.524-.966-.906-1.208-1.147-.242-.162-.686-.564-1.33-1.208l-2.053-2.055-1.994-1.995-1.147-1.148c-.405-.323-1.01-.867-1.813-1.63-.806-.768-1.673-1.553-2.598-2.358-.928-.81-1.774-1.573-2.538-2.298-.766-.725-1.31-1.25-1.63-1.57-.08-.08-.343-.303-.785-.666-.444-.363-.927-.744-1.45-1.148-.525-.403-1.027-.806-1.51-1.21-.483-.4-.807-.643-.967-.724-.08-.08-.262-.28-.543-.604-.283-.32-.604-.644-.967-.967l-1.027-.906c-.322-.283-.523-.464-.603-.545-.082-.08-.283-.242-.604-.484-.323-.24-.665-.522-1.027-.845-.363-.32-.726-.604-1.088-.846s-.586-.363-.666-.363c-.082-.08-.383-.363-.906-.846-.525-.483-1.108-.985-1.752-1.51-.646-.523-1.25-1.007-1.812-1.45-.564-.442-.927-.745-1.087-.907 0-.08-.303-.34-.907-.785-.603-.44-1.067-.785-1.39-1.027-.08 0-.382-.18-.905-.544-.525-.362-.827-.583-.906-.665-.164-.08-.545-.34-1.15-.786-.603-.442-1.228-.907-1.872-1.39-.646-.483-1.27-.925-1.873-1.33-.604-.402-.987-.683-1.148-.845-.08 0-.405-.183-.968-.545-.564-.363-.927-.584-1.087-.665l-.846-.845c0-.08-.06-.22-.18-.423-.123-.2-.225-.342-.304-.423v-1.21c.08-.16.22-.463.423-.907.2-.442.38-.744.543-.907.08-.08.282-.32.605-.725.32-.4.665-.803 1.027-1.207.362-.402.704-.786 1.027-1.148.32-.363.522-.583.603-.665.08-.078.242-.28.483-.603l.725-.967c.243-.32.484-.644.726-.967.24-.32.362-.523.362-.604.16-.08.482-.404.965-.968.483-.563.804-.926.967-1.088.24-.32.623-.744 1.147-1.27.523-.522 1.027-1.066 1.51-1.63.483-.564.925-1.068 1.33-1.512.4-.442.603-.705.603-.786l9.424-9.427c.08-.08.28-.343.604-.787.32-.442.666-.907 1.028-1.39.363-.483.684-.925.967-1.33.28-.4.462-.683.543-.845.08-.08.26-.262.544-.545l.907-.906.905-.908.543-.545c.08-.08.302-.342.665-.786.363-.443.624-.745.786-.907.32-.32.824-.865 1.51-1.632.682-.764 1.105-1.227 1.27-1.39l.723-.725c.402-.402.846-.804 1.33-1.208.482-.402.924-.805 1.328-1.208l.726-.726c.08-.08.32-.342.725-.786.403-.44.826-.906 1.27-1.39.44-.482.886-.966 1.33-1.45.44-.482.743-.845.905-1.087.16-.16.523-.56 1.087-1.207.56-.644 1.147-1.37 1.75-2.176.604-.805 1.188-1.55 1.752-2.237.562-.684.925-1.106 1.087-1.27l.725-.724 1.33-1.33 1.328-1.33.846-.847c.08-.08.3-.363.664-.847.362-.483.583-.764.665-.846.16-.16.542-.5 1.146-1.026.604-.522.985-.864 1.148-1.026.08-.16.402-.423.966-.786.56-.36.924-.543 1.087-.543.16-.08.422-.28.785-.604.362-.32.725-.664 1.087-1.026.36-.363.702-.705 1.025-1.028l.725-.725c.08-.16.282-.44.605-.845.32-.402.562-.684.725-.846.16-.16.342-.4.543-.725.2-.32.382-.563.544-.725 0-.08.08-.22.242-.422.16-.2.24-.342.24-.423v-1.208c0-.08-.08-.22-.24-.423-.164-.2-.244-.342-.244-.423-.162-.16-.363-.4-.604-.723-.242-.32-.404-.484-.483-.484-.08-.08-.284-.24-.605-.483-.323-.243-.564-.403-.725-.484-.16 0-.403-.06-.724-.182-.323-.12-.564-.22-.725-.302h-1.327c-.082.08-.163.12-.242.12-.08 0-.16.043-.24.122-.163.08-.283.162-.362.242-.163.08-.283.24-.363.483-.082.24-.202.402-.363.48-.08.164-.2.285-.36.364l-.484.483c-.162.163-.443.423-.846.786-.404.363-.785.746-1.147 1.148-.362.405-.706.787-1.027 1.15-.322.362-.524.584-.604.664-.08.163-.323.464-.725.907-.405.444-.687.747-.847.907-.08.162-.362.525-.845 1.088-.483.564-1.008 1.17-1.57 1.813-.565.645-1.11 1.268-1.632 1.872-.525.604-.827.988-.906 1.148-.163.163-.362.384-.604.665-.242.283-.404.464-.483.544v.483c0 .082-.12.242-.362.483s-.403.362-.482.362c-.163.242-.564.786-1.208 1.632-.646.846-1.33 1.752-2.054 2.72-.725.967-1.41 1.854-2.054 2.66-.647.805-1.05 1.33-1.21 1.57-.162.242-.383.525-.664.846-.283.323-.543.646-.785.967-.322.323-.603.686-.845 1.088-.08.163-.283.405-.604.726l-1.086 1.088-1.087 1.088-.603.604c-.08.163-.323.484-.725.967-.404.484-.846 1.028-1.33 1.633s-.926 1.148-1.328 1.632c-.404.483-.646.806-.725.967-.164.08-.405.302-.727.665-.323.36-.665.765-1.028 1.207-.362.444-.685.867-.966 1.27-.284.403-.466.645-.545.724-.162.083-.343.264-.543.545-.203.284-.344.505-.424.665-.082.08-.163.202-.242.363l-.242.484c-.08.08-.302.283-.665.604-.363.323-.586.564-.666.725-.162.162-.525.544-1.087 1.148-.564.605-1.168 1.27-1.812 1.995-.646.725-1.25 1.41-1.812 2.055-.563.646-.886 1.008-.965 1.087-.08.162-.283.403-.604.724-.322.324-.664.687-1.026 1.09s-.707.766-1.027 1.087l-.603.604c-.404.485-.927 1.11-1.57 1.875-.646.767-1.29 1.47-1.933 2.115l-2.175 2.417v.483c0 .082-.405.504-1.21 1.27-.806.766-1.45 1.35-1.933 1.752-.162.08-.423.223-.785.423-.362.202-.625.344-.785.423h-.844l-.242-.24-.24-.242c0-.32-.08-1.028-.242-2.116-.163-1.087-.242-1.792-.242-2.115v-7.735c0-.16-.04-.583-.12-1.27-.08-.683-.162-1.105-.24-1.268V146.54c0-.402-.022-1.348-.062-2.84-.042-1.49-.102-3.122-.18-4.895-.083-1.77-.143-3.403-.182-4.895-.042-1.49-.06-2.436-.06-2.84v-8.22c0-.16-.062-.56-.182-1.207-.12-.644-.223-1.046-.302-1.21-.08-.16-.223-.44-.423-.845-.203-.402-.345-.684-.424-.846l-.542-.544c-.202-.2-.343-.342-.423-.423-.242-.16-.585-.32-1.027-.483-.444-.16-.746-.282-.906-.363h-2.298c-.08.08-.36.32-.845.723-.484.404-.805.767-.967 1.088-.08 0-.182.103-.303.303-.12.202-.18.383-.18.544-.08.162-.182.483-.303.967s-.22.846-.302 1.088v.846c0 .24.042.584.12 1.026.083.444.183.948.303 1.51.12.565.242 1.07.362 1.512.12.443.223.785.302 1.027 0 .08.04.362.12.846.082.483.202.807.363.967 0 .162.142.646.423 1.45.28.806.423 1.29.423 1.45 0 .082.02.344.06.786.04.444.08.967.12 1.57.04.605.1 1.21.183 1.814.08.604.12 1.108.12 1.51 0 .163.02.565.062 1.21.04.645.1 1.35.18 2.114.08.768.14 1.493.183 2.176.04.686.06 1.11.06 1.27 0 .08.02.344.06.786.04.443.08.906.122 1.39.04.483.078.948.12 1.39.04.444.06.707.06.786.08.322.14.887.182 1.69l.12 2.48c.04.845.08 1.65.122 2.416.04.767.06 1.27.06 1.51v6.044c0 .24.02.887.06 1.934.04 1.048.1 2.175.182 3.384.08 1.208.14 2.337.18 3.384.04 1.048.062 1.733.062 2.054 0 .888.02 1.632.06 2.236.04.604.062 1.21.062 1.813v2.66c0 .524-.02 1.068-.06 1.63-.043.565-.062 1.11-.062 1.632v1.148c-.08.163-.162.283-.242.362l-.242.483c-.08.082-.302.344-.664.786-.363.444-.585.706-.665.786-.08.162-.262.404-.543.725-.283.323-.423.525-.423.604-.08.08-.123.163-.123.242 0 .082-.04.163-.12.242-.08.162-.122.283-.122.362 0 .08-.04.263-.12.544-.08.284-.122.505-.122.666 0 .162.042.343.12.543.082.2.122.342.122.42.08.163.202.324.362.484.16.323.32.564.483.725 0 .08.122.262.363.543.242.283.502.564.786.846.28.282.662.664 1.145 1.147.08.08.18.223.302.423.12.203.18.385.18.545.08.162.16.444.242.846.08.406.12.688.12.848.08.163.14.544.18 1.148.04.604.08 1.23.12 1.874.04.645.08 1.268.123 1.872.04.604.06.948.06 1.027 0 .16.062.482.182.965.12.484.242 1.01.362 1.57.12.566.22 1.09.302 1.573.08.482.16.845.24 1.086 0 .082.08.223.243.423.16.2.24.343.24.422 0 .08-.02.36-.06.845-.04.484-.02.767.06.846 0 .164.04.384.122.666.08.282.2.503.362.664 0 .08.04.16.12.242l.242.242H514l.484-2.296V199.96l.846-.846h1.447z"/></svg>