<?xml version="1.0" encoding="utf-8"?>
<!-- Generator: Adobe Illustrator 16.0.0, SVG Export Plug-In . SVG Version: 6.00 Build 0)  -->
<!DOCTYPE svg PUBLIC "-//W3C//DTD SVG 1.1//EN" "http://www.w3.org/Graphics/SVG/1.1/DTD/svg11.dtd">
<svg version="1.1" id="Layer_2" xmlns="http://www.w3.org/2000/svg" xmlns:xlink="http://www.w3.org/1999/xlink" x="0px" y="0px"
	 width="300px" height="132px" viewBox="0 0 300 132" enable-background="new 0 0 300 132" xml:space="preserve">
<g>
	<path fill="#BFBFBF" d="M6.562,45.234h9.696c4.555,0,7.849,0.681,9.884,2.042c2.034,1.362,3.052,3.514,3.052,6.457
		c0,2.035-0.568,3.713-1.702,5.036c-1.135,1.323-2.791,2.18-4.966,2.571v0.235c5.212,0.892,7.818,3.631,7.818,8.217
		c0,3.068-1.037,5.463-3.111,7.184c-2.074,1.723-4.974,2.583-8.699,2.583H6.562V45.234z M10.553,59.931h6.574
		c2.817,0,4.844-0.442,6.081-1.327s1.855-2.375,1.855-4.473c0-1.925-0.689-3.314-2.066-4.167c-1.377-0.853-3.569-1.28-6.574-1.28
		h-5.869V59.931z M10.553,63.312v12.842h7.161c2.771,0,4.856-0.536,6.257-1.608c1.401-1.071,2.102-2.75,2.102-5.035
		c0-2.129-0.716-3.694-2.148-4.696c-1.432-1.001-3.612-1.502-6.539-1.502H10.553z"/>
	<path fill="#BFBFBF" d="M67.51,62.349c0,5.495-1.389,9.814-4.167,12.96c-2.778,3.146-6.641,4.719-11.586,4.719
		c-5.056,0-8.957-1.546-11.704-4.637s-4.121-7.454-4.121-13.089c0-5.588,1.377-9.919,4.132-12.995
		c2.754-3.076,6.667-4.613,11.739-4.613c4.931,0,8.781,1.565,11.551,4.696S67.51,56.84,67.51,62.349z M40.158,62.349
		c0,4.649,0.99,8.174,2.97,10.578c1.979,2.402,4.856,3.604,8.628,3.604c3.804,0,6.676-1.197,8.617-3.592
		c1.94-2.396,2.911-5.925,2.911-10.589c0-4.617-0.967-8.119-2.899-10.506c-1.934-2.387-4.794-3.58-8.582-3.58
		c-3.803,0-6.695,1.201-8.675,3.604C41.148,54.269,40.158,57.763,40.158,62.349z"/>
	<path fill="#BFBFBF" d="M104.958,62.349c0,5.495-1.389,9.814-4.167,12.96c-2.778,3.146-6.641,4.719-11.586,4.719
		c-5.056,0-8.957-1.546-11.704-4.637s-4.121-7.454-4.121-13.089c0-5.588,1.377-9.919,4.132-12.995
		c2.754-3.076,6.667-4.613,11.739-4.613c4.931,0,8.781,1.565,11.551,4.696S104.958,56.84,104.958,62.349z M77.605,62.349
		c0,4.649,0.99,8.174,2.97,10.578c1.979,2.402,4.856,3.604,8.628,3.604c3.804,0,6.676-1.197,8.617-3.592
		c1.94-2.396,2.911-5.925,2.911-10.589c0-4.617-0.967-8.119-2.899-10.506c-1.934-2.387-4.794-3.58-8.582-3.58
		c-3.803,0-6.695,1.201-8.675,3.604C78.595,54.269,77.605,57.763,77.605,62.349z"/>
	<path fill="#BFBFBF" d="M123.176,79.559h-3.991v-30.78h-10.871v-3.545h25.732v3.545h-10.87V79.559z"/>
	<path fill="#999999" d="M138.812,45.234h10.683c4.868,0,8.401,0.692,10.601,2.078s3.299,3.588,3.299,6.609
		c0,2.05-0.482,3.733-1.445,5.047c-0.961,1.315-2.242,2.105-3.838,2.372v0.235c2.176,0.485,3.744,1.393,4.707,2.723
		c0.963,1.331,1.445,3.1,1.445,5.307c0,3.13-1.133,5.572-3.393,7.324c-2.264,1.754-5.334,2.63-9.217,2.63h-12.842V45.234z
		 M146.091,58.828h4.226c1.972,0,3.4-0.305,4.285-0.916c0.885-0.611,1.326-1.62,1.326-3.029c0-1.315-0.48-2.258-1.443-2.829
		s-2.484-0.857-4.567-0.857h-3.827V58.828z M146.091,64.603v8.946h4.743c2.002,0,3.482-0.384,4.438-1.15
		c0.953-0.767,1.432-1.941,1.432-3.522c0-2.848-2.035-4.273-6.105-4.273H146.091z"/>
	<path fill="#999999" d="M171.119,79.559V45.234h7.277v28.315h13.922v6.01H171.119z"/>
	<path fill="#999999" d="M219.295,79.559l-2.488-8.17h-12.514l-2.488,8.17h-7.842l12.113-34.466h8.898l12.162,34.466H219.295z
		 M215.068,65.284c-2.301-7.403-3.596-11.59-3.885-12.561c-0.289-0.97-0.498-1.737-0.623-2.301
		c-0.516,2.004-1.994,6.958-4.438,14.862H215.068z"/>
	<path fill="#999999" d="M261.908,79.559h-9.25l-14.932-25.967h-0.213c0.299,4.586,0.447,7.857,0.447,9.814v16.153h-6.504V45.234
		h9.18l14.908,25.708h0.164c-0.234-4.461-0.352-7.615-0.352-9.462V45.234h6.551V79.559z"/>
	<path fill="#999999" d="M298.156,79.559h-8.264L280.9,65.096l-3.076,2.208v12.255h-7.277V45.234h7.277V60.94l2.865-4.038
		l9.297-11.668h8.076l-11.973,15.19L298.156,79.559z"/>
</g>
</svg>
