<svg xmlns="http://www.w3.org/2000/svg" width="300" height="132" viewBox="0 0 300 132"><path fill="#BFBFBF" d="M6.562 45.234h9.696c4.555 0 7.85.68 9.884 2.042 2.034 1.362 3.052 3.514 3.052 6.457 0 2.035-.568 3.713-1.702 5.036-1.135 1.322-2.79 2.18-4.966 2.57v.235c5.212.892 7.818 3.63 7.818 8.217 0 3.068-1.037 5.463-3.11 7.184-2.075 1.723-4.975 2.583-8.7 2.583H6.562V45.233zm3.99 14.697h6.575c2.817 0 4.844-.44 6.08-1.326s1.856-2.375 1.856-4.473c0-1.924-.69-3.313-2.066-4.166-1.377-.853-3.57-1.28-6.574-1.28h-5.87V59.93zm0 3.382v12.842h7.162c2.77 0 4.856-.536 6.257-1.608 1.402-1.07 2.103-2.75 2.103-5.035 0-2.128-.716-3.693-2.148-4.695-1.432-1-3.612-1.502-6.54-1.502h-6.832zM67.51 62.35c0 5.494-1.39 9.813-4.167 12.96-2.778 3.145-6.64 4.718-11.586 4.718-5.056 0-8.957-1.546-11.704-4.637s-4.12-7.453-4.12-13.088c0-5.588 1.376-9.92 4.13-12.995 2.755-3.076 6.668-4.613 11.74-4.613 4.93 0 8.78 1.565 11.55 4.696s4.157 7.45 4.157 12.96zm-27.352 0c0 4.648.99 8.173 2.97 10.577 1.98 2.402 4.856 3.604 8.628 3.604 3.804 0 6.676-1.196 8.617-3.59 1.94-2.397 2.91-5.926 2.91-10.59 0-4.617-.966-8.12-2.898-10.506-1.934-2.387-4.794-3.58-8.582-3.58-3.803 0-6.695 1.2-8.675 3.604-1.98 2.4-2.97 5.895-2.97 10.48zM104.958 62.35c0 5.494-1.39 9.813-4.167 12.96-2.777 3.145-6.64 4.718-11.585 4.718-5.056 0-8.957-1.546-11.704-4.637s-4.12-7.453-4.12-13.088c0-5.588 1.377-9.92 4.132-12.995 2.754-3.076 6.667-4.613 11.74-4.613 4.93 0 8.78 1.565 11.55 4.696s4.156 7.45 4.156 12.96zm-27.353 0c0 4.648.99 8.173 2.97 10.577 1.98 2.402 4.856 3.604 8.628 3.604 3.804 0 6.676-1.196 8.617-3.59 1.94-2.397 2.91-5.926 2.91-10.59 0-4.617-.966-8.12-2.898-10.506-1.934-2.387-4.794-3.58-8.582-3.58-3.803 0-6.695 1.2-8.675 3.604-1.98 2.4-2.97 5.895-2.97 10.48zM123.176 79.56h-3.99V48.78h-10.872v-3.546h25.732v3.545h-10.87v30.78z"/><path fill="#999" d="M138.812 45.234h10.683c4.868 0 8.4.692 10.6 2.078s3.3 3.588 3.3 6.61c0 2.05-.482 3.732-1.445 5.046-.96 1.315-2.242 2.105-3.838 2.372v.235c2.176.485 3.744 1.393 4.707 2.723.962 1.33 1.444 3.1 1.444 5.307 0 3.13-1.133 5.572-3.393 7.324-2.263 1.753-5.333 2.63-9.216 2.63h-12.842V45.233zm7.28 13.594h4.225c1.972 0 3.4-.305 4.285-.916.885-.61 1.326-1.62 1.326-3.03 0-1.314-.48-2.257-1.443-2.828s-2.484-.857-4.567-.857h-3.827v7.63zm0 5.775v8.946h4.742c2.002 0 3.482-.385 4.438-1.15.953-.768 1.432-1.942 1.432-3.523 0-2.848-2.035-4.273-6.105-4.273h-4.51zM171.12 79.56V45.233h7.276V73.55h13.922v6.01h-21.2zM219.295 79.56l-2.488-8.17h-12.514l-2.488 8.17h-7.842l12.113-34.467h8.898l12.162 34.466h-7.84zm-4.227-14.276c-2.3-7.403-3.596-11.59-3.885-12.56-.29-.97-.498-1.738-.623-2.302-.516 2.004-1.994 6.958-4.438 14.862h8.946zM261.908 79.56h-9.25L237.726 53.59h-.213c.3 4.586.447 7.857.447 9.814V79.56h-6.504V45.233h9.18l14.908 25.708h.164c-.234-4.46-.352-7.615-.352-9.462V45.234h6.55V79.56zM298.156 79.56h-8.264L280.9 65.095l-3.076 2.208V79.56h-7.277V45.233h7.277V60.94l2.865-4.038 9.296-11.668h8.076l-11.973 15.19 12.066 19.135z"/></svg>