<svg xmlns="http://www.w3.org/2000/svg" width="300" height="132" viewBox="0 0 590 260" enable-background="new 0 0 590 260"><path fill="#999" d="M53.568 210.957v1.33c.079.242.14.625.181 1.148.04.523.1 1.046.181 1.571.079.523.14 1.027.181 1.511.04.483.06.765.06.846.079.079.181.342.302.786.121.442.181.744.181.906.079.08.2.221.362.423.161.2.242.342.242.423.16.161.502.442 1.027.846.523.402.865.604 1.027.604 0 .079.16.121.483.121h1.208c.321 0 .562-.042.725-.121.16-.082.442-.242.846-.484.402-.242.846-.525 1.329-.846.483-.323.946-.604 1.389-.846.442-.242.744-.404.906-.483.16-.163.644-.465 1.45-.907.804-.444 1.65-.906 2.537-1.39.885-.483 1.731-.927 2.537-1.33.804-.404 1.287-.686 1.45-.846.079 0 .281-.142.604-.423.321-.283.704-.604 1.148-.967.442-.363.845-.705 1.208-1.027.362-.321.664-.563.906-.726.16-.079.422-.321.785-.725.362-.402.623-.684.785-.846.08-.16.242-.381.483-.665.242-.281.402-.502.483-.665.16-.161.423-.483.785-.967.362-.484.583-.765.665-.846.161-.242.381-.583.665-1.028.281-.441.583-.906.906-1.389.321-.484.604-.947.846-1.39.242-.442.402-.744.483-.907.08-.079.2-.26.363-.544.16-.281.242-.502.242-.665.079-.161.181-.442.302-.846.121-.403.181-.684.181-.846.08-.161.181-.484.302-.967.121-.484.181-.805.181-.967.161-.161.281-.705.362-1.632.08-.925.121-1.59.121-1.994.079-.483.2-1.329.362-2.538.161-1.208.242-1.934.242-2.175v-2.7800000000000002c0-.161-.081-.604-.242-1.33-.163-.725-.283-1.208-.362-1.451-.082-.402-.302-1.167-.665-2.296-.362-1.128-.625-1.893-.785-2.297 0-.079-.121-.402-.363-.967-.242-.563-.404-.925-.483-1.087l-.363-.363c-.081-.079-.162-.2-.242-.362-.162-.161-.483-.563-.966-1.209-.483-.644-.846-1.088-1.087-1.33l-1.45-1.45c-.082-.161-.302-.382-.665-.665-.362-.281-.665-.462-.906-.544-.081-.079-.362-.281-.846-.604-.483-.321-.806-.563-.966-.725-.242 0-.564-.1-.967-.302-.404-.2-.604-.342-.604-.423-.242-.08-.585-.2-1.027-.363l-1.51-.544c-.564-.2-1.068-.402-1.51-.604-.444-.2-.785-.342-1.027-.423-.081-.079-.283-.16-.604-.242-.323-.079-.564-.121-.725-.121-.241-.079-.746-.16-1.51-.241-.767-.08-1.269-.121-1.51-.121-.162-.08-.564-.14-1.208-.182l-2.054-.121c-.725-.04-1.41-.061-2.054-.061h-1.208c-.162 0-.423-.079-.785-.242-.363-.16-.585-.242-.665-.242-.081-.08-.242-.2-.483-.363-.242-.16-.404-.281-.483-.362v-2.418c0-.079.1-.321.302-.725.2-.402.423-.825.665-1.269.242-.442.462-.865.665-1.269.2-.402.342-.644.423-.725.079-.242.241-.644.483-1.208.241-.563.483-1.148.725-1.752.241-.604.483-1.188.725-1.753.242-.562.402-.966.483-1.208 0-.161.14-.644.423-1.45.281-.805.423-1.369.423-1.692.079-.161.2-.523.362-1.088.161-.563.242-1.007.242-1.33 0-.242.079-.765.242-1.571.079-.321.16-.684.242-1.087 0-.08.019-.282.06-.604.04-.321.061-.604.061-.846-.081 0-.121-.04-.121-.121v-.845c0-.161-.061-.502-.181-1.027-.121-.523-.223-.865-.302-1.027-.162-.321-.423-.946-.785-1.874-.363-.925-.585-1.469-.664-1.631-.081-.161-.302-.563-.665-1.209-.362-.644-.625-1.046-.785-1.208-.162 0-.283-.04-.363-.121l-.241-.242c-.162-.079-.423-.221-.785-.423-.363-.2-.585-.342-.665-.423-.404-.161-1.108-.423-2.114-.786-1.008-.362-1.592-.623-1.752-.785-.163-.08-.665-.2-1.51-.363-.846-.161-1.389-.281-1.631-.362-.162-.08-.544-.182-1.148-.302-.604-.121-1.068-.182-1.389-.182-.163 0-.465-.019-.906-.06l-1.389-.121c-.483-.04-.927-.08-1.329-.121-.404-.04-.646-.061-.725-.061h-4.349c-.163.081-.525.223-1.087.423-.564.202-1.148.423-1.752.665s-1.189.464-1.752.665c-.564.202-.927.302-1.087.302-.162.081-.725.202-1.691.363-.967.162-1.531.323-1.692.483-.404.082-1.168.263-2.295.544-1.129.283-1.894.465-2.296.544-.162.082-.544.202-1.148.363-.604.163-.987.283-1.148.362-.242.163-.785.404-1.631.725-.846.323-1.35.484-1.51.484-.081.081-.483.223-1.208.423-.725.202-1.168.344-1.329.423-.162 0-.321.041-.483.121l-.241.121c-.079 0-.121.042-.121.121-.16.081-.423.202-.785.363-.363.162-.623.323-.785.483-.079 0-.302.121-.665.363-.362.242-.785.504-1.269.786l-1.45.846c-.483.283-.885.504-1.208.665-.241.242-.684.565-1.329.967-.644.404-.967.646-.967.726-.16.081-.423.263-.785.544-.363.283-.583.464-.665.544-.16.081-.26.162-.302.242-.04.081-.1.162-.181.242-.079.162-.121.283-.121.362v2.2960000000000003c0 .163.121.444.362.846.242.404.444.686.604.846.162.082.362.202.604.363.242.163.404.283.483.363.081 0 .302.061.665.181l.906.302h1.329c.162-.079.423-.181.785-.302.362-.121.585-.181.665-.181.323-.161.846-.502 1.571-1.027.725-.523 1.471-1.088 2.235-1.692.766-.604 1.51-1.167 2.235-1.692.725-.523 1.208-.906 1.45-1.148.16-.08.502-.261 1.027-.544.523-.281.865-.463 1.027-.544.16-.161.664-.442 1.51-.846.846-.402 1.469-.684 1.873-.846.402-.16.967-.362 1.691-.604s1.167-.402 1.329-.484c.321-.16.865-.341 1.631-.543.764-.201 1.227-.302 1.389-.302h1.45c.161 0 .402.081.725.242.16.081.281.121.362.121.242.242.362.483.362.726 0 .967.04 2.619.121 4.956.079 2.337.14 4.815.181 7.433.04 2.62.1 5.097.181 7.433.079 2.338.121 3.949.121 4.835 0 .241.019.785.06 1.631.04.846.1 1.752.181 2.72.079.967.14 1.873.181 2.719.04.846.06 1.39.06 1.632 0 .483.019 1.571.061 3.263.04 1.692.079 3.546.121 5.56.04 2.015.079 3.989.121 5.922.04 1.934.1 3.344.181 4.23v4.834c0 .163-.021.565-.061 1.209-.041.646-.102 1.35-.181 2.115-.081.766-.142 1.471-.181 2.115-.042.646-.061 1.048-.061 1.208v7.494c0 .163.04.444.121.846.079.404.2.686.363.846.16.081.342.202.544.362.2.163.381.284.544.363h.966c.079-.161.2-.281.362-.363l.725-.362c0-.161.06-.321.181-.484.121-.16.181-.281.181-.362 0-.08.019-.321.061-.725l.121-1.269.121-1.269c.04-.402.061-.645.061-.726.079-.16.2-.462.363-.906.16-.442.321-.925.483-1.45.16-.523.321-1.007.483-1.451.161-.442.242-.744.242-.906.079-.242.181-.604.302-1.088s.181-.804.181-.967v-7.01c0-.242-.061-.786-.181-1.631-.121-.846-.223-1.349-.302-1.511v-16.317c0-.08.04-.281.121-.604.079-.321.2-.483.363-.483 0-.079.16-.121.483-.121.321 0 .483.042.483.121.241.163.664.465 1.269.907.604.444 1.066.746 1.389.906.079.163.241.263.483.302.242.042.402.061.483.061.16.082.321.121.483.121h1.45c.16 0 .281-.039.362-.121.242 0 .765-.1 1.571-.302.804-.2 1.287-.342 1.45-.423.16 0 .502-.04 1.027-.121.523-.079.865-.16 1.027-.242.16 0 .644-.121 1.45-.363.804-.242 1.288-.362 1.45-.362.321-.079.725-.161 1.208-.242.483-.08.765-.121.846-.121.079 0 .583-.019 1.51-.06.925-.04 1.59-.061 1.994-.061.483 0 1.167.021 2.054.061.885.042 1.369.06 1.45.06.079 0 .381.042.906.121.523.081.906.163 1.148.242.242.081.744.223 1.51.423.764.202 1.227.302 1.389.302.402.082.967.283 1.691.604.725.323 1.167.483 1.329.483.16.163.583.504 1.269 1.027.683.525 1.106.867 1.269 1.027.16.081.402.444.725 1.088.321.646.523 1.088.604 1.329.161.163.363.525.604 1.088.242.565.402.967.483 1.209 0 .162.08.483.242.967.079.242.121.443.121.604v13.416c-.081.242-.223.725-.422 1.451-.202.725-.383 1.208-.544 1.45 0 .081.04.202.121.363.08.162.04.283-.121.362l-.483.483c.08.163.121.283.121.362 0 .242-.042.404-.121.484l-.121.121c-.163.163-.283.242-.362.242 0 .081-.223.384-.665.907-.444.525-.665.827-.665.906-.163.162-.363.384-.604.665-.241.283-.404.504-.483.665l-.785.786c-.363.363-.585.625-.665.786-.162.162-.646.544-1.45 1.148-.806.604-1.329.988-1.571 1.148-.162.162-.543.423-1.148.786-.604.362-1.027.625-1.269.786-.323.242-.948.604-1.873 1.087-.927.484-1.47.807-1.631.967-.162.081-.344.162-.543.242-.202.081-.383.121-.544.121h-1.813c-.323 0-.564-.04-.725-.121-.162-.08-.283-.161-.362-.242-.081-.079-.242-.321-.483-.725-.241-.402-.404-.684-.483-.846-.081-.08-.242-.402-.483-.967-.242-.563-.404-.926-.483-1.088-.162-.079-.363-.2-.604-.362-.241-.161-.404-.242-.483-.242h-.242c-.081 0-.142-.019-.181-.06-.042-.04-.102-.061-.181-.061-.081 0-.121.021-.121.061 0 .042-.042.06-.121.06h-.122c-.162 0-.362.081-.604.242-.242.162-.404.283-.483.362 0 .081.019.242.061.483.04.242.019.362-.061.362 0-.079-.121 0-.362.242-.081.081-.162.121-.242.121v1.084zm-13.35-45.143c-.042-.684-.081-1.409-.121-2.175-.042-.765-.102-1.49-.181-2.176-.081-.684-.163-1.148-.242-1.39v-3.142c0-.161.1-.623.302-1.39.2-.765.302-1.227.302-1.39 0-.242.04-.786.121-1.632.079-.846.14-1.752.181-2.719.04-.967.079-1.893.121-2.78.04-.885.061-1.45.061-1.692s.079-.865.241-1.874c.161-1.006.242-1.671.242-1.994 0-.079.06-.321.181-.725.121-.402.221-.684.302-.846.16-.161.302-.382.423-.665.121-.282.181-.502.181-.665.16-.242.423-.665.785-1.27.362-.604.583-.906.664-.906l.967-.483c.483-.242.885-.362 1.208-.362h2.296c.402 0 1.027.041 1.873.121.846.082 1.389.163 1.631.242l.967.483c.079.081.16.121.242.121l.242.241c.079.163.281.484.604.967.16.242.281.444.362.604v9.911c-.081.162-.162.363-.242.604-.162.484-.283.767-.362.846-.081.323-.283.948-.604 1.874-.323.927-.525 1.511-.604 1.752-.163.081-.363.384-.604.907-.242.525-.404.906-.483 1.148-.163.323-.423.827-.785 1.511-.363.686-.625 1.069-.785 1.148-.162.323-.423.785-.785 1.39-.362.604-.585.988-.664 1.148-.081 0-.262.162-.544.483-.283.323-.604.686-.967 1.088-.362.404-.685.806-.966 1.208-.283.404-.423.646-.423.725-.163.163-.423.625-.785 1.39-.363.767-.625 1.229-.785 1.391-.081.081-.302.262-.664.543-.363.284-.625.465-.785.544-.081.081-.162.121-.242.121h-.604c-.081 0-.162-.04-.241-.121-.081 0-.242-.1-.483-.302-.242-.2-.404-.342-.483-.423-.005-.241-.026-.703-.065-1.389zM92.592 207.572c.483.646.765 1.009.846 1.088 0 .162.181.404.544.725.362.323.623.565.785.725.321.163.744.423 1.269.786.523.363.906.585 1.148.665l1.752.785 1.329.604c.442.202.786.381 1.027.544.161 0 .423.061.786.181.362.121.623.14.785.061.242.08.623.161 1.148.242.522.079 1.087.181 1.691.302.604.121 1.167.242 1.691.363.523.121.906.181 1.148.181.079 0 .583.04 1.51.121.925.08 1.51.161 1.751.242.242 0 .846.019 1.812.06.966.04 1.65.061 2.054.061.161-.082.402-.082.725 0 .321.079.562.079.725 0 .242 0 .725-.021 1.45-.061.725-.042 1.127-.06 1.208-.06.562-.082 1.308-.163 2.235-.242.925-.081 1.429-.121 1.51-.121.08 0 .382-.042.907-.121.522-.081 1.087-.162 1.691-.241l1.812-.242c.604-.081 1.066-.163 1.39-.242.562 0 1.269-.06 2.114-.181s1.348-.223 1.51-.302c.242 0 .523-.042.846-.121.321-.082.725-.2 1.208-.363.242-.079.665-.181 1.269-.302s.946-.181 1.027-.181c.08-.161.463-.321 1.148-.483.684-.161 1.147-.321 1.39-.483.241-.08.644-.242 1.208-.484.562-.241 1.148-.483 1.752-.725s1.167-.483 1.691-.725c.523-.242.864-.442 1.027-.604.16-.08.483-.221.966-.423.483-.2.804-.381.967-.544.161-.079.402-.242.725-.483.32-.242.522-.402.604-.483.161-.161.502-.363 1.027-.604.523-.242.785-.442.785-.605.079-.079.302-.281.665-.604l1.148-1.027 1.208-1.088c.402-.363.684-.623.846-.786.242-.16.483-.381.725-.665.242-.281.442-.462.604-.544.079-.08.26-.302.543-.665.281-.362.423-.584.423-.665.402-.562.906-1.348 1.51-2.357.604-1.006.946-1.55 1.027-1.631.079-.161.26-.644.543-1.45.281-.805.502-1.37.665-1.692.08-.161.181-.523.302-1.088.121-.562.221-.925.302-1.087v-.121l-.121-.121c-.163 0-.363-.039-.604-.121-.242-.079-.444-.161-.604-.242.08 0 .161-.04.242-.121l.483-.242c.161 0 .321-.039.483-.121.161 0 .281-.019.362-.061.08-.04.161-.06.242-.06 0-.321.181-.826.543-1.511.362-.684.623-1.148.786-1.39 0-.079.16-.442.483-1.088.32-.644.483-1.046.483-1.209.08-.16.182-.483.302-.966.121-.484.26-.765.423-.846-.163-.161-.163-.483 0-.967-.081-.321-.102-.826-.061-1.511.04-.684.061-1.148.061-1.39.16 0 .2-.14.121-.423-.081-.281-.042-.502.121-.665-.082-.079-.142-.181-.182-.302-.041-.121-.102-.261-.181-.423-.081-.161-.121-.321-.121-.483-.242 0-.483-.04-.725-.121-.483-.161-.725-.281-.725-.362l-.121-.121c-.162 0-.241-.08-.241-.242 0-.161-.121-.321-.363-.483.161 0 .321-.04.483-.121l.483-.241c.161-.08.381-.14.665-.182.281-.04.502-.1.665-.181v-1.8119999999999998l-.241-.483c-.082-.161-.163-.282-.242-.363-.082-.079-.121-.16-.121-.242 0-.079.08-.281.242-.604.161-.321.242-.523.242-.604l-.362-.363-.121-.241c-.163-.08-.464-.121-.906-.121h-1.027l-.725.241c-.081-.16-.344-.462-.786-.906-.443-.442-.585-.744-.423-.906-.162-.08-.202-.261-.121-.544.079-.281.2-.463.362-.544l.242-.242c.08-.079.161-.121.242-.121.079 0 .16-.039.242-.121h.966c.161 0 .442.061.846.182.402.12.644.222.725.302l.362-.363c.08 0 .019-.26-.181-.786l-.544-1.39c-.162-.161-.422-.705-.785-1.632-.363-.925-.665-1.55-.907-1.873 0-.08-.121-.242-.362-.484l-.121-.241c-.082-.08-.202-.161-.363-.242-.322-.161-.483-.282-.483-.363h-.121v-.363c0-.079.04-.16.121-.242l-.483-.967c-.163-.079-.283-.221-.362-.423-.082-.2-.202-.381-.363-.544-.162-.242-.362-.483-.604-.725-.162-.161-.344-.321-.543-.483-.202-.161-.344-.321-.423-.484l-1.812-1.813c-.081-.16-.483-.544-1.208-1.148-.725-.604-1.289-1.027-1.691-1.269l-.362-.362c-.162-.08-.362-.242-.604-.484-.163-.079-.483-.261-.966-.544-.483-.281-.987-.604-1.51-.967-.525-.362-1.048-.704-1.571-1.027-.525-.321-.906-.563-1.148-.725-.564-.242-1.35-.665-2.356-1.269-1.008-.604-1.552-.986-1.631-1.148-.081-.08-.504-.282-1.269-.604-.767-.321-1.269-.562-1.51-.725-.323-.161-1.048-.502-2.175-1.027-1.129-.523-1.854-.907-2.175-1.148-.242-.08-.564-.181-.966-.302-.404-.121-.686-.26-.846-.423-.163 0-.465-.079-.906-.242l-1.51-.544c-.564-.2-1.068-.381-1.51-.544-.443-.161-.746-.281-.906-.363-.241-.079-.846-.302-1.812-.665s-1.491-.583-1.571-.665c-.242-.161-.746-.302-1.51-.423-.766-.121-1.229-.14-1.389-.06-.242.081-.444.121-.604.121h-.725c-.162.082-.344.142-.544.182-.202.041-.383.102-.543.181l-.725.242c-.162 0-.646.162-1.45.483-.806.323-1.329.565-1.571.725-.162.081-.302.182-.423.302-.121.121-.262.223-.423.302l-.846.423c-.404.202-.646.383-.725.544-.163.081-.362.202-.604.362-.242.163-.525.323-.846.483-.323.242-.686.444-1.087.604-.163 0-.483.061-.967.182-.483.121-.846.223-1.087.302-.162.081-.383.142-.665.182-.283.042-.543.102-.785.181-.323.081-.646.121-.966.121-.082 0-.464.042-1.148.121-.686.082-1.108.163-1.269.242h-.121c-.081 0-.162.021-.242.061-.081.042-.162.061-.242.061h-.483c-.242.242-.525.444-.846.604-.163.162-.464.423-.906.785-.444.363-.887.767-1.329 1.209l-1.269 1.269c-.404.404-.685.725-.846.967-.162.162-.443.543-.846 1.148l-1.329 1.994c-.483.725-.948 1.431-1.39 2.115-.444.686-.746 1.19-.906 1.511 0 .162-.162.585-.483 1.269-.323.686-.564 1.108-.725 1.27 0 .162-.163.525-.483 1.087-.323.565-.686 1.19-1.087 1.874-.404.686-.785 1.329-1.148 1.934-.362.604-.585.948-.665 1.027-.081.081-.181.283-.302.604-.121.323-.181.564-.181.725-.082.082-.121.223-.121.423 0 .203-.042.384-.121.544-.082.242-.121.484-.121.725.161 0 .342.042.544.121.2.082.302.202.302.363.161-.08.402-.1.725-.061.321.042.562.021.725-.06.241 0 .583-.019 1.027-.06.442-.04.704-.061.785-.061.161 0 .321-.039.483-.121.16 0 .281-.019.362-.061.08-.04.161-.061.242-.061.161-.079.363-.14.604-.181.242-.04.442-.1.604-.181 0-.08.281-.2.846-.363.562-.16.966-.281 1.208-.362l.604-.484c.321 0 .483-.16.483-.483 0-.08.061-.282.181-.604.121-.321.181-.563.181-.725l.483-.242c.079-.161.321-.282.725-.363.402-.079.683-.2.846-.363-.163.163-.242.303-.242.423s-.082.181-.242.181l.242.242v.121l.121.242c.242.163.583.344 1.027.544.442.202.704.262.786.181.079-.079.2-.121.362-.121.321 0 .562-.04.725-.121.08 0 .161-.019.242-.061.08-.04.2-.06.363-.06.16 0 .281-.04.362-.121.161 0 .281-.04.362-.121.08-.079.2-.161.363-.242 0-.16.1-.583.302-1.269.2-.684.342-1.107.423-1.269v-1.3900000000000001c0-.281-.042-.502-.121-.665.079-.079.079-.381 0-.906-.082-.523-.202-.825-.363-.907 0-.079.04-.221.121-.423.079-.2.04-.381-.121-.544 0-.08.08-.281.242-.604.161-.321.242-.523.242-.604.161-.242.321-.523.483-.846.242-.483.523-.886.846-1.209.079-.16.26-.402.543-.725.281-.321.423-.523.423-.604.16-.161.543-.523 1.147-1.088.604-.562.985-.967 1.148-1.208.161-.161.544-.423 1.147-.786.604-.362.986-.623 1.148-.786.08-.08.402-.302.967-.665.562-.363.925-.623 1.087-.786.402-.161.925-.442 1.57-.846.644-.402 1.046-.604 1.208-.604.161-.079.523-.242 1.087-.483.563-.242 1.148-.484 1.752-.726s1.167-.442 1.691-.604c.523-.161.906-.282 1.148-.363l1.45-.363c.161-.079.321-.121.483-.121.161 0 .362-.04.604-.121.242 0 .523-.04.846-.121h.483c.161 0 .281-.019.362-.061.08-.04.161-.061.242-.061l.483.121c.161.081.442.202.846.362.402.163.644.242.725.242.402 0 1.127.223 2.174.665 1.046.444 1.812.746 2.295.906l1.45.725.121.242c.161.081.644.343 1.45.785.804.444 1.329.665 1.57.665.08.081.281.223.604.423.321.202.665.423 1.027.665.362.241.704.464 1.027.665.321.202.483.344.483.423.16.082.683.384 1.57.907.885.525 1.45.827 1.691.906 0 .081.302.323.906.726.604.404 1.027.725 1.269.966.161.163.583.484 1.269.967.684.483 1.148.807 1.39.967.161-.079.604-.14 1.329-.181.725-.04 1.208-.061 1.45-.061h.604c0 .082-.142.181-.423.302-.283.121-.464.223-.543.303-.163 0-.525.081-1.088.241-.564.163-.966.242-1.208.242.321.163.483.202.483.121.16.404.362.646.604.725.161.163.281.242.363.242.241 0 .804.102 1.691.302.885.202 1.449.302 1.691.302h.362v.121c0 .081-.042.121-.121.121l-.483.242c-.081.082-.202.121-.362.121h-.121l-.966.121c-.081.082-.163.121-.242.121h-.241l-.242.121c.079.163.261.504.544 1.027.281.525.583 1.069.906 1.632.321.565.604 1.088.846 1.571.242.483.442.846.604 1.088.079.242.22.585.422 1.027.2.444.402.907.604 1.39.2.483.402.906.604 1.269.2.363.302.585.302.665.161.081.281.383.363.906.079.525.2.867.362 1.027.079.242.181.725.302 1.45s.221 1.209.302 1.451c-.081.163-.102.544-.061 1.148.04.604.1.948.182 1.027v.121l.241.121c.08.163.2.284.363.363.16.081.281.163.362.242.079.081.161.121.242.121 0 .081.04.162.121.241 0 .163.08.242.242.242l.121.362c.079.082-.061.263-.423.544-.363.283-.625.504-.786.665v.121h.242c0 .081.261.181.785.302.523.121.786.223.786.302.079 0 .16.042.242.121.079.082.121.163.121.242 0 .081.04.163.121.242l.121.121.121.242c.08.082-.021.202-.302.363-.283.162-.464.323-.544.483-.081 0-.383.021-.906.061-.525.042-.786.142-.786.302-.081.081-.162.121-.242.121-.081.081-.081.162 0 .242-.162.081-.323.283-.483.604 0 .082-.042.344-.121.786-.081.444-.042.746.121.907 0 .162-.121.625-.363 1.39-.241.767-.362 1.229-.362 1.39l.242.242-.483.242c-.081.081-.162.121-.242.121-.081.082-.142.283-.181.604-.042.323-.142.565-.302.725.16.163.14.646-.061 1.451-.202.806-.383 1.329-.543 1.571h.121v.121c.079 0 .161.021.242.061.079.042.2.061.362.061h.362v.604c-.081-.079-.202-.121-.362-.121-.404 0-.646.042-.725.121-.082 0-.082.121 0 .363.079.242.04.362-.121.362 0 .082-.142.181-.423.302-.283.121-.423.223-.423.302-.081.163-.242.544-.483 1.148-.241.604-.404.987-.483 1.148-.162.163-.422.483-.785.967-.362.483-.544.807-.544.967-.081.082-.241.303-.483.665-.242.363-.525.767-.846 1.208-.323.444-.604.846-.846 1.209-.242.362-.363.585-.363.665 0 .081-.021.182-.06.302-.042.121-.061.223-.061.303-.163.162-.604.483-1.329.967-.726.483-1.169.846-1.329 1.087-.163.163-.464.404-.906.725-.444.323-.746.484-.906.484-.242.323-.706.686-1.39 1.087-.685.404-1.068.646-1.147.726-.081.162-.362.362-.846.604l-.967.483c-.404.163-.987.384-1.752.665-.766.283-1.189.464-1.269.544-.564.162-1.087.323-1.57.483-.404.163-.846.283-1.329.362-.483.082-.887.163-1.208.242-.564.162-1.45.362-2.658.604s-1.894.404-2.054.483c-.082 0-.483.061-1.208.182l-1.812.302c-.081 0-.404.021-.967.061-.564.042-.927.102-1.087.182h-1.812c-.242 0-.604.021-1.087.06-.483.042-.987.061-1.51.061h-2.597c-.163-.08-.464-.121-.906-.121-.443 0-.746-.04-.906-.121-.483 0-1.168-.08-2.054-.242-.887-.161-1.793-.302-2.718-.423-.927-.121-1.752-.242-2.477-.362-.725-.121-1.168-.182-1.329-.182-.082-.079-.564-.302-1.45-.665-.887-.362-1.45-.665-1.691-.906-.162-.08-.362-.221-.604-.423-.242-.2-.483-.342-.725-.423-.162-.079-.404-.282-.725-.604-.163-.161-.283-.321-.363-.484 0-.079-.283-.442-.846-1.088-.564-.644-.966-1.167-1.208-1.571-.242-.321-.504-.804-.785-1.45-.283-.644-.423-1.006-.423-1.088-.163-.16-.344-.562-.544-1.208-.202-.644-.343-1.047-.423-1.209-.081-.079-.202-.281-.362-.604-.162-.321-.323-.665-.483-1.028-.162-.362-.302-.704-.423-1.027-.121-.321-.181-.562-.181-.725 0-.079-.081-.302-.242-.665-.162-.362-.242-.623-.242-.786-.162-.402-.283-.925-.362-1.571-.081-.644-.121-1.046-.121-1.208 0-.161-.021-.484-.061-.967-.042-.483-.082-1.027-.121-1.632l-.121-1.752c-.042-.563-.061-.967-.061-1.209v-1.45c0-.805-.042-1.409-.121-1.813-.163-.079-.202-.402-.121-.967.08-.563.161-.886.242-.967l-.121-.121v-.121c-.163 0-.504.042-1.027.121-.525.082-.906.082-1.148 0-.081 0-.283-.04-.604-.121-.323-.08-.564-.161-.725-.242h-.121c.079-.161.221-.321.423-.484.2-.16.341-.281.423-.362.079-.161.483-.342 1.208-.544.725-.2 1.167-.342 1.329-.423l.362-.363c.08-.16.121-.442.121-.846v-.846c-.081 0-.322.021-.725.061-.404.042-.686.06-.846.06-.081 0-.262-.1-.544-.302-.283-.2-.464-.342-.543-.423-.163.081-.585.121-1.269.121h-1.39l-.483.121c-.163 0-.323.082-.483.242-.163.081-.444.181-.846.302-.404.121-.604.223-.604.302-.242.242-.363.483-.363.725.163.081.442.121.846.121h.483c.161 0 .242.081.242.241 0 .082-.042.163-.121.242l-1.208.362c-.079.483-.121.888-.121 1.208 0 .323-.019.646-.061.967-.04.323.021.564.181.725l-.242.121c.082 0 .202-.019.363-.06.16-.04.321-.061.483-.061h1.087l.242.121v.242c-.081 0-.162.041-.242.121l-.242.242h-.231l-.121.121h-1.329c.163.082.202.223.121.423-.079.202-.121.344-.121.423-.079.564-.121 1.35-.121 2.356 0 1.009.042 1.553.121 1.632-.079 0-.04.102.121.302.162.202.281.344.362.423l-.242.242-.242.242c0 .082.042.383.121.906.081.525.042.907-.121 1.148.163.162.242.423.242.786 0 .362.082.625.242.786v3.263c.079.163.242.585.483 1.269.242.686.502 1.411.785 2.176.281.767.544 1.471.785 2.115.242.646.363 1.048.363 1.209.16.162.321.504.483 1.027.161.525.281.867.363 1.027.079.404.242.767.483 1.088l.483.967c.161.323.321.564.483.725l1.088 1.449zm67.175-18.975l1.208-.362-.483.483-.725-.121zm1.027-17.827c-.121.042-.181.021-.181-.061-.241-.079-.223-.161.061-.242.281-.079.381-.04.302.121 0 .081-.061.142-.182.182zm2.96-2.176c.079.121.16.182.242.182.242-.08.342-.161.302-.242-.042-.08-.181-.08-.423 0-.163-.08-.202-.061-.121.06zm-64.879 7.312l.242.242h.966c0 .162.14.444.423.846.281.404.423.646.423.725.079.162.342.423.785.785.442.363.665.586.665.665.242.242.562.363.967.363h.121c.08 0 .2-.04.362-.121.08 0 .161-.019.242-.06.08-.04.161-.061.242-.061l.363-.242c.079-.321-.042-.804-.363-1.45-.323-.644-.483-1.088-.483-1.329v-.121l-.121-.121c-.162.082-.404.021-.725-.181-.323-.2-.483-.342-.483-.423-.082-.08-.021-.342.181-.786.2-.442.26-.665.181-.665v-.242h-.121c-.163 0-.544.042-1.148.121-.604.081-.987.121-1.148.121l-.362.121h-.121c-.242.163-.585.344-1.027.544-.444.202-.665.344-.665.423l.242.242c.079.082.121.142.121.182 0 .042.04.102.121.181-.001.081.039.162.12.241zm-4.108-2.296l-.121.121c-.163 0-.283.042-.363.121-.081.081-.202.121-.362.121l.121.121.121.242.121.121.846-.846h-.363zm2.114-.484c.523.082.906.082 1.148 0 .079.082.26.121.543.121.281 0 .502-.04.665-.121.161-.16.583-.423 1.269-.785.684-.363 1.106-.624 1.269-.786.161 0 .281-.04.362-.121l.242-.242c.161-.562.442-1.309.846-2.236.402-.925.604-1.43.604-1.511l-.362-.604c-.081.081-.162.12-.242.12-.081 0-.162.021-.242.061-.081.041-.162.06-.241.06.079.081-.061.223-.423.423-.363.202-.625.344-.786.423 0 .242-.162.363-.483.363-.082.162-.202.283-.363.362-.323.163-.525.242-.604.242-.162.081-.362.163-.604.242l-.483.242c-.162.081-.283.12-.362.12l-.483.726-.242.483c-.081.081-.121.162-.121.242-.081 0-.142.021-.181.061-.042.042-.102.061-.181.061l-.121.121.242.121v.121c.079.163.321.242.725.242-.163.082-.483.223-.967.423-.483.202-.806.383-.966.544-.081 0-.142.042-.181.121-.042.081-.142.121-.302.121.159.08.5.161 1.025.24zm57.932-14.141c.08.163 0 .283-.241.362-.404.163-.646.142-.725-.06-.082-.201.08-.382.483-.544.242.001.402.082.483.242zm-68.503 14.987c.163.163.283.242.363.242l.121.121.725.121h1.087c.16 0 .402-.101.725-.302.321-.201.604-.382.846-.544-.081-.08-.102-.14-.06-.182.04-.04.019-.139-.061-.302l-3.746.846zm4.107-1.027c.08.121.281.102.604-.061.242-.079.321-.181.242-.302-.081-.121-.283-.1-.604.061-.242.081-.323.181-.242.302zm10.149-2.538c.079.121.04.223-.121.302-.404.162-.664.181-.785.061-.121-.121.019-.261.423-.423.242-.08.402-.061.483.06zm-9.061-.302c0 .081.321.081.967 0 .644-.08 1.127-.161 1.45-.242 0-.079.281-.261.846-.544.562-.281.885-.462.966-.543.161 0 .363-.04.604-.121.321-.16.562-.242.725-.242.242-.08.523-.14.846-.181.321-.04.562-.1.725-.182l.966.242c.161-.08.302-.2.423-.363.121-.161.14-.242.061-.242v-.242c-.242 0-.646.042-1.208.121-.564.081-.967.121-1.208.121-.163 0-.363.042-.604.121-.483.163-.806.284-.966.363-.163 0-.263.021-.302.061-.042.042-.142.061-.302.061h-.363c-.162.162-.504.383-1.027.665-.525.283-.827.423-.906.423-.162 0-.443.06-.846.181-.404.121-.725.223-.966.302l.119.241zm-2.779-.242c-.081 0-.163.042-.242.121-.081 0-.162.042-.242.121l-.121.241 2.537-.604c0-.079-.102-.121-.302-.121-.202 0-.343-.04-.423-.121-.081.082-.162.121-.242.121-.081 0-.162.021-.241.061-.082.042-.163.061-.242.061-.08.08-.24.12-.482.12zm15.465-5.922c-.081 0-.202.081-.363.242l-.121.121v.121c.079.082.121.163.121.242l.363-.726zm-4.229-3.505c-.082 0-.163.042-.242.121l-.121.241h-.362c-.081.082-.242.121-.483.121l1.208-.483zm-2.778-.242c.079-.16.321-.281.725-.362.402-.08.684-.201.846-.363l.242-.121h.242c-.162.082-.362.283-.604.604-.242.323-.404.525-.483.604h-.121c-.081.081-.202.121-.362.121h-.121c0-.08-.081-.1-.242-.061-.162.042-.323.021-.483-.06l.361-.362zm1.449-1.934c.079.163 0 .344-.242.544-.242.202-.443.344-.604.423-.081.081-.163.121-.242.121h-.362v-.242c0-.079.06-.16.181-.242.121-.079.1-.16-.061-.242l.604-.302c.242-.121.442-.182.604-.182l.122.122zm-.423-.363c.121.163.061.283-.181.362-.404.082-.646.061-.725-.06-.081-.121.04-.261.363-.423.241-.079.422-.039.543.121zM171.848 207.572c.483.646.765 1.009.846 1.088 0 .162.181.404.543.725.362.323.623.565.786.725.32.163.744.423 1.268.786.523.363.906.585 1.148.665l1.752.785 1.329.604c.442.202.786.381 1.027.544.161 0 .423.061.785.181.362.121.623.14.786.061.241.08.623.161 1.147.242.523.079 1.087.181 1.691.302.604.121 1.167.242 1.691.363.523.121.906.181 1.148.181.079 0 .583.04 1.51.121.925.08 1.51.161 1.752.242.242 0 .846.019 1.812.06.967.04 1.65.061 2.054.061.161-.082.402-.082.726 0 .321.079.562.079.725 0 .242 0 .725-.021 1.45-.061.725-.042 1.127-.06 1.208-.06.562-.082 1.308-.163 2.235-.242.925-.081 1.429-.121 1.51-.121.08 0 .381-.042.906-.121.522-.081 1.087-.162 1.691-.241l1.812-.242c.604-.081 1.066-.163 1.389-.242.562 0 1.269-.06 2.114-.181s1.348-.223 1.51-.302c.242 0 .523-.042.846-.121.321-.082.725-.2 1.208-.363.242-.079.665-.181 1.269-.302.604-.121.946-.181 1.027-.181.079-.161.462-.321 1.148-.483.683-.161 1.147-.321 1.389-.483.242-.08.644-.242 1.208-.484.562-.241 1.148-.483 1.752-.725s1.167-.483 1.691-.725c.523-.242.865-.442 1.027-.604.16-.08.483-.221.966-.423.483-.2.804-.381.966-.544.161-.079.402-.242.725-.483.321-.242.523-.402.604-.483.161-.161.502-.363 1.027-.604.523-.242.786-.442.786-.605.079-.079.302-.281.664-.604l1.148-1.027 1.208-1.088c.402-.363.684-.623.846-.786.242-.16.483-.381.725-.665.242-.281.442-.462.604-.544.08-.08.261-.302.544-.665.281-.362.423-.584.423-.665.402-.562.906-1.348 1.51-2.357.604-1.006.946-1.55 1.027-1.631.079-.161.26-.644.543-1.45.281-.805.502-1.37.665-1.692.08-.161.181-.523.302-1.088.121-.562.221-.925.302-1.087v-.121l-.121-.121c-.162 0-.362-.039-.604-.121-.242-.079-.444-.161-.604-.242.079 0 .16-.04.241-.121l.483-.242c.161 0 .321-.039.483-.121.161 0 .281-.019.362-.061.08-.04.161-.06.242-.06 0-.321.182-.826.544-1.511.362-.684.623-1.148.785-1.39 0-.079.161-.442.483-1.088.321-.644.483-1.046.483-1.209.079-.16.181-.483.302-.966.121-.484.261-.765.423-.846-.162-.161-.162-.483 0-.967-.081-.321-.102-.826-.061-1.511.04-.684.061-1.148.061-1.39.161 0 .2-.14.121-.423-.082-.281-.042-.502.121-.665-.081-.079-.142-.181-.181-.302-.042-.121-.102-.261-.181-.423-.082-.161-.121-.321-.121-.483-.242 0-.483-.04-.725-.121-.483-.161-.725-.281-.725-.362l-.121-.121c-.163 0-.242-.08-.242-.242 0-.161-.121-.321-.363-.483.161 0 .321-.04.483-.121l.483-.241c.161-.08.381-.14.665-.182.281-.04.502-.1.665-.181v-1.8119999999999998l-.242-.483c-.081-.161-.163-.282-.242-.363-.081-.079-.121-.16-.121-.242 0-.079.079-.281.241-.604.161-.321.242-.523.242-.604l-.362-.363-.121-.241c-.163-.08-.464-.121-.906-.121h-1.027l-.725.241c-.081-.16-.344-.462-.785-.906-.444-.442-.585-.744-.423-.906-.162-.08-.202-.261-.121-.544.08-.281.2-.463.363-.544l.241-.242c.08-.079.161-.121.242-.121.08 0 .161-.039.242-.121h.967c.16 0 .441.061.846.182.402.12.644.222.725.302l.363-.363c.079 0 .019-.26-.182-.786l-.543-1.39c-.163-.161-.423-.705-.786-1.632-.362-.925-.665-1.55-.906-1.873 0-.08-.121-.242-.362-.484l-.121-.241c-.081-.08-.202-.161-.362-.242-.323-.161-.483-.282-.483-.363h-.121v-.363c0-.079.04-.16.121-.242l-.483-.967c-.162-.079-.283-.221-.362-.423-.081-.2-.202-.381-.362-.544-.163-.242-.362-.483-.604-.725-.162-.161-.343-.321-.543-.483-.202-.161-.343-.321-.423-.484l-1.812-1.813c-.082-.16-.483-.544-1.208-1.148s-1.29-1.027-1.691-1.269l-.362-.362c-.163-.08-.363-.242-.604-.484-.163-.079-.483-.261-.967-.544-.483-.281-.987-.604-1.51-.967-.525-.362-1.048-.704-1.571-1.027-.524-.321-.906-.563-1.147-.725-.564-.242-1.35-.665-2.356-1.269-1.008-.604-1.552-.986-1.631-1.148-.082-.08-.504-.282-1.269-.604-.766-.321-1.268-.562-1.51-.725-.322-.161-1.048-.502-2.175-1.027-1.129-.523-1.854-.907-2.174-1.148-.242-.08-.564-.181-.967-.302-.404-.121-.685-.26-.846-.423-.162 0-.464-.079-.906-.242l-1.51-.544c-.564-.2-1.069-.381-1.51-.544-.444-.161-.746-.281-.906-.363-.242-.079-.846-.302-1.812-.665-.966-.363-1.491-.583-1.57-.665-.242-.161-.746-.302-1.511-.423-.766-.121-1.229-.14-1.389-.06-.242.081-.443.121-.604.121h-.725c-.162.082-.343.142-.543.182-.202.041-.383.102-.544.181l-.725.242c-.163 0-.646.162-1.45.483-.806.323-1.329.565-1.57.725-.162.081-.302.182-.423.302s-.263.223-.423.302l-.846.423c-.404.202-.646.383-.725.544-.163.081-.363.202-.604.362-.242.163-.525.323-.846.483-.323.242-.686.444-1.087.604-.163 0-.483.061-.966.182s-.846.223-1.088.302c-.162.081-.383.142-.664.182-.283.042-.544.102-.785.181-.323.081-.646.121-.967.121-.081 0-.464.042-1.148.121-.685.082-1.108.163-1.269.242h-.121c-.082 0-.163.021-.242.061-.081.042-.163.061-.242.061h-.483c-.242.242-.525.444-.846.604-.162.162-.464.423-.906.785-.443.363-.887.767-1.329 1.209l-1.268 1.269c-.404.404-.686.725-.846.967-.163.162-.444.543-.846 1.148l-1.329 1.994c-.483.725-.948 1.431-1.39 2.115-.444.686-.746 1.19-.906 1.511 0 .162-.162.585-.483 1.269-.323.686-.564 1.108-.725 1.27 0 .162-.162.525-.483 1.087-.323.565-.685 1.19-1.087 1.874-.404.686-.785 1.329-1.147 1.934-.363.604-.585.948-.665 1.027-.081.081-.181.283-.302.604-.121.323-.181.564-.181.725-.081.082-.121.223-.121.423 0 .203-.042.384-.121.544-.081.242-.121.484-.121.725.161 0 .342.042.543.121.2.082.302.202.302.363.161-.08.402-.1.725-.061.321.042.562.021.725-.06.242 0 .583-.019 1.027-.06.442-.04.704-.061.786-.061.16 0 .321-.039.483-.121.161 0 .281-.019.363-.061.079-.04.161-.061.242-.061.16-.079.362-.14.604-.181.242-.04.442-.1.604-.181 0-.08.281-.2.846-.363.562-.16.967-.281 1.208-.362l.604-.484c.321 0 .483-.16.483-.483 0-.08.061-.282.182-.604.121-.321.181-.563.181-.725l.483-.242c.08-.161.321-.282.725-.363.402-.079.684-.2.846-.363-.162.163-.242.303-.242.423s-.081.181-.242.181l.242.242v.121l.121.242c.242.163.583.344 1.027.544.442.202.705.262.786.181.079-.079.2-.121.362-.121.321 0 .562-.04.725-.121.079 0 .161-.019.242-.061.079-.04.2-.06.362-.06.161 0 .281-.04.362-.121.161 0 .281-.04.363-.121.079-.079.2-.161.362-.242 0-.16.1-.583.302-1.269.2-.684.341-1.107.423-1.269v-1.3900000000000001c0-.281-.042-.502-.121-.665.08-.079.08-.381 0-.906-.081-.523-.202-.825-.362-.907 0-.079.04-.221.121-.423.08-.2.04-.381-.121-.544 0-.08.08-.281.242-.604.16-.321.242-.523.242-.604.16-.242.321-.523.483-.846.242-.483.523-.886.846-1.209.08-.16.261-.402.544-.725.281-.321.423-.523.423-.604.16-.161.543-.523 1.148-1.088.604-.562.985-.967 1.148-1.208.16-.161.543-.423 1.147-.786.604-.362.985-.623 1.147-.786.08-.08.402-.302.967-.665.562-.363.925-.623 1.087-.786.402-.161.925-.442 1.571-.846.644-.402 1.046-.604 1.208-.604.16-.079.523-.242 1.087-.483.562-.242 1.147-.484 1.752-.726.604-.242 1.167-.442 1.691-.604.523-.161.906-.282 1.147-.363l1.45-.363c.16-.079.321-.121.483-.121.16 0 .362-.04.604-.121.242 0 .523-.04.846-.121h.483c.161 0 .281-.019.363-.061.079-.04.16-.061.242-.061l.483.121c.161.081.442.202.846.362.402.163.644.242.725.242.402 0 1.127.223 2.175.665 1.046.444 1.812.746 2.295.906l1.45.725.121.242c.16.081.644.343 1.45.785.804.444 1.329.665 1.57.665.08.081.281.223.604.423.321.202.665.423 1.027.665.362.241.704.464 1.027.665.321.202.483.344.483.423.16.082.684.384 1.57.907.886.525 1.45.827 1.691.906 0 .081.302.323.907.726.604.404 1.027.725 1.268.966.161.163.583.484 1.269.967.683.483 1.147.807 1.389.967.161-.079.604-.14 1.329-.181.725-.04 1.208-.061 1.45-.061h.604c0 .082-.142.181-.423.302-.283.121-.464.223-.543.303-.162 0-.525.081-1.087.241-.564.163-.967.242-1.208.242.321.163.483.202.483.121.161.404.363.646.604.725.16.163.281.242.362.242.242 0 .804.102 1.691.302.885.202 1.45.302 1.691.302h.362v.121c0 .081-.042.121-.121.121l-.483.242c-.081.082-.202.121-.362.121h-.121l-.967.121c-.081.082-.162.121-.242.121h-.242l-.242.121c.08.163.261.504.544 1.027.281.525.583 1.069.906 1.632.321.565.604 1.088.846 1.571s.441.846.604 1.088c.079.242.221.585.423 1.027.2.444.402.907.604 1.39.2.483.402.906.604 1.269.2.363.302.585.302.665.161.081.281.383.362.906.08.525.2.867.363 1.027.079.242.181.725.302 1.45s.221 1.209.302 1.451c-.081.163-.102.544-.06 1.148.04.604.1.948.181 1.027v.121l.242.121c.079.163.2.284.362.363.161.081.281.163.363.242.079.081.16.121.241.121 0 .081.04.162.121.241 0 .163.079.242.241.242l.121.362c.079.082-.06.263-.423.544-.363.283-.625.504-.785.665v.121h.241c0 .081.261.181.786.302.523.121.785.223.785.302.08 0 .161.042.242.121.079.082.121.163.121.242 0 .081.04.163.121.242l.121.121.121.242c.079.082-.021.202-.302.363-.283.162-.464.323-.543.483-.081 0-.383.021-.906.061-.525.042-.785.142-.785.302-.081.081-.163.121-.242.121-.082.081-.082.162 0 .242-.163.081-.323.283-.483.604 0 .082-.042.344-.121.786-.081.444-.042.746.121.907 0 .162-.121.625-.362 1.39-.242.767-.363 1.229-.363 1.39l.242.242-.483.242c-.081.081-.163.121-.242.121-.082.082-.142.283-.182.604-.041.323-.141.565-.302.725.161.163.14.646-.061 1.451-.202.806-.383 1.329-.543 1.571h.121v.121c.08 0 .161.021.242.061.079.042.2.061.362.061h.363v.604c-.082-.079-.202-.121-.363-.121-.404 0-.646.042-.725.121-.081 0-.081.121 0 .363.079.242.04.362-.121.362 0 .082-.141.181-.422.302-.283.121-.423.223-.423.302-.081.163-.241.544-.483 1.148-.242.604-.404.987-.483 1.148-.163.163-.423.483-.785.967-.363.483-.544.807-.544.967-.081.082-.242.303-.483.665-.242.363-.525.767-.846 1.208-.323.444-.604.846-.846 1.209-.242.362-.362.585-.362.665 0 .081-.021.182-.061.302-.042.121-.061.223-.061.303-.162.162-.604.483-1.329.967-.725.483-1.168.846-1.329 1.087-.163.163-.464.404-.906.725-.443.323-.746.484-.906.484-.242.323-.707.686-1.39 1.087-.685.404-1.068.646-1.147.726-.082.162-.363.362-.846.604l-.966.483c-.404.163-.987.384-1.752.665-.767.283-1.189.464-1.269.544-.564.162-1.087.323-1.571.483-.404.163-.846.283-1.329.362-.483.082-.887.163-1.208.242-.564.162-1.45.362-2.658.604s-1.894.404-2.054.483c-.081 0-.483.061-1.208.182l-1.812.302c-.081 0-.404.021-.966.061-.565.042-.927.102-1.087.182h-1.812c-.242 0-.604.021-1.087.06-.483.042-.987.061-1.51.061h-2.597c-.163-.08-.465-.121-.907-.121-.443 0-.746-.04-.906-.121-.483 0-1.169-.08-2.054-.242-.888-.161-1.793-.302-2.719-.423-.927-.121-1.752-.242-2.477-.362-.725-.121-1.169-.182-1.329-.182-.081-.079-.564-.302-1.45-.665-.887-.362-1.45-.665-1.691-.906-.163-.08-.363-.221-.604-.423-.241-.2-.483-.342-.725-.423-.163-.079-.404-.282-.725-.604-.162-.161-.283-.321-.362-.484 0-.079-.283-.442-.846-1.088-.564-.644-.966-1.167-1.208-1.571-.241-.321-.504-.804-.785-1.45-.283-.644-.423-1.006-.423-1.088-.162-.16-.343-.562-.543-1.208-.202-.644-.344-1.047-.423-1.209-.082-.079-.202-.281-.363-.604-.162-.321-.323-.665-.483-1.028-.163-.362-.302-.704-.423-1.027-.121-.321-.181-.562-.181-.725 0-.079-.082-.302-.242-.665-.162-.362-.241-.623-.241-.786-.163-.402-.283-.925-.362-1.571-.082-.644-.121-1.046-.121-1.208 0-.161-.021-.484-.061-.967-.042-.483-.081-1.027-.121-1.632l-.121-1.752c-.041-.563-.06-.967-.06-1.209v-1.45c0-.805-.042-1.409-.121-1.813-.162-.079-.202-.402-.121-.967.079-.563.161-.886.242-.967l-.121-.121v-.121c-.162 0-.504.042-1.027.121-.524.082-.906.082-1.148 0-.081 0-.283-.04-.604-.121-.323-.08-.564-.161-.725-.242h-.121c.08-.161.221-.321.423-.484.2-.16.342-.281.423-.362.08-.161.483-.342 1.208-.544.725-.2 1.167-.342 1.329-.423l.363-.363c.079-.16.121-.442.121-.846v-.846c-.081 0-.323.021-.725.061-.404.042-.685.06-.846.06-.081 0-.262-.1-.543-.302-.283-.2-.464-.342-.543-.423-.163.081-.585.121-1.269.121h-1.389l-.483.121c-.162 0-.323.082-.483.242-.163.081-.444.181-.846.302-.404.121-.604.223-.604.302-.241.242-.362.483-.362.725.162.081.441.121.846.121h.483c.16 0 .241.081.241.241 0 .082-.041.163-.121.242l-1.208.362c-.079.483-.12.888-.12 1.208 0 .323-.019.646-.061.967-.039.323.021.564.181.725l-.241.121c.081 0 .202-.019.362-.06.161-.04.321-.061.483-.061h1.087l.242.121v.242c-.081 0-.163.041-.242.121l-.242.242h-.242l-.121.121h-1.329c.162.082.202.223.121.423-.08.202-.121.344-.121.423-.079.564-.121 1.35-.121 2.356 0 1.009.042 1.553.121 1.632-.079 0-.04.102.121.302.162.202.281.344.362.423l-.242.242-.241.242c0 .082.042.383.121.906.081.525.041.907-.121 1.148.162.162.241.423.241.786 0 .362.082.625.242.786v3.263c.079.163.241.585.483 1.269.241.686.502 1.411.785 2.176.281.767.543 1.471.785 2.115.242.646.362 1.048.362 1.209.161.162.321.504.483 1.027.161.525.281.867.362 1.027.08.404.242.767.483 1.088l.483.967c.161.323.321.564.483.725l1.089 1.449zm67.175-18.975l1.208-.362-.483.483-.725-.121zm1.027-17.827c-.121.042-.181.021-.181-.061-.242-.079-.223-.161.06-.242.281-.079.381-.04.302.121 0 .081-.06.142-.181.182zm2.96-2.176c.079.121.161.182.242.182.242-.08.342-.161.302-.242-.042-.08-.182-.08-.423 0-.163-.08-.202-.061-.121.06zm-64.88 7.312l.242.242h.966c0 .162.14.444.423.846.281.404.422.646.422.725.08.162.342.423.786.785.442.363.665.586.665.665.241.242.562.363.966.363h.121c.079 0 .2-.04.362-.121.079 0 .161-.019.242-.06.079-.04.16-.061.242-.061l.362-.242c.079-.321-.042-.804-.362-1.45-.323-.644-.483-1.088-.483-1.329v-.121l-.121-.121c-.163.082-.404.021-.725-.181-.323-.2-.483-.342-.483-.423-.081-.08-.021-.342.182-.786.2-.442.26-.665.181-.665v-.242h-.121c-.162 0-.543.042-1.148.121-.604.081-.987.121-1.147.121l-.363.121h-.121c-.242.163-.585.344-1.027.544-.444.202-.665.344-.665.423l.242.242c.079.082.121.142.121.182 0 .042.04.102.121.181 0 .081.039.162.12.241zm-4.107-2.296l-.121.121c-.162 0-.283.042-.362.121-.081.081-.202.121-.363.121l.121.121.121.242.121.121.846-.846h-.363zm2.114-.484c.523.082.906.082 1.148 0 .079.082.26.121.543.121.281 0 .502-.04.665-.121.161-.16.583-.423 1.269-.785.683-.363 1.106-.624 1.268-.786.161 0 .282-.04.363-.121l.242-.242c.16-.562.441-1.309.846-2.236.402-.925.604-1.43.604-1.511l-.362-.604c-.082.081-.163.12-.242.12-.081 0-.163.021-.242.061-.081.041-.163.06-.242.06.079.081-.06.223-.423.423-.362.202-.625.344-.785.423 0 .242-.163.363-.483.363-.081.162-.202.283-.362.362-.323.163-.525.242-.604.242-.162.081-.362.163-.604.242l-.483.242c-.163.081-.283.12-.363.12l-.483.726-.242.483c-.082.081-.121.162-.121.242-.081 0-.142.021-.181.061-.042.042-.102.061-.181.061l-.121.121.241.121v.121c.08.163.321.242.725.242-.163.082-.483.223-.966.423-.483.202-.806.383-.967.544-.081 0-.142.042-.181.121-.042.081-.142.121-.302.121.16.08.501.161 1.026.24zm57.932-14.141c.079.163 0 .283-.242.362-.404.163-.646.142-.725-.06-.082-.201.079-.382.483-.544.243.001.403.082.484.242zm-68.504 14.987c.162.163.283.242.362.242l.121.121.725.121h1.087c.161 0 .402-.101.725-.302.321-.201.604-.382.846-.544-.081-.08-.102-.14-.061-.182.04-.04.019-.139-.061-.302l-3.744.846zm4.108-1.027c.079.121.281.102.604-.061.242-.079.321-.181.242-.302-.081-.121-.283-.1-.604.061-.242.081-.323.181-.242.302zm10.149-2.538c.079.121.04.223-.121.302-.404.162-.665.181-.785.061-.121-.121.019-.261.422-.423.243-.08.403-.061.484.06zm-9.061-.302c0 .081.321.081.966 0 .644-.08 1.127-.161 1.45-.242 0-.079.282-.261.846-.544.562-.281.885-.462.966-.543.161 0 .362-.04.604-.121.321-.16.562-.242.725-.242.242-.08.523-.14.846-.181.321-.04.562-.1.725-.182l.967.242c.161-.08.302-.2.423-.363.121-.161.14-.242.06-.242v-.242c-.241 0-.646.042-1.208.121-.564.081-.966.121-1.208.121-.163 0-.362.042-.604.121-.483.163-.806.284-.967.363-.163 0-.263.021-.302.061-.042.042-.142.061-.302.061h-.362c-.163.162-.504.383-1.027.665-.525.283-.827.423-.906.423-.163 0-.444.06-.846.181-.404.121-.725.223-.967.302l.121.241zm-2.78-.242c-.081 0-.162.042-.241.121-.081 0-.163.042-.242.121l-.121.241 2.537-.604c0-.079-.102-.121-.302-.121-.202 0-.344-.04-.423-.121-.081.082-.162.121-.242.121-.081 0-.162.021-.242.061-.081.042-.162.061-.242.061-.079.08-.239.12-.482.12zm15.465-5.922c-.081 0-.202.081-.362.242l-.121.121v.121c.079.082.121.163.121.242l.362-.726zm-4.228-3.505c-.081 0-.163.042-.242.121l-.121.241h-.363c-.081.082-.241.121-.483.121l1.209-.483zm-2.779-.242c.079-.16.321-.281.725-.362.402-.08.683-.201.846-.363l.242-.121h.241c-.162.082-.362.283-.604.604-.242.323-.404.525-.483.604h-.121c-.081.081-.202.121-.362.121h-.121c0-.08-.081-.1-.241-.061-.163.042-.323.021-.483-.06l.361-.362zm1.45-1.934c.08.163 0 .344-.242.544-.241.202-.443.344-.604.423-.081.081-.162.121-.242.121h-.362v-.242c0-.079.061-.16.181-.242.121-.079.1-.16-.06-.242l.604-.302c.242-.121.441-.182.604-.182l.121.122zm-.423-.363c.121.163.061.283-.181.362-.404.082-.646.061-.725-.06-.082-.121.04-.261.362-.423.242-.079.423-.039.544.121zM255.815 225.581c.16-1.129.342-2.317.543-3.565.2-1.25.381-2.438.544-3.565.161-1.129.281-1.934.363-2.417v-2.297l-.846.604h-1.572c-.241-.163-.543-.444-.906-.846s-.543-.765-.543-1.088c0 .323-.021.846-.061 1.571-.042.725-.061 1.167-.061 1.33 0 .402-.042.967-.121 1.692-.081.726-.121 1.167-.121 1.33 0 .402-.021 1.127-.061 2.176-.041 1.046-.081 2.175-.121 3.384-.042 1.208-.061 2.336-.061 3.384v2.176l.242 1.208c.161.161.302.362.423.604s.221.362.302.362h.604c.08 0 .161-.121.242-.362.079-.242.121-.444.121-.604.08 0 .121-.202.121-.604v-.604c.161-.163.281-.423.363-.786.08-.362.2-.625.363-.785.002-.406.081-1.171.243-2.298zm-1.812-8.098v-.846h.725l-.725.846zm3.142-23.206c.079-.805.14-1.65.181-2.538.04-.886.06-1.732.06-2.538v-6.646999999999999c0-.402-.041-1.027-.12-1.874-.082-.846-.121-1.348-.121-1.511 0-.079-.042-.2-.121-.362-.081 0-.121-.08-.121-.242 0-.08-.042-.121-.121-.121 0-.483.039-1.248.121-2.296.08-1.046.14-2.155.181-3.324.04-1.167.08-2.276.121-3.324.04-1.046.061-1.771.061-2.175 0-.321.019-.744.06-1.269.04-.523.06-1.046.06-1.571 0-.523-.021-1.028-.06-1.511-.042-.483-.06-.846-.06-1.088-.163.163-.525.544-1.088 1.148-.564.604-.927.948-1.087 1.027 0 .163-.021.283-.061.362-.042.082-.061.163-.061.242l-.121.121-.302.604s-.181.444-.181.604c0 .082-.061.363-.181.847-.121.483-.263.806-.423.966 0 .163-.121.544-.362 1.148-.242.604-.363.948-.363 1.027v.967l.363.483c0 .163-.021.544-.061 1.148-.042.605-.061.988-.061 1.148 0 .323-.021.907-.061 1.753-.042.846-.081 1.733-.121 2.659-.042.927-.061 1.813-.061 2.659v1.752c0 .323.019.827.061 1.511.04.686.06 1.371.06 2.055v3.082c0 .323.04.948.121 1.874.079.927.079 1.511 0 1.752 0 .163.04.465.121.907.079.444.121.746.121.906.161 0 .261.182.302.544.04.363.061.625.061.786 0 .162-.021.544-.061 1.148-.041.604-.06.988-.06 1.148v2.538c0 .484.04 1.009.121 1.571h.846v.242c0 .082.019.163.061.242.04.081.06.162.06.242l-.604.483v.242c0 .081-.021.162-.061.242-.042.081-.061.202-.061.362v.967c0 .323.019.746.061 1.269.04.525.079 1.027.121 1.511.04.483.079.906.121 1.269.04.362.06.585.06.665l.362.363c.08.162.281.646.604 1.45.16.163.321.363.483.604.241.404.441.885.604 1.45h.483c0-2.819.061-5.297.181-7.433.121-2.134.181-3.524.181-4.17v-5.922l-.483-.483c.082-.32.163-.884.245-1.691zm-.061 5.137c-.042.444-.181.665-.423.665-.162 0-.223-.221-.181-.665.04-.442.14-.665.302-.665.241.001.342.223.302.665zm-2.174-18.553c.281.404.422.686.422.846.161 0 .321.202.483.604.16.404.242.806.242 1.208.08.081.121.162.121.242 0 .081.04.163.121.242 0 .163.04.283.121.363 0 .162.019.344.06.544.04.202.06.423.06.665-.162 0-.503-.08-1.027-.242-.524-.161-.866-.242-1.027-.242-.081 0-.141-.079-.181-.242-.042-.161-.141-.321-.302-.483 0-.161-.021-.462-.06-.907-.042-.442-.061-.744-.061-.906v-1.329c0-.161.04-.321.121-.483l.242-.483c.16-.001.381.201.665.603zm1.389-1.148c0 .363-.081.544-.242.544-.323 0-.483-.181-.483-.544 0-.362.16-.544.483-.544.161 0 .242.182.242.544zm.483-39.945c.079-1.127.16-2.315.241-3.565.079-1.249.161-2.437.242-3.565.079-1.127.12-1.934.12-2.417v-6.648000000000001c0-.804-.041-1.33-.12-1.571 0-.402.019-1.046.06-1.934l.121-2.78c.039-.967.06-1.853.06-2.659v-2.1759999999999997c.079-.241.16-.744.242-1.51.08-.765.161-1.269.242-1.511.16-.161.26-.382.302-.665.039-.281.1-.423.181-.423l.241-.242c.161-.16.321-.241.483-.241.161-.242.402-.423.725-.544.321-.121.483-.261.483-.423.242 0 .684-.14 1.329-.423.644-.282 1.087-.423 1.329-.423.161-.161.423-.302.786-.423.362-.121.583-.302.665-.544.16 0 .522-.079 1.087-.242.563-.16.925-.242 1.087-.242.08 0 .342-.061.786-.181.441-.121.925-.242 1.45-.362.523-.121 1.006-.221 1.45-.303.441-.079.744-.16.906-.241.242-.08.623-.221 1.147-.423.523-.2 1.106-.381 1.752-.544.644-.161 1.227-.321 1.752-.483.523-.16.906-.281 1.148-.362.16 0 .362-.161.604-.484.242-.321.442-.523.604-.604v-1.088c0-.321.04-.604.121-.846v-.241c0-.321.04-.563.121-.726.079-.321.161-.604.242-.846v-.604c-.081-.161-.242-.463-.483-.906-.242-.442-.404-.745-.483-.907l.362-.483c.08 0 .302-.182.665-.544.363-.363.544-.623.544-.786l.121-.242v-.242h-.483c-.163.081-.625.242-1.39.483l-2.477.786c-.887.283-1.712.525-2.477.725-.767.202-1.269.302-1.51.302-.163.162-.707.302-1.631.423-.927.121-1.51.263-1.752.423-.081 0-.362.082-.846.242-.483.162-.806.242-.966.242-.163.081-.464.223-.906.423-.444.202-.927.404-1.45.604-.525.202-1.008.383-1.45.544-.444.162-.707.242-.786.242h-2.296c-.082 0-.223-.182-.423-.544-.202-.363-.302-.624-.302-.786.079-1.046.161-3.001.242-5.862.08-2.859.181-5.862.302-9.004.121-3.143.242-6.123.363-8.944.121-2.82.221-4.753.302-5.802v-.726c0-.242.04-.744.121-1.511.079-.765.181-1.571.302-2.417.121-.846.221-1.65.302-2.417.08-.765.121-1.228.121-1.39v-1.329l-.241-.242c-.163-.161-.323-.242-.483-.242 0-.16-.102-.362-.302-.604-.202-.242-.302-.442-.302-.604-.082 0-.142-.261-.182-.786-.041-.523-.102-.865-.181-1.027l-.121-.242c0 .242-.061.707-.181 1.39-.121.686-.182 1.148-.182 1.39-.081.081-.12.162-.12.241 0 .082-.042.163-.121.242-.323.323-.646.484-.967.484-.081.081-.404.121-.966.121-.323 0-.604-.04-.846-.121-.163.162-.302.604-.423 1.33-.121.725-.181 1.33-.181 1.812l-2.054 38.676c0 .163-.042.404-.121.725-.081.323-.162.484-.242.484-.081.162-.323.343-.725.544-.404.202-.685.383-.846.543-.081 0-.302.121-.664.363-.363.242-.665.363-.906.363-.163.081-.585.241-1.269.483l-2.235.786-2.235.785c-.683.242-1.147.404-1.389.484-.079 0-.302.06-.665.181-.362.121-.583.181-.665.181-.241 0-.523.082-.846.242l-.483.242v1.451l-.241.362h-.846v-1.087h-.544c-.281 0-.462.081-.543.242-.08 0-.381.042-.906.121-.523.082-.906.202-1.148.363-.161 0-.442.102-.846.302-.402.202-.846.404-1.329.604-.483.202-.946.383-1.389.544-.442.163-.785.283-1.027.363-.32.162-.725.344-1.208.544-.483.202-.925.383-1.329.544l-1.691.725v1.087c-.079-.161-.2-.321-.362-.483-.16-.16-.281-.242-.362-.242h-.845l-.786.423-1.208.665c-.442.242-.846.444-1.208.604-.363.162-.583.241-.665.241-.161 0-.604.142-1.329.423-.725.283-1.49.604-2.295.967-.804.363-1.571.686-2.296.967-.725.283-1.167.465-1.329.544-.32.163-.846.383-1.57.665-.725.283-1.208.504-1.45.665-.08 0-.2.042-.363.121-.16.082-.241.202-.241.363l-.363.725c-.16.323-.321.525-.483.604v.242l-.121.242c.163.163.323.383.483.665.162.284.283.544.362.786.081 0 .262.061.543.181.283.121.465.182.544.182h2.416c.241-.08.646-.14 1.208-.182l1.691-.121c.564-.04 1.069-.061 1.51-.061h.785c.082-.079.323-.221.725-.423.404-.2.806-.363 1.208-.483.404-.121.786-.242 1.148-.363.362-.121.585-.181.665-.181.081 0 .302-.019.665-.061.362-.04.767-.1 1.208-.181.444-.079.827-.14 1.148-.181.323-.04.525-.061.604-.061.162-.079.464-.2.906-.362.444-.161.746-.321.906-.484.081 0 .283-.06.604-.181.323-.121.707-.281 1.148-.483.444-.2.867-.402 1.269-.604.404-.2.725-.381.966-.544.163 0 .362-.079.604-.241.242-.161.443-.242.604-.242l.242-.483c.162-.161.483-.2.967-.121.483.081.806.121.966.121.163-.079.404-.161.725-.242.162-.08.362-.14.604-.181.242-.04.444-.101.604-.182.242 0 .564-.121.967-.362.242-.08.483-.2.725-.363v-1.148c0-.604.042-.986.121-1.148 0-.402.081-.765.242-1.087.162-.161.343-.402.543-.725.202-.321.344-.563.423-.726h.363c0 .082.041.163.121.242 0 .082.021.163.061.242.041.081.06.163.06.242-.079.081-.121.162-.121.242v.845c0 .163-.1.383-.302.665-.2.284-.342.544-.423.786l-.121.483c0 .082.021.163.061.242.041.081.06.202.06.363.242-.08.746-.242 1.51-.484.767-.242 1.591-.442 2.477-.604.887-.161 1.71-.321 2.477-.483.765-.161 1.348-.242 1.752-.242.079-.161.381-.242.906-.242h2.1149999999999998c.402 0 .604.081.604.242l.966 1.813v1.148c0 .525.019 1.069.061 1.631.04.565.061 1.088.061 1.571v1.088l.242.725c.079.163.121.363.121.604s.04.444.121.604v.483c0 .242.08.363.242.363 0 .484-.042 1.39-.121 2.72-.081 1.329-.162 2.74-.242 4.23-.081 1.492-.163 2.9-.242 4.23-.081 1.329-.121 2.236-.121 2.719v1.269c0 .686-.021 1.432-.061 2.236-.042.806-.061 1.592-.061 2.357v1.632c0 .404.019 1.148.061 2.236.04 1.088.061 1.713.061 1.874 0 .483.019 1.29.061 2.417.04 1.129.06 2.338.06 3.626v6.042999999999999c0 .163.061.384.181.665.121.283.181.504.181.665h.483c.079-.16.302-.302.665-.423.362-.121.623-.261.786-.423.32 0 .562-.16.725-.483 0 .163.061.384.181.665.121.283.181.504.181.665l.242.484c.079 0 .139.021.181.06.039.042.1.06.181.06.079.082.16.121.241.121 0-.241.019-.704.061-1.39l.121-2.115c.04-.725.08-1.39.121-1.994.04-.604.06-1.027.06-1.269v-.907c0-.523-.021-1.148-.06-1.874l-.121-2.115c-.041-.684-.06-1.188-.06-1.511v-3.143c0-.644-.042-1.288-.121-1.934l-.362-.483c-.004-.486.036-1.291.117-2.42zm-2.296 2.418c-.081 0-.202.081-.362.242-.162.162-.323.242-.483.242-.081 0-.121-.14-.121-.423v-.665c.08-.08.121-.2.121-.363 0-.242.04-.363.121-.363h.362c.079 0 .121.042.121.121 0 .163.039.242.121.242.08.163.161.283.242.363v.121c0 .081-.021.141-.061.181-.042.042-.061.102-.061.181v.121zm1.329-4.714h-.483l.121-1.33h.483l-.121 1.33zm-1.57-5.076l.181.544c.04.121.06.262.06.423.079 0 .121.081.121.242v.483l-.483-.242-.242-.483v-.967h.363zm2.416-2.176h-.362c-.081-.161-.202-.462-.362-.906-.163-.442-.283-.744-.362-.907l1.086 1.813zm-2.054-5.802v1.208c-.081.162-.142.465-.181.907-.042.443-.102.746-.181.906l-.483-.725c0-.242.019-.583.06-1.027l.121-1.39c.04-.484.06-.947.06-1.39v-.907c0-.079-.021-.181-.06-.302-.042-.121-.061-.261-.061-.423-.081-.16-.121-.321-.121-.483 0-.161.06-.463.181-.907.121-.442.181-.744.181-.906h.483c.16.323.241.807.241 1.45-.081.242-.121.525-.121.846v1.571c-.079.405-.119.928-.119 1.572zm-6.826-14.745c-.042.323-.182.483-.423.483-.162-.161-.223-.321-.181-.483.04-.161.14-.242.302-.242.242-.16.342-.079.302.242zm-3.987-2.055c-.04.483-.14.726-.302.726-.241 0-.341-.242-.302-.726.042-.483.181-.725.423-.725.162 0 .223.242.181.725zm87.473-18.915c.362-.2.825-.381 1.389-.544-.081-.079.04-.181.362-.302.321-.121.684-.261 1.088-.423.402-.16.885-.362 1.449-.604-.241-.079-.706-.121-1.389-.121h-2.235c-.807 0-1.571-.019-2.296-.06-.725-.04-1.329-.061-1.812-.061l1.812-.241c.321-.08.946-.221 1.873-.423.925-.201 1.892-.423 2.9-.665 1.006-.242 1.912-.442 2.718-.604.804-.16 1.288-.242 1.45-.242l.604-.604h-.967c-.483 0-1.189.021-2.114.061-.927.042-1.894.082-2.9.121-1.008.042-1.975.121-2.899.242-.927.121-1.591.223-1.994.302-5.478 1.048-10.39 1.975-14.74 2.78-1.854.404-3.666.767-5.437 1.087-1.773.323-3.343.604-4.712.846-1.612.323-3.183.604-4.711.846-.163 0-.344.021-.544.061-.202.042-.383.06-.543.06h-.604c-.242 0-.604.061-1.087.182s-1.008.242-1.571.362c-.564.121-1.087.242-1.57.363-.483.121-.846.181-1.088.181-.162 0-.483.061-.966.181-.483.121-1.027.242-1.631.363l-1.812.362c-.604.121-1.069.223-1.389.302-.404.082-.888.202-1.45.363-.564.162-.927.242-1.087.242-.163.163-.323.464-.483.907-.162.443-.242.746-.242.906 0 .163.161.202.483.121.321-.079.562-.04.725.121 0 .163.121.283.363.363l.362.362c0 .163-.021.483-.061.967-.042.484-.102.767-.181.846 0 .163.1.302.302.423.2.121.302.263.302.423.242 0 .744-.04 1.51-.121.765-.08 1.227-.121 1.389-.121.402-.08.986-.14 1.752-.182.765-.04 1.188-.06 1.269-.06.161 0 .462-.079.906-.242.442-.16.925-.321 1.45-.483.523-.161 1.006-.302 1.45-.423.441-.121.744-.221.906-.302.08 0 .906-.182 2.477-.544 1.571-.363 3.503-.786 5.799-1.269 2.295-.484 4.812-1.028 7.551-1.632 2.737-.604 5.356-1.167 7.854-1.692 2.496-.523 4.691-.986 6.584-1.39 1.892-.402 3.16-.644 3.806-.725.723-.243 1.267-.464 1.63-.666zm164.977-26.409c0-.16.04-.321.121-.483-.404 0-1.189-.04-2.356-.121-1.168-.079-2.156-.04-2.96.121.161-.161.182-.221.061-.181-.121.042-.302.061-.543.061-.323.081-.646.121-.967.121-.081-.079-.404-.14-.967-.181-.564-.04-1.208-.061-1.933-.061h-7.733c-.483 0-.846.042-1.087.121-.725.081-1.41.162-2.054.242-.646.081-1.269.142-1.873.181-.604.042-1.189.102-1.752.181-.162 0-.483.021-.966.061-.483.042-1.027.102-1.631.181l-1.751.242c-.564.081-.927.121-1.088.121-.483.082-1.37.223-2.658.423-1.29.202-2.679.423-4.168.665-1.491.242-2.941.464-4.35.665-1.41.202-2.477.344-3.202.423-.564 0-1.673.121-3.322.363-1.652.242-3.504.504-5.558.786-2.054.284-4.107.585-6.162.907-2.054.323-3.685.604-4.893.846-.404 0-1.45.121-3.141.362l-5.497.786c-1.975.283-3.866.565-5.679.846-1.812.283-2.96.423-3.443.423-.404 0-1.229.102-2.477.302-1.25.202-2.597.404-4.047.604-1.449.202-2.82.404-4.107.604-1.29.202-2.096.344-2.417.423-.404 0-1.269.082-2.598.242-1.329.163-2.881.363-4.651.604-1.773.242-3.666.483-5.679.725-2.014.242-3.907.504-5.678.786-1.772.283-3.304.525-4.591.725-1.29.202-2.096.344-2.417.423-1.289.081-2.98.241-5.074.483-2.095.242-4.189.504-6.283.786-2.095.283-3.987.544-5.678.785-1.691.242-2.7.404-3.021.484-.404 0-1.108.06-2.114.181-1.008.121-1.631.262-1.873.423-.404.081-.827.163-1.269.242-.444.081-.665.202-.665.362l-1.45.363c-.646.162-1.31.344-1.993.544-.685.202-1.51.504-2.477.906l.241.121c0 .081.261.163.786.242.522.081 1.087.121 1.691.121h2.959c.402 0 .765.042 1.087.121.644.162.885.283.725.362 0 .081.14.263.423.544.281.283.302.504.06.665l123.114-14.141c1.529-.242 2.979-.483 4.35-.726 1.127-.16 2.194-.321 3.202-.483 1.006-.16 1.67-.321 1.994-.483.644-.16 1.489-.363 2.537-.604 1.045-.242 1.691-.484 1.933-.725.402 0 1.066-.201 1.994-.604.925-.402 1.549-.644 1.873-.726.16 0 .402-.04.725-.121.321-.079.684-.2 1.088-.362.401-.161.846-.321 1.329-.484v-1.815zm-235.113-13.536c.08-.483.161-.986.242-1.511.079-.523.14-1.027.181-1.511.04-.483.1-.804.181-.967 0-.402.08-1.007.242-1.813.161-.805.242-1.288.242-1.451 0-.16.04-.846.121-2.054.079-1.209.121-2.095.121-2.659 0-.483.04-1.309.121-2.478.08-1.167.121-1.874.121-2.115-.081-.402-.181-.986-.302-1.752-.121-.765-.262-1.228-.423-1.39.08-.161.161-.362.242-.604.08-.241.121-.442.121-.604h.725v-1.813l-.362-.725c0-.079.019-.321.06-.725.04-.402.061-.684.061-.846 0-.563-.162-1.007-.483-1.329 0-.161-.121-.463-.363-.907-.242-.442-.443-.744-.604-.907l-.242-.242c-.081 0-.121-.019-.121-.061 0-.04-.042-.06-.121-.06-.081 0-.121-.04-.121-.121h-.966c-.082 0-.323.142-.725.423-.404.283-.646.544-.725.786-.323 0-.564.202-.725.604l-.242.484c-.081.162-.12.404-.12.725-.082.162-.163.464-.242.906-.081.444-.121.746-.121.906-.082.242-.163.585-.242 1.027-.081.444-.162.907-.241 1.39-.082.483-.142.927-.182 1.33-.042.404-.061.646-.061.725 0 .163-.021.483-.06.967-.042.483-.061 1.027-.061 1.632 0 .604-.021 1.208-.061 1.813-.042.604-.06 1.069-.06 1.39 0 .404-.021.927-.061 1.571l-.121 1.874c-.042.604-.082 1.148-.121 1.632-.042.483-.06.766-.06.846v2.659c0 .483.019.906.06 1.269.04.362.1.544.181.544h.604c0-.161.1-.544.302-1.148.2-.604.342-.986.423-1.148 0-.079.1-.321.302-.725.2-.402.341-.604.422-.604.161 0 .342.121.544.362.2.242.342.444.423.604l.121.121.241.241c.079.163.181.384.302.665.121.283.181.544.181.786-.081.081-.121.163-.121.242v1.33l-.604 1.088v1.813c.079.163.241.465.483.907.242.444.402.746.483.906h.483c.08-.16.161-.362.242-.604.16-.321.241-.563.241-.725.083-.163.164-.486.245-.969z"/><path fill="#241F20" d="M308.612 210.957v1.33c.08.242.14.625.182 1.148.04.523.1 1.046.181 1.571.079.523.14 1.027.181 1.511.04.483.061.765.061.846.079.079.181.342.302.786.121.442.181.744.181.906.08.08.2.221.363.423.16.2.241.342.241.423.161.161.502.442 1.027.846.523.402.864.604 1.027.604 0 .079.161.121.483.121h1.208c.321 0 .562-.042.725-.121.16-.082.441-.242.846-.484.402-.242.846-.525 1.329-.846.483-.323.946-.604 1.389-.846.441-.242.744-.404.906-.483.161-.163.644-.465 1.45-.907.804-.444 1.65-.906 2.537-1.39.885-.483 1.731-.927 2.537-1.33.804-.404 1.288-.686 1.45-.846.079 0 .281-.142.604-.423.321-.283.704-.604 1.148-.967.441-.363.846-.705 1.208-1.027.362-.321.665-.563.906-.726.161-.079.423-.321.786-.725.362-.402.623-.684.785-.846.08-.16.242-.381.483-.665.242-.281.402-.502.483-.665.161-.161.423-.483.786-.967.362-.484.583-.765.665-.846.16-.242.381-.583.665-1.028.281-.441.583-.906.906-1.389.321-.484.604-.947.845-1.39.242-.442.402-.744.483-.907.08-.079.2-.26.363-.544.16-.281.241-.502.241-.665.08-.161.182-.442.302-.846.121-.403.181-.684.181-.846.079-.161.181-.484.302-.967.121-.484.181-.805.181-.967.161-.161.281-.705.362-1.632.08-.925.121-1.59.121-1.994.079-.483.2-1.329.362-2.538.161-1.208.242-1.934.242-2.175v-2.7800000000000002c0-.161-.081-.604-.242-1.33-.162-.725-.283-1.208-.362-1.451-.081-.402-.302-1.167-.665-2.296-.363-1.128-.625-1.893-.786-2.297 0-.079-.121-.402-.362-.967-.242-.563-.404-.925-.483-1.087l-.362-.363c-.081-.079-.162-.2-.242-.362-.162-.161-.483-.563-.967-1.209-.483-.644-.845-1.088-1.087-1.33l-1.45-1.45c-.081-.161-.302-.382-.665-.665-.362-.281-.664-.462-.906-.544-.081-.079-.362-.281-.846-.604-.483-.321-.806-.563-.967-.725-.241 0-.564-.1-.966-.302-.404-.2-.604-.342-.604-.423-.242-.08-.585-.2-1.027-.363l-1.51-.544c-.564-.2-1.069-.402-1.51-.604-.444-.2-.786-.342-1.027-.423-.082-.079-.283-.16-.604-.242-.323-.079-.564-.121-.725-.121-.242-.079-.746-.16-1.51-.241-.767-.08-1.269-.121-1.51-.121-.163-.08-.564-.14-1.208-.182l-2.054-.121c-.725-.04-1.41-.061-2.054-.061h-1.208c-.162 0-.423-.079-.785-.242-.362-.16-.585-.242-.665-.242-.081-.08-.242-.2-.483-.363-.241-.16-.404-.281-.483-.362v-2.418c0-.079.1-.321.302-.725.2-.402.423-.825.665-1.269.242-.442.462-.865.665-1.269.2-.402.342-.644.423-.725.08-.242.242-.644.483-1.208.242-.563.483-1.148.725-1.752.241-.604.483-1.188.725-1.753.242-.562.402-.966.483-1.208 0-.161.14-.644.423-1.45.281-.805.423-1.369.423-1.692.079-.161.2-.523.362-1.088.16-.563.242-1.007.242-1.33 0-.242.08-.765.242-1.571.079-.321.16-.684.241-1.087 0-.08.019-.282.061-.604.039-.321.06-.604.06-.846-.081 0-.121-.04-.121-.121v-.845c0-.161-.06-.502-.181-1.027-.121-.523-.222-.865-.302-1.027-.163-.321-.423-.946-.785-1.874-.362-.925-.585-1.469-.665-1.631-.081-.161-.302-.563-.665-1.209-.362-.644-.625-1.046-.786-1.208-.162 0-.283-.04-.362-.121l-.242-.242c-.162-.079-.423-.221-.785-.423-.362-.2-.585-.342-.665-.423-.404-.161-1.108-.423-2.114-.786-1.008-.362-1.591-.623-1.752-.785-.162-.08-.665-.2-1.51-.363-.846-.161-1.39-.281-1.631-.362-.163-.08-.543-.182-1.148-.302-.604-.121-1.068-.182-1.389-.182-.163 0-.464-.019-.906-.06l-1.39-.121c-.483-.04-.927-.08-1.329-.121-.404-.04-.646-.061-.725-.061h-4.349c-.162.081-.525.223-1.087.423-.564.202-1.148.423-1.751.665-.604.242-1.189.464-1.752.665-.564.202-.927.302-1.087.302-.162.081-.725.202-1.691.363-.967.162-1.531.323-1.691.483-.404.082-1.169.263-2.296.544-1.129.283-1.894.465-2.295.544-.163.082-.543.202-1.148.363-.604.163-.987.283-1.147.362-.242.163-.785.404-1.631.725-.846.323-1.35.484-1.51.484-.082.081-.483.223-1.208.423-.725.202-1.168.344-1.329.423-.163 0-.321.041-.483.121l-.242.121c-.08 0-.121.042-.121.121-.16.081-.423.202-.785.363-.362.162-.623.323-.786.483-.079 0-.302.121-.664.363-.363.242-.786.504-1.269.786l-1.45.846c-.483.283-.885.504-1.208.665-.242.242-.683.565-1.329.967-.644.404-.966.646-.966.726-.161.081-.423.263-.786.544-.362.283-.583.464-.665.544-.16.081-.26.162-.302.242-.04.081-.1.162-.182.242-.079.162-.12.283-.12.362v2.2960000000000003c0 .163.12.444.362.846.241.404.443.686.604.846.163.082.362.202.604.363.242.163.404.283.483.363.081 0 .302.061.665.181l.906.302h1.329c.163-.079.423-.181.785-.302.363-.121.585-.181.665-.181.323-.161.846-.502 1.571-1.027.725-.523 1.471-1.088 2.235-1.692.767-.604 1.51-1.167 2.235-1.692.725-.523 1.208-.906 1.45-1.148.16-.08.502-.261 1.027-.544.522-.281.864-.463 1.027-.544.16-.161.665-.442 1.51-.846.846-.402 1.469-.684 1.873-.846.402-.16.966-.362 1.691-.604s1.167-.402 1.329-.484c.321-.16.864-.341 1.631-.543.765-.201 1.227-.302 1.39-.302h1.45c.16 0 .402.081.725.242.161.081.281.121.363.121.242.242.363.483.363.726 0 .967.039 2.619.12 4.956.08 2.337.14 4.815.182 7.433.04 2.62.1 5.097.181 7.433.08 2.338.121 3.949.121 4.835 0 .241.019.785.061 1.631.04.846.1 1.752.182 2.72.079.967.139 1.873.181 2.719.04.846.06 1.39.06 1.632 0 .483.019 1.571.061 3.263.04 1.692.079 3.546.121 5.56.04 2.015.079 3.989.121 5.922.04 1.934.1 3.344.181 4.23v4.834c0 .163-.021.565-.061 1.209-.042.646-.102 1.35-.181 2.115-.081.766-.142 1.471-.181 2.115-.042.646-.061 1.048-.061 1.208v7.494c0 .163.04.444.121.846.079.404.2.686.362.846.16.081.341.202.543.362.2.163.381.284.543.363h.967c.08-.161.2-.281.362-.363l.725-.362c0-.161.061-.321.181-.484.121-.16.182-.281.182-.362 0-.08.019-.321.06-.725l.121-1.269.121-1.269c.04-.402.061-.645.061-.726.079-.16.2-.462.362-.906.161-.442.321-.925.483-1.45.161-.523.321-1.007.483-1.451.161-.442.241-.744.241-.906.08-.242.182-.604.302-1.088s.181-.804.181-.967v-7.01c0-.242-.061-.786-.181-1.631-.121-.846-.223-1.349-.302-1.511v-16.317c0-.08.04-.281.121-.604.08-.321.2-.483.362-.483 0-.079.161-.121.483-.121.321 0 .483.042.483.121.242.163.665.465 1.269.907.604.444 1.067.746 1.389.906.08.163.242.263.483.302.242.042.402.061.483.061.16.082.321.121.483.121h1.45c.161 0 .281-.039.362-.121.242 0 .765-.1 1.571-.302.804-.2 1.287-.342 1.45-.423.161 0 .502-.04 1.027-.121.523-.079.865-.16 1.027-.242.161 0 .644-.121 1.45-.363.804-.242 1.287-.362 1.45-.362.321-.079.725-.161 1.208-.242.483-.08.764-.121.845-.121.08 0 .583-.019 1.51-.06.925-.04 1.59-.061 1.994-.061.483 0 1.167.021 2.054.061.885.042 1.368.06 1.449.06.08 0 .381.042.906.121.523.081.906.163 1.148.242.242.081.744.223 1.51.423.765.202 1.227.302 1.389.302.402.082.967.283 1.691.604.725.323 1.167.483 1.329.483.161.163.583.504 1.269 1.027.683.525 1.106.867 1.268 1.027.161.081.402.444.725 1.088.321.646.523 1.088.604 1.329.161.163.362.525.604 1.088.241.565.402.967.483 1.209 0 .162.08.483.242.967.079.242.121.443.121.604v13.416c-.082.242-.223.725-.423 1.451-.202.725-.383 1.208-.543 1.45 0 .081.04.202.121.363.079.162.039.283-.121.362l-.483.483c.079.163.121.283.121.362 0 .242-.042.404-.121.484l-.121.121c-.163.163-.283.242-.363.242 0 .081-.222.384-.665.907-.443.525-.664.827-.664.906-.163.162-.363.384-.604.665-.242.283-.404.504-.483.665l-.786.786c-.362.363-.585.625-.664.786-.163.162-.646.544-1.45 1.148-.806.604-1.329.988-1.57 1.148-.163.162-.544.423-1.148.786-.604.362-1.027.625-1.269.786-.323.242-.948.604-1.873 1.087-.927.484-1.47.807-1.63.967-.163.081-.344.162-.544.242-.202.081-.383.121-.544.121h-1.8119999999999998c-.323 0-.564-.04-.725-.121-.162-.08-.283-.161-.362-.242-.081-.079-.242-.321-.483-.725-.241-.402-.404-.684-.483-.846-.081-.08-.241-.402-.483-.967-.242-.563-.404-.926-.483-1.088-.163-.079-.362-.2-.604-.362-.242-.161-.404-.242-.483-.242h-.242c-.081 0-.142-.019-.181-.06-.042-.04-.102-.061-.181-.061-.081 0-.121.021-.121.061 0 .042-.042.06-.121.06h-.121c-.162 0-.362.081-.604.242-.242.162-.404.283-.483.362 0 .081.019.242.06.483.04.242.019.362-.06.362 0-.079-.121 0-.363.242-.081.081-.162.121-.242.121v1.084zm-13.35-45.143c-.042-.684-.082-1.409-.121-2.175-.042-.765-.102-1.49-.181-2.176-.081-.684-.162-1.148-.242-1.39v-3.142c0-.161.1-.623.302-1.39.2-.765.302-1.227.302-1.39 0-.242.04-.786.121-1.632.08-.846.14-1.752.181-2.719.04-.967.08-1.893.121-2.78.04-.885.061-1.45.061-1.692s.08-.865.242-1.874c.161-1.006.242-1.671.242-1.994 0-.079.061-.321.181-.725.121-.402.221-.684.302-.846.161-.161.302-.382.423-.665.121-.282.181-.502.181-.665.16-.242.423-.665.785-1.27.363-.604.583-.906.665-.906l.966-.483c.483-.242.885-.362 1.208-.362h2.295c.402 0 1.027.041 1.873.121.846.082 1.39.163 1.631.242l.966.483c.08.081.161.121.242.121l.242.241c.079.163.281.484.604.967.161.242.281.444.363.604v9.911c-.082.162-.163.363-.242.604-.163.484-.283.767-.363.846-.081.323-.283.948-.604 1.874-.323.927-.525 1.511-.604 1.752-.162.081-.362.384-.604.907-.242.525-.404.906-.483 1.148-.162.323-.423.827-.786 1.511-.362.686-.625 1.069-.785 1.148-.163.323-.423.785-.786 1.39s-.585.988-.665 1.148c-.081 0-.262.162-.543.483-.283.323-.604.686-.967 1.088-.362.404-.685.806-.966 1.208-.283.404-.423.646-.423.725-.162.163-.423.625-.786 1.39-.362.767-.625 1.229-.785 1.391-.082.081-.302.262-.665.543-.362.284-.625.465-.785.544-.081.081-.162.121-.242.121h-.604c-.081 0-.162-.04-.242-.121-.081 0-.242-.1-.483-.302-.242-.2-.404-.342-.483-.423.001-.241-.019-.703-.059-1.389zM344.677 214.703c.04.321.061.523.061.604l.362.846c.16.161.402.484.725.967.321.483.562.765.725.846.08.161.221.282.423.363.2.079.342.121.423.121.16 0 .664.079 1.51.242.846.16 1.429.242 1.752.242h2.537c.161 0 .543-.082 1.148-.242.604-.163.985-.242 1.147-.242h11.719999999999999c.16 0 .665.079 1.51.242.846.16 1.348.242 1.51.242h13.652999999999999c.242 0 .925-.061 2.054-.182 1.127-.121 1.933-.223 2.417-.302.161 0 .402-.042.725-.121.321-.081.522-.202.604-.363.161-.081.423-.343.785-.785.362-.444.623-.786.786-1.028v-.362c-.242-.242-.363-.565-.363-.967 0-.242-.121-.362-.362-.362-.163-.323-.444-.484-.846-.484-.082-.081-.302-.142-.665-.181l-1.148-.121-1.147-.121c-.362-.042-.585-.061-.665-.061-.081 0-.283-.021-.604-.061-.323-.042-.665-.102-1.027-.181s-.706-.14-1.027-.181c-.323-.04-.525-.061-.604-.061-.162 0-.544-.019-1.148-.061-.604-.04-1.25-.08-1.933-.121-.685-.04-1.31-.1-1.873-.181-.564-.08-.887-.121-.966-.121-.242 0-.786-.061-1.631-.182-.846-.121-1.389-.221-1.631-.302-.163 0-.483-.04-.967-.121l-1.51-.242c-.524-.08-1.027-.161-1.51-.242-.483-.079-.766-.121-.845-.121-.404-.16-.906-.281-1.51-.362-.604-.08-.948-.121-1.027-.121-.162-.08-.423-.14-.785-.182l-1.148-.121c-.404-.039-.785-.079-1.147-.121-.362-.04-.585-.061-.665-.061-.242 0-.665-.06-1.269-.181-.604-.121-1.249-.221-1.933-.302-.686-.08-1.329-.181-1.933-.302-.604-.121-1.027-.181-1.269-.181-.242-.079-.686-.181-1.329-.302-.646-.121-1.048-.181-1.208-.181-.081 0-.241-.04-.483-.121-.242-.079-.444-.2-.604-.362-.082-.08-.263-.221-.544-.423-.283-.201-.464-.342-.543-.423l-.242-.483c-.081-.079-.121-.2-.121-.363 0-.241-.021-.725-.06-1.45-.042-.725-.061-1.208-.061-1.45 0-.402.019-.986.061-1.753.04-.765.06-1.188.06-1.269 0-.079.019-.362.061-.846.04-.483.1-1.046.181-1.692.08-.644.161-1.269.242-1.873.08-.604.16-1.107.242-1.511 0-.161.061-.584.181-1.269.121-.684.242-1.451.362-2.296.121-.846.242-1.632.363-2.357.121-.725.181-1.167.181-1.33 0-.161.04-.502.121-1.027.08-.523.161-1.067.242-1.632.08-.562.161-1.106.242-1.631.079-.523.121-.906.121-1.148 0-.644.019-1.792.061-3.444.04-1.65.079-3.384.121-5.197.04-1.813.08-3.524.121-5.137.04-1.611.061-2.738.061-3.384v-14.503c0-.161-.021-.644-.061-1.45-.042-.805-.081-1.711-.121-2.72l-.121-3.021c-.042-1.007-.061-1.752-.061-2.236 0-.321-.042-1.188-.121-2.599-.081-1.409-.162-2.92-.242-4.533-.081-1.61-.162-3.101-.242-4.472-.081-1.369-.121-2.255-.121-2.659 0-.321-.021-.886-.061-1.692-.042-.805-.081-1.65-.121-2.538l-.121-2.538c-.042-.805-.06-1.409-.06-1.813 0-.563-.042-1.913-.121-4.049-.081-2.134-.162-4.451-.242-6.95-.081-2.497-.162-4.834-.242-7.01-.081-2.175-.121-3.544-.121-4.109 0-.079-.021-.321-.061-.725-.042-.402-.081-.865-.121-1.39l-.121-1.451c-.041-.442-.06-.786-.06-1.027 0-.161-.042-.523-.121-1.088-.081-.563-.163-1.167-.242-1.813l-.241-1.874c-.082-.604-.121-1.027-.121-1.269 0-.402-.042-.886-.121-1.451-.081-.562-.162-.925-.241-1.088-.081-.16-.121-.341-.121-.543 0-.2-.042-.381-.121-.544-.082-.242-.121-.442-.121-.604-.163-.242-.323-.562-.483-.966-.163-.403-.344-.805-.544-1.209l-.785-1.571c-.081-.161-.262-.342-.543-.544-.283-.2-.504-.302-.665-.302l-.483-.242c-.081 0-.142.021-.181.061-.042.042-.102.061-.181.061-.082.081-.163.121-.242.121-.081.162-.162.283-.241.362-.081.163-.162.263-.242.302-.082.042-.163.102-.242.182l-.362.604v.846c-.081.163-.223.544-.423 1.148-.202.604-.302.988-.302 1.148-.081.163-.163.585-.242 1.269-.081.686-.121 1.109-.121 1.269v6.286c0 .081.061.525.181 1.33.121.806.242 1.752.363 2.84.121 1.088.26 2.196.422 3.324.161 1.129.321 2.055.483 2.78.079.163.16.525.242 1.087.08.565.121.888.121.967 0 .162.04.444.121.846l.241 1.269c.08.444.161.846.242 1.209.079.362.121.585.121.665.08.404.161.988.242 1.752.079.767.121 1.229.121 1.39 0 .242.019.665.061 1.269.04.604.079 1.269.121 1.994.039.725.079 1.39.121 1.994.04.604.061 1.027.061 1.269 0 .163.019.444.06.846.04.404.08.846.121 1.33.04.483.1.948.181 1.39.079.444.121.786.121 1.028 0 .081.019.302.06.664l.121 1.209c.039.444.079.867.121 1.269.04.404.061.646.061.725 0 .565.04 1.432.121 2.599.08 1.169.161 2.377.242 3.626.079 1.25.14 2.417.181 3.505.04 1.087.061 1.833.061 2.236 0 .323.019.987.061 1.994.039 1.008.079 2.115.121 3.324.04 1.208.079 2.357.121 3.445.04 1.087.061 1.873.061 2.356 0 .807.019 1.934.061 3.384l.121 4.412c.04 1.492.08 2.882.121 4.17.04 1.29.061 2.175.061 2.659l.362.967c0 .241-.021.625-.061 1.148-.042.525-.081 1.108-.121 1.752l-.121 1.813c-.042.565-.06.967-.06 1.208 0 .404-.021 1.148-.061 2.236-.041 1.087-.081 2.256-.121 3.505-.042 1.25-.081 2.438-.121 3.565-.042 1.129-.061 1.934-.061 2.417v4.472l-.362.483c0 .242-.021.725-.061 1.451-.042.725-.102 1.471-.181 2.236-.081.767-.162 1.511-.242 2.236-.081.725-.121 1.208-.121 1.45 0 .163-.042.525-.121 1.088-.081.564-.181 1.189-.302 1.874-.121.686-.222 1.329-.302 1.934-.082.604-.121 1.027-.121 1.269 0 .163-.061.646-.181 1.45-.121.807-.182 1.29-.182 1.451 0 .081-.021.262-.061.543-.041.284-.081.605-.121.967l-.121 1.027c-.042.323-.061.525-.061.604 0 .162-.042.525-.121 1.088-.082.564-.163.927-.242 1.087 0 .163-.06.483-.181.967s-.241 1.009-.362 1.571c-.121.565-.242 1.088-.362 1.571-.121.483-.181.767-.181.846 0 .081-.021.302-.061.665-.042.363-.061.624-.061.786-.002.162.017.403.059.726zM421.275 175.423c.362.081.623.121.785.121.079 0 .221.041.423.121.2.081.342.202.423.362.079.082.221.344.423.786.2.444.302.746.302.907.161.162.281.646.363 1.45.08.807.121 1.29.121 1.451.079.241.181.665.302 1.269.121.604.181.987.181 1.148.079.323.221.967.423 1.934.2.967.342 1.571.423 1.813.079.323.242.928.483 1.813.241.888.522 1.854.846 2.901.321 1.048.604 2.055.846 3.021s.442 1.692.604 2.176c.08.162.161.404.242.725.079.323.121.564.121.725.079.163.302.707.664 1.632.363.927.583 1.471.665 1.631.08.082.181.302.302.665.121.363.26.767.423 1.209.16.444.302.867.423 1.269.121.404.221.646.302.725 0 .162.121.483.362.967.242.483.502 1.027.786 1.632.281.604.562 1.189.846 1.752.281.565.502.967.665 1.209.16.323.523 1.027 1.087 2.115.562 1.088.925 1.832 1.087 2.236 0 .079.14.302.423.665.281.362.462.623.543.786 0 .079.14.342.423.785.282.442.563.926.846 1.451.281.523.562 1.027.846 1.511.281.483.422.765.422.846.161.16.342.402.544.725.2.321.302.563.302.725.161.161.523.584 1.088 1.269.562.684.966 1.188 1.208 1.511 0 .08.079.2.241.363.08.08.161.121.242.121.16.161.402.342.725.544.321.2.523.342.604.423.242.161.562.362.967.604.402.242.683.363.846.363h2.175c.16 0 .342-.121.543-.363.2-.242.342-.443.423-.604v-3.384c-.081-.081-.163-.202-.242-.363-.162-.162-.242-.323-.242-.483-.081-.162-.223-.344-.422-.544l-.423-.423c-.163 0-.344-.061-.544-.181-.202-.121-.344-.223-.423-.302-.082 0-.302-.061-.665-.182-.363-.121-.585-.223-.665-.302-.242-.163-.585-.465-1.027-.907-.443-.444-.706-.746-.785-.906 0-.082-.142-.363-.423-.846-.283-.483-.585-1.069-.906-1.752-.323-.686-.665-1.35-1.027-1.994-.362-.646-.625-1.167-.786-1.571-.242-.483-.564-1.167-.966-2.055-.404-.886-.827-1.792-1.269-2.719-.444-.926-.827-1.732-1.148-2.417-.323-.684-.483-1.107-.483-1.269-.081-.161-.222-.502-.422-1.027-.202-.523-.404-1.067-.604-1.632-.202-.563-.383-1.087-.543-1.571-.163-.483-.242-.804-.242-.967-.081-.16-.302-.725-.665-1.692-.363-.967-.585-1.53-.665-1.692-.081-.242-.263-.665-.544-1.269-.283-.604-.423-.986-.423-1.148-.162-.402-.383-1.127-.664-2.176-.284-1.046-.504-1.692-.665-1.934l-.422-2.055c-.202-.967-.344-1.571-.423-1.813 0-.161-.042-.544-.121-1.148-.081-.604-.181-1.249-.302-1.934-.121-.684-.223-1.369-.302-2.055-.081-.684-.162-1.188-.242-1.511v-1.45c.08-.079.161-.2.242-.362.241-.242.321-.363.241-.363.08-.16.221-.362.423-.604.2-.242.381-.362.543-.362.08-.161.402-.282.967-.363.562-.08.967-.121 1.208-.121.321 0 .906-.04 1.752-.121.846-.08 1.731-.14 2.658-.182.925-.04 1.812-.079 2.658-.121.846-.04 1.429-.061 1.752-.061.16-.08.321-.181.483-.302.16-.121.321-.181.483-.181l.241-.242c.079-.08.121-.161.121-.242v-.967l-.423-.423c-.202-.2-.343-.381-.422-.544l-.483-.242c-.323-.16-.604-.242-.846-.242-.163-.079-.464-.181-.906-.302-.444-.121-.746-.181-.906-.181-.241-.079-.685-.181-1.329-.302-.646-.121-1.048-.181-1.208-.181-.162 0-.464-.019-.906-.061-.443-.04-.906-.1-1.389-.181-.483-.079-.947-.14-1.39-.181-.443-.04-.706-.061-.785-.061-.483-.079-1.189-.181-2.114-.302-.927-.121-1.431-.181-1.51-.181-.081 0-.202-.04-.363-.121-.322-.161-.483-.281-.483-.362-.082 0-.162-.04-.242-.121l-.241-.242c0-.161-.061-.342-.182-.544-.121-.2-.223-.342-.302-.423 0-.161-.042-.423-.121-.786-.081-.362-.202-.583-.362-.665 0-.16-.081-.562-.242-1.208-.163-.644-.302-1.33-.423-2.055-.121-.725-.262-1.409-.423-2.054-.163-.644-.242-1.047-.242-1.209 0-.161-.081-.523-.241-1.088-.163-.563-.302-1.167-.423-1.813-.121-.644-.262-1.248-.423-1.812-.163-.563-.242-.926-.242-1.088 0-.08-.041-.484-.121-1.209-.082-.725-.202-1.248-.363-1.571 0-.08-.021-.302-.06-.665-.042-.362-.06-.765-.06-1.208 0-.442-.021-.846-.061-1.208-.042-.363-.06-.584-.06-.665-.081-.16-.181-.544-.302-1.148-.121-.604-.181-.986-.181-1.148-.081-.242-.202-.765-.362-1.571-.162-.804-.344-1.65-.544-2.538-.202-.886-.383-1.731-.544-2.538-.162-.805-.283-1.288-.362-1.451-.081-.16-.162-.562-.241-1.208-.082-.644-.121-1.047-.121-1.209-.162-.16-.283-.463-.362-.906-.081-.442-.121-.744-.121-.907-.081-.16-.181-.402-.302-.725-.121-.321-.182-.563-.182-.725-.162-.321-.464-.967-.906-1.934-.444-.967-.746-1.571-.906-1.813-.163-.242-.383-.623-.665-1.148l-.846-1.571c-.283-.523-.525-.986-.725-1.39-.202-.402-.344-.644-.423-.725-.081-.161-.464-.584-1.148-1.269l-1.51-1.511c-.163 0-.344-.08-.544-.242-.202-.16-.343-.242-.423-.242h-2.537c-.323.163-.706.465-1.147.907-.444.444-.665.746-.665.906v18.009c-.081.242-.163.725-.242 1.45-.081.725-.121 1.209-.121 1.45-.081.404-.162 1.492-.241 3.263-.082 1.774-.182 3.668-.302 5.681-.121 2.015-.223 3.909-.302 5.68-.082 1.773-.121 2.901-.121 3.384 0 .082-.021.263-.06.544-.042.283-.103.604-.182.967-.081.363-.142.707-.181 1.027-.042.323-.061.525-.061.604 0 .162-.021.525-.061 1.088-.042.564-.081 1.148-.121 1.752l-.121 1.752c-.041.564-.06.927-.06 1.088 0 .162-.082.344-.242.543-.162.202-.242.344-.242.423-.163.163-.464.344-.906.544-.443.202-.746.344-.906.423-.404 0-1.048.021-1.934.061-.887.042-1.854.081-2.899.121-1.048.042-2.035.102-2.96.182-.927.081-1.552.121-1.873.121-.322 0-.785.021-1.389.061-.604.042-1.25.081-1.933.121-.684.041-1.308.102-1.873.181-.562.081-.966.121-1.208.121-.161 0-.562.061-1.208.182-.644.121-1.127.223-1.45.302-.16 0-.441.061-.846.182-.402.121-.644.223-.725.302-.16 0-.362.06-.604.181s-.362.223-.362.302c-.321.163-.704.504-1.148 1.028-.441.525-.665.827-.665.906-.079 0-.121.163-.121.484v1.571c0 .404.042.604.121.604 0 .162.121.404.363.725.242.323.443.564.604.725.081.163.283.423.604.786.323.362.564.585.725.665.162.162.443.362.846.604.404.242.646.362.725.362h3.141c.162 0 .706-.139 1.631-.423.925-.281 1.469-.462 1.631-.543.16 0 .441-.061.845-.182.402-.121.684-.221.846-.302.16 0 .543-.06 1.147-.181s.985-.221 1.147-.302c.08 0 .302-.04.665-.121.362-.08.785-.181 1.269-.302s.906-.242 1.269-.363c.362-.121.583-.181.664-.181.321 0 .886-.04 1.691-.121.805-.08 1.288-.2 1.45-.363h1.813c.079 0 .221.061.423.181.2.121.381.223.543.302.079.081.221.242.423.483.2.242.342.404.423.483v8.097c0 .484-.042 1.311-.121 2.478-.081 1.169-.182 2.417-.302 3.747-.121 1.329-.223 2.559-.302 3.686-.081 1.129-.121 1.934-.121 2.417 0 .163-.042.465-.121.907-.082.444-.182.927-.302 1.45-.121.525-.242 1.027-.362 1.511-.121.483-.181.766-.181.846v1.33l-.242.242-.241.242v2.2960000000000003c0 .162.06.483.181.967.121.483.221.807.302.967 0 .081.06.241.181.483s.221.404.302.484c.08.162.302.423.665.785l.665.665c.08.079.281.181.604.302.321.121.562.181.725.181h.966c.161 0 .381-.061.665-.181.281-.121.502-.223.664-.302.08-.079.221-.242.423-.483.2-.242.342-.402.423-.483 0-.079.08-.242.242-.483.161-.242.242-.402.242-.484 0-.079.019-.342.061-.786l.121-1.39c.04-.483.08-.925.121-1.33.04-.402.1-.644.182-.725 0-.161.04-.644.121-1.45.079-.805.121-1.249.121-1.33 0-.079.019-.302.06-.665.04-.362.061-.665.061-.906 0-.079-.021-.2-.061-.363-.041-.16-.06-.321-.06-.483v-.483c0-.16-.042-.462-.121-.906-.081-.442-.121-.744-.121-.906v-20.426c0-.079.04-.302.121-.665.079-.362.121-.623.121-.785.079 0 .221-.121.422-.363.2-.242.342-.442.423-.604.16 0 .341-.04.543-.121.2-.079.342-.121.423-.121.161-.16.483-.281.966-.362.483-.08.765-.121.846-.121.402-.161 1.148-.281 2.235-.362 1.087-.08 1.832-.121 2.235-.121.079 0 .342-.04.785-.121.442-.08.825-.121 1.148-.121.243-.004.546.037.908.117zm-11.659-8.823v-1.571c0-.16.019-.604.061-1.33.04-.725.079-1.529.121-2.417l.121-2.659c.04-.886.1-1.571.182-2.055 0-.16.019-.543.061-1.148.039-.604.06-1.288.06-2.055 0-.764.019-1.51.061-2.235.04-.725.061-1.288.061-1.692 0-.483.04-1.087.121-1.813.079-.725.14-1.43.182-2.115.039-.684.1-1.551.181-2.599 0-.08.061-.423.182-1.027.121-.604.181-1.067.181-1.39l.362-1.088c.079-.242.121-.523.121-.846l.967-.967h.845c.079 0 .221.142.423.423.2.283.381.464.543.544.079.162.221.483.423.967.2.483.341.807.422.967 0 .081.04.302.121.665.079.362.2.625.362.785.161.404.342 1.028.544 1.874.2.846.302 1.351.302 1.511.08.242.2.725.362 1.451.161.725.302 1.471.423 2.236.121.767.242 1.511.362 2.236.121.726.181 1.25.181 1.571.16.081.281.223.362.423.08.202.121.344.121.423v.967c0 .163.079.344.241.544.161.202.242.344.242.423v.483c0 .081.061.404.182.967.121.564.181.887.181.967 0 .162.04.464.121.906.079.444.182.907.302 1.39l.362 1.45s.181.767.181.846c0 .242.04.604.121 1.087.079.484.2.767.362.846 0 .162.04.323.121.483l.241.483c0 .082-.041.363-.121.846-.082.484-.163.846-.242 1.088-.162.081-.283.223-.362.423-.081.202-.121.383-.121.544-.242.242-.564.363-.966.363-.242.081-.625.162-1.148.242-.525.081-1.087.181-1.691.302-.604.121-1.189.223-1.752.302-.564.081-.966.121-1.208.121h-2.295c-.082 0-.163-.04-.242-.121-.082-.079-.182-.14-.302-.181-.121-.04-.223-.1-.302-.181-.082 0-.121-.04-.121-.121-.081-.079-.121-.2-.121-.362-.163-.08-.283-.221-.363-.423-.081-.2-.121-.342-.121-.423v-1.33zM490.202 215.066v3.626c0 .16.04.423.121.786.08.362.2.623.363.786 0 .079.139.2.422.362.281.161.502.242.665.242h1.208c.16 0 .381-.081.664-.242.282-.162.502-.283.665-.362 0-.081.061-.323.182-.725.121-.404.26-.686.423-.846 0-.163.079-.544.241-1.148.161-.604.242-1.069.242-1.39.079-.322.181-.785.302-1.39.121-.604.242-1.189.363-1.752s.26-1.288.422-2.175c0-.08.04-.342.121-.786.079-.442.14-.906.181-1.39.04-.483.1-.925.181-1.33.079-.402.121-.684.121-.846.16-.242.402-.886.725-1.934.321-1.046.562-1.692.725-1.934 0-.16.04-.623.121-1.39.08-.765.2-1.228.363-1.39 0-.079.06-.381.181-.906.121-.523.242-1.088.362-1.692.121-.605.242-1.167.363-1.692.121-.523.181-.865.181-1.027.08-.483.221-1.711.423-3.687.2-1.973.381-4.088.543-6.345.16-2.255.321-4.37.483-6.345.16-1.974.241-3.203.241-3.686 0-.08.04-.342.121-.786.079-.442.14-.925.181-1.45.04-.523.1-1.027.181-1.511.079-.483.121-.804.121-.967 0-.079.019-.463.061-1.148.04-.684.06-1.49.06-2.417 0-.926.019-1.853.061-2.78.04-.925.06-1.671.06-2.236 0-.562-.021-1.348-.06-2.357-.042-1.006-.061-1.994-.061-2.961s-.021-1.813-.06-2.538c-.042-.725-.061-1.167-.061-1.329 0-.322-.021-.947-.061-1.874-.042-.925-.102-1.934-.181-3.021-.082-1.087-.142-2.115-.181-3.082-.042-.967-.102-1.692-.182-2.175 0-.08-.021-.321-.06-.725-.042-.402-.102-.825-.181-1.269-.081-.442-.142-.865-.181-1.269-.042-.402-.061-.644-.061-.726-.082-.321-.163-.804-.242-1.45-.081-.644-.142-1.309-.181-1.994-.042-.684-.081-1.288-.121-1.813-.042-.523-.061-.865-.061-1.027v-8.219c0-.08-.102-.261-.302-.544-.202-.281-.302-.502-.302-.665-.081 0-.202-.161-.362-.483-.081-.161-.121-.282-.121-.363-.163-.16-.383-.402-.665-.725-.283-.321-.423-.523-.423-.604-.163 0-.404-.079-.725-.242l-.725-.363c-.163 0-.323-.039-.483-.121-.163 0-.283-.019-.362-.061-.082-.04-.163-.06-.242-.06-.082-.08-.223-.121-.423-.121-.202 0-.383-.04-.544-.121-.242 0-.483-.04-.725-.121-.162 0-.543.021-1.147.061-.604.042-1.068.142-1.39.302-.081 0-.162.021-.241.06-.082.042-.202.061-.363.061-.162.082-.323.121-.483.121-.082.082-.283.202-.604.363l-.483.242c-.323.242-.927.726-1.812 1.451-.887.725-1.491 1.169-1.812 1.33v.362c0 .081-.181.202-.544.363-.362.162-.543.283-.543.362-.163.081-.383.223-.665.423-.283.202-.423.344-.423.423v.363c-.163 0-.404.102-.725.302-.323.202-.564.302-.725.302l.121.121c0 .081-.042.121-.121.121 0 .082-.142.202-.423.363-.283.163-.504.283-.665.362v.363l-.483.604v.845c0 .163.08.344.242.544.16.202.241.383.241.544h1.087l4.712-2.538.362-.242.242.121v.121c.16 0 .381.021.665.061.281.042.502.102.665.181l.604.363.242.242c.079.081.2.162.362.241 0 .163.079.423.242.786.16.362.242.665.242.906 0 .163.1.525.302 1.088.2.564.302.927.302 1.088.16.162.281.625.362 1.39.079.767.121 1.269.121 1.511 0 .081.04.283.121.604.079.323.14.706.181 1.148.04.444.1.846.181 1.209.079.362.121.585.121.665.16.163.302.585.422 1.269.121.686.182 1.109.182 1.269.16.404.302 1.25.423 2.539.121 1.29.26 2.135.423 2.538 0 .404.019 1.088.061 2.055.04.967.1 2.036.181 3.203.079 1.169.139 2.257.181 3.263.04 1.009.06 1.713.06 2.115l.604.604v5.68c0 .081-.042.483-.121 1.209-.081.725-.141 1.571-.181 2.538-.042.967-.102 1.934-.181 2.9-.081.967-.121 1.734-.121 2.297-.081 1.048-.181 2.458-.302 4.23-.121 1.773-.242 3.525-.363 5.257-.12 1.734-.241 3.263-.362 4.593s-.223 2.076-.302 2.236c0 .162-.021.444-.061.846-.042.404-.102.867-.181 1.39-.081.525-.142 1.008-.181 1.45-.042.444-.102.707-.181.786 0 .163-.042.465-.121.907-.081.444-.141.906-.181 1.39-.042.483-.102.967-.181 1.45-.081.484-.121.767-.121.846 0 .242-.06.786-.181 1.632-.121.846-.241 1.773-.362 2.78-.121 1.008-.242 1.955-.362 2.84-.121.887-.181 1.45-.181 1.692-.082.242-.142.625-.181 1.148-.042.525-.082 1.069-.121 1.632-.042.564-.102 1.25-.181 2.054v3.985zm-46.878-4.835v.846c0 .242.16.604.483 1.088 0 .081.079.202.241.363.079.081.2.162.362.242l.483.242c.08.081.321.121.725.121.161 0 .321.042.483.121h1.9340000000000002c.16 0 .483-.061.967-.181l1.208-.302.604-.363c.161-.079.381-.221.664-.423.282-.2.423-.342.423-.423.16-.08.302-.2.423-.363.121-.161.26-.281.423-.362 0-.161.079-.342.241-.544.161-.201.242-.342.242-.423 0-.161.1-.623.302-1.39.2-.765.302-1.228.302-1.39 0-.079.079-.381.242-.906.16-.523.241-.865.241-1.028 0-.079.101-.523.302-1.329.2-.805.302-1.409.302-1.813 0-.161.1-.765.302-1.813.2-1.046.302-1.651.302-1.813.079-.16.2-.563.362-1.209.161-.644.342-1.348.543-2.115.2-.765.402-1.469.604-2.115.2-.644.342-1.087.423-1.33 0-.079.04-.462.121-1.148.08-.684.2-1.107.363-1.269.079-.402.221-.986.423-1.752.2-.765.423-1.53.665-2.296.241-.765.483-1.49.725-2.176.242-.684.402-1.106.483-1.269.16-.16.381-.583.665-1.269.281-.684.423-1.106.423-1.269.16-.079.362-.684.604-1.813.242-1.127.483-1.973.725-2.538 0-.16.061-.562.181-1.208.121-.644.261-1.088.423-1.33 0-.161.1-.623.302-1.39.2-.765.302-1.227.302-1.39 0-.16.04-.462.121-.906.08-.442.2-.744.362-.906.161-.242.342-.765.544-1.571.2-.804.381-1.369.544-1.692.16-.079.381-.523.665-1.329.281-.805.422-1.288.422-1.451.161-.16.302-.462.423-.906.121-.442.181-.744.181-.906.16-.161.302-.544.422-1.148.121-.604.261-.986.423-1.148 0-.16.14-.623.423-1.39.281-.765.502-1.309.664-1.631.161-.321.381-.846.665-1.572.281-.725.422-1.167.422-1.329l3.142-6.285c.079-.16.281-.583.604-1.269.321-.684.665-1.429 1.027-2.236.363-.805.704-1.571 1.027-2.296.32-.725.522-1.167.604-1.33.161-.161.302-.442.423-.846.121-.403.181-.684.181-.846-.081 0-.162-.04-.242-.121-.082 0-.142-.019-.181-.061-.042-.04-.102-.06-.182-.06h-1.087c-.162.162-.525.564-1.088 1.208-.564.646-.927 1.088-1.087 1.33-.162.162-.423.483-.785.967-.363.483-.725 1.027-1.087 1.631-.363.604-.725 1.19-1.087 1.753-.363.564-.585.967-.665 1.208-.163.242-.383.686-.665 1.33-.283.646-.423 1.048-.423 1.208-.082.082-.121.242-.121.483 0 .163.04.323.121.483 0 .082-.121.121-.362.121-.082 0-.163.042-.242.121-.163.081-.202.242-.121.484.079.241.121.443.121.604l-.846.242c0 .082.04.242.121.483.079.242.04.363-.121.363 0 .081-.042.162-.121.242-.081.081-.242.121-.483.121 0 .323-.162.646-.483.967-.162.323-.443.967-.845 1.934-.404.967-.686 1.571-.846 1.813-.162.163-.383.686-.665 1.571-.283.887-.422 1.411-.422 1.571-.163.323-.404.786-.725 1.39-.323.604-.646 1.25-.966 1.934-.323.686-.604 1.311-.846 1.873-.242.565-.404.967-.483 1.209 0 .081-.202.323-.604.725-.404.404-.604.646-.604.725 0 .081.06.162.181.242.121.081.181.202.181.362-.163 0-.444.021-.846.061-.404.041-.604.021-.604-.061-.323 0-.483-.12-.483-.362-.163 0-.302-.061-.423-.182l-.423-.423c0-.079-.061-.221-.182-.423-.121-.2-.262-.342-.423-.423 0-.242-.021-.705-.06-1.39-.042-.684-.102-1.39-.181-2.116-.082-.725-.142-1.429-.182-2.115-.041-.684-.06-1.148-.06-1.39 0-.161-.042-.604-.121-1.33-.081-.725-.142-1.511-.181-2.357-.041-.846-.102-1.65-.181-2.417-.081-.765-.121-1.228-.121-1.39 0-.241-.042-.683-.121-1.329-.081-.644-.142-1.33-.181-2.055-.042-.726-.102-1.43-.181-2.115-.081-.684-.121-1.148-.121-1.39-.162-.16-.423-.523-.785-1.087-.362-.563-.625-.926-.785-1.088l-.725-.726c-.323-.321-.564-.483-.725-.483-.162-.16-.443-.362-.846-.604-.404-.242-.685-.363-.846-.363h-3.504l-.966.484c-.646.323-1.088.604-1.329.846l-.242.242c-.162.163-.241.284-.241.363-.163.081-.302.223-.423.423-.121.202-.182.344-.182.423v.242c0 .162.2.323.604.483-.163.323-.242 1.069-.242 2.236 0 1.169.079 1.955.242 2.357 0 .162.181.504.543 1.027.363.525.543.827.543.906.321.725.563 1.33.726 1.813.16.483.341.967.543 1.45.2.483.341.888.422 1.208.08.082.2.363.363.847.079.241.12.443.12.604.08.163.161.423.242.786.079.363.139.746.181 1.148.04.404.1.785.181 1.148.079.362.16.585.241.665 0 .163.1.726.302 1.692.2.967.302 1.572.302 1.813v15.229c-.081.242-.181.888-.302 1.934-.121 1.048-.242 2.236-.362 3.565l-.362 3.988c-.121 1.33-.263 2.398-.423 3.203 0 .323-.041.988-.12 1.994-.082 1.008-.202 1.673-.363 1.994 0 .163-.041.525-.12 1.088-.081.564-.182 1.169-.302 1.813-.121.646-.262 1.229-.423 1.752-.162.525-.283.827-.362.906-.081.404-.181.967-.302 1.692s-.242 1.411-.362 2.055c-.121.646-.223 1.229-.302 1.752-.082.525-.121.827-.121.907v2.538c-.323 0-.483.081-.483.241v.967zM516.78 199.112h1.933c.08 0 .281.042.604.121.321.081.562.162.725.242.161.081.402.223.725.423.321.202.563.344.726.423.079.081.281.262.604.544.321.283.664.564 1.027.846.362.283.704.544 1.027.786.321.242.523.404.604.483.08.081.363.263.846.544.483.283.804.504.967.665.16.163.402.344.725.544.321.202.562.302.725.302.16.163.441.383.846.665l1.208.846c.402.283.765.525 1.087.725.321.202.523.344.604.423.242.162.624.443 1.148.846.523.404 1.087.827 1.691 1.269.604.444 1.167.867 1.691 1.269.523.404.865.686 1.027.846.08.082.382.344.906.786.523.444 1.067.906 1.631 1.39.562.483 1.106.925 1.631 1.329.523.403.864.644 1.027.725.16.161.604.544 1.329 1.148s1.51 1.228 2.356 1.874c.846.644 1.631 1.269 2.356 1.873.725.604 1.208.986 1.45 1.148.161.161.563.544 1.208 1.148.644.604 1.369 1.248 2.174 1.934.804.684 1.55 1.309 2.235 1.874.684.562 1.106.885 1.269.967.161.16.604.523 1.329 1.087.725.563 1.208.967 1.45 1.209.079 0 .321.121.725.363.402.241.683.402.846.483.16.079.523.281 1.087.604.562.321.925.523 1.087.604l.967.483c.161.08.402.161.725.242.321.079.522.121.604.121h.604c.16 0 .342-.061.544-.182.2-.121.341-.181.422-.181.08-.162.182-.323.302-.483.121-.163.181-.284.181-.363 0-.162-.06-.344-.181-.544-.121-.202-.223-.302-.302-.302-.242-.242-.646-.625-1.208-1.148-.564-.525-1.168-1.069-1.812-1.632-.646-.564-1.25-1.108-1.812-1.631-.564-.525-.966-.907-1.208-1.148-.242-.162-.686-.564-1.329-1.208l-2.054-2.055-1.994-1.994-1.147-1.148c-.404-.323-1.008-.867-1.812-1.631-.806-.767-1.673-1.552-2.598-2.357-.927-.807-1.773-1.571-2.537-2.296-.767-.725-1.31-1.249-1.631-1.571-.081-.079-.343-.302-.785-.665-.444-.363-.927-.744-1.45-1.148-.525-.402-1.027-.805-1.51-1.208-.483-.402-.807-.644-.967-.725-.081-.08-.262-.281-.543-.604-.283-.321-.604-.644-.967-.967l-1.027-.906c-.323-.282-.524-.463-.604-.544-.082-.08-.283-.242-.604-.484-.323-.241-.665-.523-1.027-.846-.362-.321-.725-.604-1.087-.846s-.585-.362-.665-.362c-.082-.08-.383-.363-.906-.846-.525-.484-1.108-.986-1.752-1.511-.646-.523-1.25-1.007-1.812-1.451-.564-.441-.927-.744-1.087-.906 0-.079-.302-.342-.906-.786-.604-.441-1.068-.785-1.39-1.027-.081 0-.383-.181-.906-.544-.525-.362-.827-.583-.906-.665-.163-.08-.544-.342-1.148-.786-.604-.442-1.229-.907-1.873-1.39-.646-.483-1.269-.925-1.873-1.329-.604-.403-.987-.684-1.148-.846-.081 0-.404-.182-.967-.544-.564-.363-.927-.584-1.087-.665l-.846-.846c0-.08-.061-.221-.181-.423-.121-.2-.223-.342-.302-.423v-1.209c.079-.16.221-.462.423-.906.2-.442.381-.744.544-.907.079-.079.281-.321.604-.725.321-.402.665-.804 1.027-1.208l1.027-1.148c.321-.363.523-.583.604-.665.079-.079.242-.281.483-.604l.725-.967.725-.967c.242-.321.363-.523.363-.604.16-.079.483-.402.966-.966.483-.563.804-.926.967-1.088.241-.321.623-.744 1.147-1.269.523-.523 1.027-1.067 1.51-1.632.483-.563.925-1.067 1.329-1.511.402-.442.604-.705.604-.786l9.424-9.427c.08-.08.281-.342.604-.786.321-.442.665-.907 1.027-1.39.363-.483.684-.925.967-1.329.281-.402.462-.684.543-.846l.544-.544.906-.906.906-.907.543-.544c.08-.079.302-.342.665-.786.362-.442.623-.744.785-.906.321-.321.825-.865 1.51-1.632.683-.765 1.106-1.228 1.269-1.39l.725-.726c.402-.402.846-.804 1.329-1.208.483-.402.925-.805 1.329-1.208l.725-.725c.079-.08.321-.342.725-.786l1.269-1.39 1.329-1.45c.442-.483.744-.846.906-1.088.161-.161.523-.562 1.087-1.208.562-.644 1.148-1.369 1.751-2.176.604-.804 1.188-1.55 1.752-2.236.562-.684.925-1.106 1.087-1.269l.725-.725 1.329-1.33 1.329-1.33.846-.846c.079-.079.302-.362.665-.846.362-.483.583-.764.665-.846.16-.161.543-.502 1.147-1.027.604-.523.985-.865 1.148-1.027.08-.161.402-.423.966-.786.562-.362.925-.544 1.088-.544.16-.079.422-.281.785-.604.362-.321.725-.665 1.087-1.027l1.027-1.028.725-.725c.079-.16.281-.442.604-.846.321-.402.562-.684.725-.846.161-.161.342-.402.543-.725.2-.321.382-.563.544-.725 0-.08.08-.221.242-.423.16-.2.242-.342.242-.423v-1.208c0-.08-.082-.221-.242-.423-.162-.2-.242-.342-.242-.423-.162-.16-.363-.402-.604-.725-.242-.321-.404-.484-.483-.484-.081-.079-.283-.241-.604-.483-.323-.242-.564-.402-.725-.483-.162 0-.404-.061-.725-.182-.323-.121-.564-.221-.725-.302h-1.329c-.082.081-.163.121-.242.121-.081 0-.162.042-.241.121-.163.081-.283.162-.362.242-.163.081-.283.241-.363.483-.082.242-.202.404-.363.483-.081.163-.202.284-.362.363l-.483.483c-.162.163-.443.423-.846.786-.404.363-.785.746-1.147 1.148l-1.027 1.148c-.322.363-.524.585-.604.665-.081.163-.323.464-.725.907-.404.443-.686.746-.846.906-.082.162-.363.525-.846 1.088-.483.564-1.008 1.169-1.571 1.813-.564.646-1.108 1.269-1.631 1.873-.525.604-.827.988-.906 1.148-.163.163-.362.384-.604.665-.242.283-.404.464-.483.544v.484c0 .082-.121.242-.362.483s-.404.362-.483.362c-.163.242-.564.786-1.208 1.632-.646.846-1.329 1.752-2.054 2.72-.725.967-1.41 1.854-2.054 2.659-.646.806-1.048 1.33-1.208 1.571-.163.242-.384.525-.665.846-.283.323-.543.646-.785.967-.323.323-.604.686-.846 1.088-.081.162-.283.404-.604.725l-1.087 1.088-1.087 1.088-.604.604c-.081.163-.323.484-.725.967-.404.483-.846 1.027-1.329 1.632s-.927 1.148-1.329 1.632c-.404.483-.646.806-.725.967-.163.081-.404.302-.726.665-.322.362-.664.766-1.027 1.208-.362.444-.685.867-.966 1.269-.283.404-.465.646-.544.725-.162.082-.343.263-.543.544-.202.284-.343.505-.423.665-.082.081-.163.202-.242.363l-.242.483c-.081.081-.302.283-.665.604-.362.323-.585.564-.665.725-.162.162-.525.544-1.087 1.148-.564.604-1.168 1.269-1.812 1.994-.646.725-1.25 1.411-1.812 2.055-.564.646-.887 1.008-.966 1.087-.081.163-.283.404-.604.725-.323.323-.665.686-1.027 1.088-.362.404-.707.767-1.027 1.088l-.604.604-1.57 1.874c-.646.767-1.29 1.471-1.933 2.115l-2.175 2.417v.483c0 .082-.404.504-1.208 1.269-.807.767-1.45 1.35-1.934 1.753-.162.081-.423.223-.785.423-.362.202-.625.344-.785.423h-.845l-.242-.242-.241-.241c0-.321-.081-1.028-.242-2.116-.163-1.087-.242-1.792-.242-2.115v-7.735c0-.161-.042-.583-.121-1.269-.081-.684-.162-1.106-.241-1.269v-14.504c0-.402-.021-1.348-.061-2.84-.042-1.49-.102-3.122-.181-4.895-.082-1.771-.142-3.403-.181-4.895-.042-1.49-.061-2.436-.061-2.84v-8.219c0-.161-.061-.562-.181-1.208-.121-.644-.223-1.046-.302-1.209l-.423-.846-.423-.846-.543-.544-.423-.423c-.242-.161-.585-.321-1.027-.483-.444-.161-.746-.282-.906-.363h-2.2960000000000003c-.081.081-.362.323-.846.725-.483.404-.804.767-.966 1.088-.079 0-.181.102-.302.302-.121.202-.181.383-.181.544-.079.162-.181.483-.302.967s-.221.846-.302 1.088v.846c0 .242.042.585.121 1.027.082.444.182.948.302 1.511.121.564.242 1.069.362 1.511.121.443.223.785.302 1.027 0 .081.042.362.121.846.082.483.202.807.363.967 0 .162.142.646.423 1.45.281.806.423 1.29.423 1.45 0 .082.019.344.061.786.04.444.079.967.121 1.571.04.604.1 1.208.181 1.813.08.604.121 1.108.121 1.511 0 .162.019.564.061 1.208.04.646.1 1.351.181 2.115.08.767.14 1.492.182 2.175.04.686.06 1.109.06 1.27 0 .081.019.344.061.786l.121 1.39c.04.483.079.948.121 1.39.04.444.06.707.06.786.08.323.14.888.182 1.692l.121 2.478c.04.846.08 1.652.121 2.417.04.767.06 1.269.06 1.511v6.043c0 .241.019.887.061 1.934.04 1.048.1 2.175.181 3.384.08 1.208.14 2.337.181 3.384.04 1.048.061 1.733.061 2.054 0 .888.019 1.632.061 2.236.04.604.061 1.209.061 1.813v2.659c0 .525-.021 1.069-.061 1.632-.042.564-.061 1.108-.061 1.631v1.148c-.081.163-.162.283-.242.362l-.242.483c-.081.082-.302.344-.664.786-.363.444-.585.706-.665.786-.081.162-.262.404-.543.725-.283.323-.423.525-.423.604-.079.081-.121.163-.121.242 0 .082-.04.163-.121.242-.079.162-.121.283-.121.362 0 .081-.04.263-.121.544-.079.283-.121.504-.121.665 0 .162.042.343.121.543.081.202.121.344.121.423.081.162.202.323.362.483.161.323.321.564.483.725 0 .081.121.263.362.544.242.283.502.564.786.846l1.147 1.148c.079.081.181.223.302.423.121.202.181.384.181.544.079.162.16.444.241.846.08.404.121.686.121.846.079.163.14.544.181 1.148l.121 1.874c.04.646.079 1.269.121 1.873.04.604.061.948.061 1.027 0 .163.061.484.181.967.121.484.242 1.009.362 1.571.121.565.221 1.088.302 1.572.079.483.16.846.242 1.087 0 .082.08.223.242.423.16.202.241.344.241.423 0 .081-.021.362-.06.846-.042.484-.021.767.06.846 0 .163.04.383.121.665.079.283.2.504.362.665 0 .079.04.16.121.242l.241.242h.484l.483-2.296v-11.482l.846-.846h1.447z"/></svg>